<svg xmlns="http://www.w3.org/2000/svg" xmlns:xlink="http://www.w3.org/1999/xlink" width="98.104" height="98.104" viewBox="0 0 98.104 98.104">
  <defs>
    <filter id="Trazado_904820" x="0" y="0" width="98.104" height="98.104" filterUnits="userSpaceOnUse">
      <feOffset dy="3" input="SourceAlpha"/>
      <feGaussianBlur stdDeviation="3" result="blur"/>
      <feFlood flood-opacity="0.161"/>
      <feComposite operator="in" in2="blur"/>
      <feComposite in="SourceGraphic"/>
    </filter>
  </defs>
  <g id="Grupo_1177615" data-name="Grupo 1177615" transform="translate(-204.418 -425.39)">
    <g id="Grupo_1177449" data-name="Grupo 1177449" transform="translate(-415.581 -100.61)">
      <g id="Grupo_1173585" data-name="Grupo 1173585" transform="translate(629 532)">
        <g id="Grupo_1173428" data-name="Grupo 1173428" transform="translate(0 0)">
          <g id="Grupo_1171958" data-name="Grupo 1171958">
            <g id="Grupo_1167341" data-name="Grupo 1167341">
              <g id="Grupo_1166792" data-name="Grupo 1166792">
                <g transform="matrix(1, 0, 0, 1, -9, -6)" filter="url(#Trazado_904820)">
                  <g id="Trazado_904820-2" data-name="Trazado 904820" transform="translate(9 6)" fill="#effbfe">
                    <path d="M 40.05199813842773 78.60399627685547 C 34.84685516357422 78.60399627685547 29.79819869995117 77.58489227294922 25.04628753662109 75.57500457763672 C 20.45572090148926 73.63336181640625 16.3326530456543 70.85340881347656 12.7916202545166 67.31237030029297 C 9.250587463378906 63.77133941650391 6.47063159942627 59.64828491210938 4.528986930847168 55.05771636962891 C 2.519098043441772 50.30579376220703 1.499998092651367 45.25713729858398 1.499998092651367 40.05199432373047 C 1.499998092651367 34.84685134887695 2.519098043441772 29.79819488525391 4.528986930847168 25.04627227783203 C 6.47063159942627 20.45571708679199 9.250587463378906 16.33264923095703 12.7916202545166 12.79161643981934 C 16.3326530456543 9.250583648681641 20.45572090148926 6.470638751983643 25.04628753662109 4.528994560241699 C 29.79819869995117 2.519105434417725 34.84685516357422 1.500005483627319 40.05199813842773 1.500005483627319 C 45.25714111328125 1.500005483627319 50.3057975769043 2.519105434417725 55.05772018432617 4.528994560241699 C 59.64828872680664 6.470638751983643 63.77134323120117 9.250583648681641 67.3123779296875 12.79161643981934 C 70.85340881347656 16.33264923095703 73.63336181640625 20.45571708679199 75.57501220703125 25.04627227783203 C 77.58489990234375 29.79819488525391 78.60399627685547 34.84685134887695 78.60399627685547 40.05199432373047 C 78.60399627685547 45.25713729858398 77.58489990234375 50.30579376220703 75.57501220703125 55.05771636962891 C 73.63336181640625 59.64828491210938 70.85340881347656 63.77133941650391 67.3123779296875 67.31237030029297 C 63.77134323120117 70.85340881347656 59.64828872680664 73.63336181640625 55.05772018432617 75.57500457763672 C 50.3057975769043 77.58489227294922 45.25714111328125 78.60399627685547 40.05199813842773 78.60399627685547 Z" stroke="none"/>
                    <path d="M 40.05199813842773 2.999992370605469 C 35.04869079589844 2.999992370605469 30.19664001464844 3.979217529296875 25.63061141967773 5.910484313964844 C 21.21883773803711 7.776512145996094 17.25603866577148 10.44851684570312 13.85227966308594 13.85227203369141 C 10.44851684570312 17.25603485107422 7.776519775390625 21.21883392333984 5.910491943359375 25.63060760498047 C 3.979225158691406 30.19663619995117 3 35.04868698120117 3 40.05199432373047 C 3 45.05530166625977 3.979225158691406 49.90735626220703 5.910491943359375 54.47338104248047 C 7.776519775390625 58.88513946533203 10.44851684570312 62.84795379638672 13.85227966308594 66.25170135498047 C 17.25603866577148 69.65546417236328 21.21883773803711 72.32746124267578 25.63061141967773 74.19348907470703 C 30.19664001464844 76.124755859375 35.04869079589844 77.10398101806641 40.05199813842773 77.10398101806641 C 45.05530548095703 77.10398101806641 49.90735626220703 76.124755859375 54.47338485717773 74.19348907470703 C 58.88515853881836 72.32746124267578 62.84795761108398 69.65546417236328 66.25171661376953 66.25170135498047 C 69.65547943115234 62.84795379638672 72.32747650146484 58.88513946533203 74.19350433349609 54.47338104248047 C 76.12477111816406 49.90735626220703 77.10399627685547 45.05530166625977 77.10399627685547 40.05199432373047 C 77.10399627685547 35.04868698120117 76.12477111816406 30.19663619995117 74.19350433349609 25.63060760498047 C 72.32747650146484 21.21883392333984 69.65547943115234 17.25603485107422 66.25171661376953 13.85227203369141 C 62.84795761108398 10.44851684570312 58.88515853881836 7.776512145996094 54.47338485717773 5.910484313964844 C 49.90735626220703 3.979217529296875 45.05530548095703 2.999992370605469 40.05199813842773 2.999992370605469 M 40.05199813842773 -7.62939453125e-06 C 62.17210388183594 -7.62939453125e-06 80.10399627685547 17.93188858032227 80.10399627685547 40.05199432373047 C 80.10399627685547 62.17210006713867 62.17210388183594 80.10398101806641 40.05199813842773 80.10398101806641 C 17.93189239501953 80.10398101806641 0 62.17210006713867 0 40.05199432373047 C 0 17.93188858032227 17.93189239501953 -7.62939453125e-06 40.05199813842773 -7.62939453125e-06 Z" stroke="none" fill="#497f88"/>
                  </g>
                </g>
              </g>
            </g>
          </g>
        </g>
      </g>
    </g>
    <g id="teacher_5190740_1_" data-name="teacher_5190740 (1)" transform="translate(226.477 429.48)">
      <path id="Trazado_1035582" data-name="Trazado 1035582" d="M146.7,327.014a.527.527,0,0,1-.527-.527V312.308a4.766,4.766,0,0,1-2.813.914h-.536v4.134a.527.527,0,0,1-.792.456l-4.743-2.752a.527.527,0,0,0-.529,0l-4.743,2.752a.527.527,0,0,1-.792-.456v-4.134h-.536a4.766,4.766,0,0,1-2.813-.914v14.179a.527.527,0,0,1-.527.527H123v3.558a.527.527,0,0,0,.527.527h26.994a.527.527,0,0,0,.527-.527v-3.558Z" transform="translate(-110.031 -266.876)" fill="#ffd15b"/>
      <path id="Trazado_1035583" data-name="Trazado 1035583" d="M127.218,455.338V451.78H123v3.558a.527.527,0,0,0,.527.527h4.218A.527.527,0,0,1,127.218,455.338Z" transform="translate(-110.031 -391.641)" fill="#fdb441"/>
      <path id="Trazado_1035584" data-name="Trazado 1035584" d="M236.51,337.8a.527.527,0,0,0-.529,0l-2.064,1.2,1.833,5a.527.527,0,0,0,.99,0l1.833-5Z" transform="translate(-209.252 -289.62)" fill="#fff"/>
      <path id="Trazado_1035585" data-name="Trazado 1035585" d="M164.643,22.758a6.075,6.075,0,0,0-3.74-1.282h-2.3a8.106,8.106,0,0,0-8.106,8.106V46.6h1.449a.527.527,0,0,1,.527.527v5.016a4.766,4.766,0,0,0,2.813.914h.536V49.541a.528.528,0,0,1,.232-.437l2.31-1.559a7.4,7.4,0,0,0,2.613.475h1.287a7.4,7.4,0,0,0,2.613-.475l2.31,1.559a.527.527,0,0,1,.232.437v3.516h.536a4.766,4.766,0,0,0,2.813-.914V47.126a.527.527,0,0,1,.527-.527h1.449V30.864a8.106,8.106,0,0,0-8.106-8.106Z" transform="translate(-134.631 -6.71)" fill="#fe7701"/>
      <g id="Grupo_1177596" data-name="Grupo 1177596" transform="translate(15.869 14.766)">
        <path id="Trazado_1035586" data-name="Trazado 1035586" d="M151.483,35.764h2.083c0,.005,0,.01,0,.015a2.276,2.276,0,0,1,2.048-2.264V29.582a8.107,8.107,0,0,1,6.6-7.964,6.107,6.107,0,0,0-1.311-.142h-2.3a8.106,8.106,0,0,0-8.106,8.106v6.346A3.023,3.023,0,0,1,151.483,35.764Z" transform="translate(-150.5 -21.476)" fill="#f46700"/>
        <path id="Trazado_1035587" data-name="Trazado 1035587" d="M155.825,229.294a4.788,4.788,0,0,1-.211-1.409v-2.549a7.406,7.406,0,0,1-1.714-2.906h-2.417a3.022,3.022,0,0,1-.983-.164v3.951h1.449a.527.527,0,0,1,.527.527v5.016a4.766,4.766,0,0,0,2.813.914h.536Z" transform="translate(-150.5 -201.094)" fill="#f46700"/>
      </g>
      <path id="Trazado_1035588" data-name="Trazado 1035588" d="M212.367,270.262l-2.31-1.559a7.4,7.4,0,0,1-2.613.475h-1.287a7.4,7.4,0,0,1-2.613-.475l-2.31,1.559a.527.527,0,0,0-.232.437v7.65a.527.527,0,0,0,.792.456l4.743-2.752a.527.527,0,0,1,.529,0l4.743,2.752a.527.527,0,0,0,.792-.456V270.7A.527.527,0,0,0,212.367,270.262Z" transform="translate(-179.806 -227.869)" fill="#eaf6ff"/>
      <path id="Trazado_1035589" data-name="Trazado 1035589" d="M203.543,268.7l-2.31,1.559a.527.527,0,0,0-.232.437v7.65a.527.527,0,0,0,.792.456l1.844-1.07V270.7a.527.527,0,0,1,.232-.437l1.65-1.113A7.372,7.372,0,0,1,203.543,268.7Z" transform="translate(-179.806 -227.869)" fill="#d8ecfe"/>
      <path id="Trazado_1035590" data-name="Trazado 1035590" d="M230.726,269.787h-1.287a7.4,7.4,0,0,1-2.411-.4v3.858l3.055,3.266,3.055-3.266v-3.858A7.4,7.4,0,0,1,230.726,269.787Z" transform="translate(-203.089 -228.478)" fill="#fed2a4"/>
      <path id="Trazado_1035591" data-name="Trazado 1035591" d="M229.666,269.787h-.227a7.4,7.4,0,0,1-2.411-.4v3.858l3.055,3.266,1.718-1.837-2.134-2.282Z" transform="translate(-203.089 -228.478)" fill="#ffbd86"/>
      <g id="Grupo_1177597" data-name="Grupo 1177597" transform="translate(13.825 29.053)">
        <path id="Trazado_1035592" data-name="Trazado 1035592" d="M136.225,161.816V156.99c0-.005,0-.01,0-.015h-2.083A3.027,3.027,0,0,0,131.115,160V161a3.027,3.027,0,0,0,3.027,3.027h2.417A7.408,7.408,0,0,1,136.225,161.816Z" transform="translate(-131.115 -156.975)" fill="#ffe5c2"/>
        <path id="Trazado_1035593" data-name="Trazado 1035593" d="M331.672,156.976h-2.082v4.841a7.41,7.41,0,0,1-.334,2.207h2.417A3.027,3.027,0,0,0,334.7,161V160A3.027,3.027,0,0,0,331.672,156.976Z" transform="translate(-308.362 -156.976)" fill="#ffe5c2"/>
      </g>
      <g id="Grupo_1177598" data-name="Grupo 1177598" transform="translate(18.935 23.934)">
        <path id="Trazado_1035594" data-name="Trazado 1035594" d="M191.819,108.864a2.247,2.247,0,0,1,2.654-.012,3.026,3.026,0,0,1,1.221,2.431v7.1a7.415,7.415,0,0,1-7.415,7.415h-1.287a7.415,7.415,0,0,1-7.415-7.415v-4.826a2.276,2.276,0,0,1,2.276-2.276h5.889a2.275,2.275,0,0,0,1.335-.433Z" transform="translate(-179.577 -108.425)" fill="#ffe5c2"/>
      </g>
      <g id="Grupo_1177600" data-name="Grupo 1177600" transform="translate(18.935 26.793)">
        <g id="Grupo_1177599" data-name="Grupo 1177599">
          <path id="Trazado_1035595" data-name="Trazado 1035595" d="M183.116,142.638v-4.826a2.276,2.276,0,0,1,2.276-2.276h-3.54a2.276,2.276,0,0,0-2.276,2.276v4.826a7.415,7.415,0,0,0,7.415,7.415h1.287a7.477,7.477,0,0,0,1.127-.085A7.417,7.417,0,0,1,183.116,142.638Z" transform="translate(-179.576 -135.536)" fill="#fed2a4"/>
        </g>
      </g>
      <path id="Trazado_1035596" data-name="Trazado 1035596" d="M225.142,216.388a.485.485,0,0,0-.478.57,3.083,3.083,0,0,0,3.029,2.512h.535a3.083,3.083,0,0,0,3.029-2.512.485.485,0,0,0-.478-.57Z" transform="translate(-200.967 -181.07)" fill="#fff"/>
      <g id="Grupo_1177604" data-name="Grupo 1177604" transform="translate(0.791 39.889)">
        <g id="Grupo_1177601" data-name="Grupo 1177601" transform="translate(1.344)">
          <path id="Trazado_1035597" data-name="Trazado 1035597" d="M35.427,259.736H20.77a.527.527,0,0,0-.527.527V275.3h2.293a1.212,1.212,0,0,1,1.212,1.212v3.471H35.427a.527.527,0,0,0,.527-.527v-19.2a.527.527,0,0,0-.527-.527Z" transform="translate(-20.243 -259.736)" fill="#d8ecfe"/>
          <path id="Trazado_1035598" data-name="Trazado 1035598" d="M24.541,279.459v-19.2a.527.527,0,0,1,.527-.527h-4.3a.527.527,0,0,0-.527.527V275.3h2.293a1.212,1.212,0,0,1,1.212,1.212v3.471h1.32A.527.527,0,0,1,24.541,279.459Z" transform="translate(-20.243 -259.736)" fill="#c4e2ff"/>
        </g>
        <g id="Grupo_1177602" data-name="Grupo 1177602" transform="translate(0 15.567)">
          <path id="Trazado_1035599" data-name="Trazado 1035599" d="M11.137,413.552H8.712A1.212,1.212,0,0,1,7.5,412.34v-3.758a1.212,1.212,0,0,1,1.212-1.212h2.424a1.212,1.212,0,0,1,1.212,1.212v3.758A1.212,1.212,0,0,1,11.137,413.552Z" transform="translate(-7.5 -407.37)" fill="#ffe5c2"/>
        </g>
        <g id="Grupo_1177603" data-name="Grupo 1177603" transform="translate(0 15.567)">
          <path id="Trazado_1035600" data-name="Trazado 1035600" d="M9.978,412.34v-3.758a1.211,1.211,0,0,1,1.186-1.211H8.712A1.212,1.212,0,0,0,7.5,408.582v3.758a1.212,1.212,0,0,0,1.212,1.212h2.451A1.211,1.211,0,0,1,9.978,412.34Z" transform="translate(-7.5 -407.37)" fill="#fed2a4"/>
        </g>
      </g>
      <g id="Grupo_1177613" data-name="Grupo 1177613" transform="translate(36.141 39.889)">
        <g id="Grupo_1177610" data-name="Grupo 1177610">
          <path id="Trazado_1035601" data-name="Trazado 1035601" d="M354.963,276.515a1.212,1.212,0,0,1,1.212-1.212h2.293v-15.04a.527.527,0,0,0-.527-.527H343.284a.527.527,0,0,0-.527.527v19.2a.527.527,0,0,0,.527.527h11.679v-3.471Z" transform="translate(-342.757 -259.736)" fill="#0593fc"/>
          <g id="Grupo_1177605" data-name="Grupo 1177605">
            <path id="Trazado_1035602" data-name="Trazado 1035602" d="M347.422,279.459v-19.2a.527.527,0,0,1,.527-.527h-4.665a.527.527,0,0,0-.527.527v19.2a.527.527,0,0,0,.527.527h4.665A.527.527,0,0,1,347.422,279.459Z" transform="translate(-342.757 -259.736)" fill="#0182fc"/>
          </g>
          <g id="Grupo_1177609" data-name="Grupo 1177609" transform="translate(2.903 5.372)">
            <path id="Trazado_1035603" data-name="Trazado 1035603" d="M378,327.106a1.7,1.7,0,1,1-2.758,1.313v0a2.868,2.868,0,0,0-2.472-1.354c-1.582.109-2.679,1.865-2.451,3.922s1.7,3.635,3.277,3.526h3.292c1.582.109,3.049-1.47,3.277-3.526C380.378,329.059,379.426,327.395,378,327.106Z" transform="translate(-370.289 -325.334)" fill="#fb2b3a"/>
            <g id="Grupo_1177607" data-name="Grupo 1177607" transform="translate(0 1.727)">
              <g id="Grupo_1177606" data-name="Grupo 1177606">
                <path id="Trazado_1035604" data-name="Trazado 1035604" d="M373.881,330.987a4,4,0,0,1,.878-3.128,2.636,2.636,0,0,0-1.988-.793c-1.582.109-2.679,1.865-2.451,3.922s1.7,3.635,3.277,3.526h3.256C375.391,334.416,374.094,332.911,373.881,330.987Z" transform="translate(-370.289 -327.061)" fill="#e41f2d"/>
              </g>
            </g>
            <g id="Grupo_1177608" data-name="Grupo 1177608" transform="translate(4.255)">
              <ellipse id="Elipse_12480" data-name="Elipse 12480" cx="1.941" cy="1.038" rx="1.941" ry="1.038" transform="translate(0 2.745) rotate(-45)" fill="#97d729"/>
            </g>
          </g>
        </g>
        <g id="Grupo_1177611" data-name="Grupo 1177611" transform="translate(12.206 15.567)">
          <path id="Trazado_1035605" data-name="Trazado 1035605" d="M462.152,413.552h-2.424a1.212,1.212,0,0,1-1.212-1.212v-3.758a1.212,1.212,0,0,1,1.212-1.212h2.424a1.212,1.212,0,0,1,1.212,1.212v3.758A1.212,1.212,0,0,1,462.152,413.552Z" transform="translate(-458.515 -407.37)" fill="#ffe5c2"/>
        </g>
        <g id="Grupo_1177612" data-name="Grupo 1177612" transform="translate(12.206 15.567)">
          <path id="Trazado_1035606" data-name="Trazado 1035606" d="M460.993,412.34v-3.758a1.211,1.211,0,0,1,1.185-1.211h-2.451a1.212,1.212,0,0,0-1.212,1.212v3.758a1.212,1.212,0,0,0,1.212,1.212h2.451A1.211,1.211,0,0,1,460.993,412.34Z" transform="translate(-458.515 -407.37)" fill="#fed2a4"/>
        </g>
      </g>
      <g id="Grupo_1177614" data-name="Grupo 1177614" transform="translate(0 13.975)">
        <path id="Trazado_1035607" data-name="Trazado 1035607" d="M224.07,208.889h-5.637a1.275,1.275,0,0,0-1.256,1.507,3.873,3.873,0,0,0,3.807,3.157h.535a3.873,3.873,0,0,0,3.807-3.157,1.275,1.275,0,0,0-1.255-1.507Zm-2.551,3.082h-.535a2.292,2.292,0,0,1-2.152-1.5h4.838A2.292,2.292,0,0,1,221.519,211.971Z" transform="translate(-194.258 -188.337)"/>
        <path id="Trazado_1035608" data-name="Trazado 1035608" d="M213.274,149.983v-2a.791.791,0,0,0-1.582,0v2a.791.791,0,1,0,1.582,0Z" transform="translate(-189.37 -133.15)"/>
        <path id="Trazado_1035609" data-name="Trazado 1035609" d="M286.1,147.2a.791.791,0,0,0-.791.791v2a.791.791,0,0,0,1.582,0v-2A.791.791,0,0,0,286.1,147.2Z" transform="translate(-255.224 -133.15)"/>
        <path id="Trazado_1035610" data-name="Trazado 1035610" d="M239.292,161.908a.791.791,0,0,0,1.182-1.051l-.666-.749.692-.865a.791.791,0,1,0-1.235-.988l-1.109,1.386a.791.791,0,0,0,.026,1.019Z" transform="translate(-212.89 -142.776)"/>
        <path id="Trazado_1035611" data-name="Trazado 1035611" d="M57.17,309.014a.791.791,0,0,0-.724.473l-3.638,8.276a.791.791,0,1,0,1.448.636l.858-1.953h4.111l.858,1.953a.791.791,0,1,0,1.448-.636l-3.638-8.276A.791.791,0,0,0,57.17,309.014Zm1.36,5.851H55.81l1.36-3.095Z" transform="translate(-47.18 -277.904)"/>
        <path id="Trazado_1035612" data-name="Trazado 1035612" d="M372.155,307.928a3.14,3.14,0,0,0-.058-.658.791.791,0,0,0-.622-.622,3.125,3.125,0,0,0-2.153.349.791.791,0,0,0-1.581.015v1.013a3.2,3.2,0,0,0-1.736-.39A3.159,3.159,0,0,0,363.8,308.8a4.833,4.833,0,0,0-.975,3.63c.264,2.384,2,4.235,3.912,4.235.058,0,.117,0,.175-.005h3.241c.059,0,.117.005.175.005,1.916,0,3.648-1.851,3.912-4.235a4.832,4.832,0,0,0-.975-3.63,3.333,3.333,0,0,0-1.11-.875Zm-2.381.694a.455.455,0,1,1-.418.767A1.541,1.541,0,0,1,369.774,308.621Zm2.894,3.637c-.173,1.563-1.23,2.828-2.337,2.828-.033,0-.066,0-.1,0l-.055,0h-3.292l-.054,0c-1.145.078-2.258-1.215-2.436-2.824a3.3,3.3,0,0,1,.617-2.441,1.59,1.59,0,0,1,1.1-.6c.032,0,.064,0,.1,0a2.077,2.077,0,0,1,1.552.863c.01.083.021.167.038.25a.791.791,0,0,0,.622.622,3.125,3.125,0,0,0,3.285-1.451,1.9,1.9,0,0,1,.344.323A3.3,3.3,0,0,1,372.668,312.258Z" transform="translate(-324.534 -275.406)"/>
        <path id="Trazado_1035613" data-name="Trazado 1035613" d="M52.643,54.779v-8.43a.791.791,0,0,0-1.582,0v8.316h-1.5a2.005,2.005,0,0,0-2,2v2.68H36.932V40.68H51.062v1.979a.791.791,0,1,0,1.582,0V40.416A1.319,1.319,0,0,0,51.325,39.1H38.909V36.454a3.821,3.821,0,0,0,2.044-3.379v-.994A3.821,3.821,0,0,0,38.909,28.7V24.154a8.907,8.907,0,0,0-8.629-8.893,6.821,6.821,0,0,0-4.008-1.286h-2.3a8.907,8.907,0,0,0-8.9,8.9V28.7a3.821,3.821,0,0,0-2.044,3.379v.994a3.821,3.821,0,0,0,2.044,3.379V39.1H13.813a.791.791,0,1,0,0,1.582h3.242V59.348H6.43v-2.68a2.005,2.005,0,0,0-2-2h-1.5V40.68h7.2a.791.791,0,1,0,0-1.582H2.662a1.319,1.319,0,0,0-1.318,1.318V54.779A2,2,0,0,0,0,56.668v3.758a2.005,2.005,0,0,0,2,2H4.427a2,2,0,0,0,1.936-1.5h5.815V63.7A1.319,1.319,0,0,0,13.5,65.015H31.738a.791.791,0,1,0,0-1.582H13.76v-2.5h3.558a1.319,1.319,0,0,0,1.318-1.318V46.757a5.532,5.532,0,0,0,1.767.374v3.35a1.318,1.318,0,0,0,1.98,1.14l1.864-1.082,1.509,4.114a1.318,1.318,0,0,0,2.475,0l1.509-4.115L31.6,51.621a1.318,1.318,0,0,0,1.979-1.14v-3.35a5.532,5.532,0,0,0,1.767-.374V59.612a1.319,1.319,0,0,0,1.318,1.318h3.558v2.5h-4.8a.791.791,0,0,0,0,1.582H40.49A1.319,1.319,0,0,0,41.808,63.7V60.93h5.815a2,2,0,0,0,1.936,1.5h2.424a2.005,2.005,0,0,0,2-2V56.668a2,2,0,0,0-1.344-1.889ZM4.849,60.426a.422.422,0,0,1-.421.421H2a.422.422,0,0,1-.421-.421V56.668A.422.422,0,0,1,2,56.247H4.427a.422.422,0,0,1,.421.421v3.758ZM39.371,33.075a2.239,2.239,0,0,1-2.236,2.236H35.72a8.223,8.223,0,0,0,.123-1.417v-4.05h1.292a2.239,2.239,0,0,1,2.236,2.237ZM16.66,22.872a7.323,7.323,0,0,1,7.315-7.315h2.3a5.259,5.259,0,0,1,3.255,1.116.791.791,0,0,0,.485.166,7.323,7.323,0,0,1,7.315,7.315v4.113q-.1,0-.192,0H35.843v-1.47A3.84,3.84,0,0,0,34.3,23.728a3.019,3.019,0,0,0-3.59.005L27.971,25.72A1.476,1.476,0,0,1,27.1,26H21.211a3.072,3.072,0,0,0-2.958,2.261h-1.4q-.1,0-.192,0v-5.4ZM27.637,40.519H26.35a6.632,6.632,0,0,1-6.624-6.624V29.069a1.487,1.487,0,0,1,1.485-1.485H27.1A3.049,3.049,0,0,0,28.9,27l2.743-1.987A1.463,1.463,0,0,1,33.359,25a2.223,2.223,0,0,1,.9,1.8v7.1A6.632,6.632,0,0,1,27.637,40.519Zm1.621,1.42v2.514l-2.264,2.421-2.264-2.421V41.939a8.21,8.21,0,0,0,1.621.161h1.287A8.21,8.21,0,0,0,29.258,41.939ZM14.616,32.081a2.239,2.239,0,0,1,2.236-2.237h1.292v4.05a8.223,8.223,0,0,0,.123,1.417H16.852a2.239,2.239,0,0,1-2.236-2.236Zm6.368,9.657A1.316,1.316,0,0,0,20.4,42.83v2.716A3.967,3.967,0,0,1,18.636,45V40.416A1.319,1.319,0,0,0,17.318,39.1H16.66v-2.21q.1,0,.192,0h1.86a8.255,8.255,0,0,0,3.446,4.053Zm1,8.285V42.971l1.163-.785v2.579a.791.791,0,0,0,.213.54l2.376,2.541Zm5.009,3.411-1.357-3.7,1.357-.788,1.357.788ZM32,50.023,28.25,47.845,30.626,45.3a.791.791,0,0,0,.213-.54V42.186L32,42.971Zm3.349-9.607V45a3.968,3.968,0,0,1-1.767.542V42.831A1.316,1.316,0,0,0,33,41.738l-1.175-.793a8.256,8.256,0,0,0,3.446-4.053h1.86q.1,0,.192,0V39.1h-.658A1.319,1.319,0,0,0,35.351,40.416Zm17.055,20.01a.422.422,0,0,1-.421.421H49.56a.422.422,0,0,1-.421-.421V56.668a.422.422,0,0,1,.421-.421h2.424a.422.422,0,0,1,.421.421Z" transform="translate(0 -13.975)"/>
      </g>
    </g>
  </g>
</svg>
