<svg xmlns="http://www.w3.org/2000/svg" xmlns:xlink="http://www.w3.org/1999/xlink" width="103" height="103" viewBox="0 0 103 103">
  <defs>
    <filter id="Trazado_978624" x="0" y="0" width="103" height="103" filterUnits="userSpaceOnUse">
      <feOffset dy="3" input="SourceAlpha"/>
      <feGaussianBlur stdDeviation="3" result="blur"/>
      <feFlood flood-opacity="0.161"/>
      <feComposite operator="in" in2="blur"/>
      <feComposite in="SourceGraphic"/>
    </filter>
  </defs>
  <g id="Grupo_1177476" data-name="Grupo 1177476" transform="translate(-185 -3959.515)">
    <g id="Grupo_1177475" data-name="Grupo 1177475">
      <g id="Grupo_1177411" data-name="Grupo 1177411" transform="translate(0 861.515)">
        <g id="Grupo_1176440" data-name="Grupo 1176440" transform="translate(14 232)">
          <g id="Grupo_1175148" data-name="Grupo 1175148" transform="translate(0 1580)">
            <g id="Grupo_1173798" data-name="Grupo 1173798" transform="translate(-3 -3520)">
              <g id="Grupo_1171925" data-name="Grupo 1171925" transform="translate(-22 -2246)">
                <g id="Grupo_1164524" data-name="Grupo 1164524" transform="translate(205 7058)">
                  <g id="Grupo_1144123" data-name="Grupo 1144123">
                    <g transform="matrix(1, 0, 0, 1, -9, -6)" filter="url(#Trazado_978624)">
                      <g id="Trazado_978624-2" data-name="Trazado 978624" transform="translate(9 6)" fill="#effbfe">
                        <path d="M 42.5 83.5 C 36.96437835693359 83.5 31.59512901306152 82.41617584228516 26.54141235351562 80.27863311767578 C 21.65934181213379 78.21369171142578 17.27447128295898 75.25723266601562 13.50862312316895 71.49137878417969 C 9.742764472961426 67.72553253173828 6.786305904388428 63.34066009521484 4.721364498138428 58.45858764648438 C 2.583823442459106 53.40486907958984 1.5 48.03562164306641 1.5 42.5 C 1.5 36.96437835693359 2.583823442459106 31.59512901306152 4.721364498138428 26.54141235351562 C 6.786305904388428 21.65934181213379 9.742764472961426 17.27447128295898 13.50862312316895 13.50862312316895 C 17.27447128295898 9.742764472961426 21.65934181213379 6.786305904388428 26.54141235351562 4.721364498138428 C 31.59512901306152 2.583823442459106 36.96437835693359 1.5 42.5 1.5 C 48.03562164306641 1.5 53.40486907958984 2.583823442459106 58.45858764648438 4.721364498138428 C 63.34066009521484 6.786305904388428 67.72553253173828 9.742764472961426 71.49137878417969 13.50862312316895 C 75.25723266601562 17.27447128295898 78.21369171142578 21.65934181213379 80.27863311767578 26.54141235351562 C 82.41617584228516 31.59512901306152 83.5 36.96437835693359 83.5 42.5 C 83.5 48.03562164306641 82.41617584228516 53.40486907958984 80.27863311767578 58.45858764648438 C 78.21369171142578 63.34066009521484 75.25723266601562 67.72553253173828 71.49137878417969 71.49137878417969 C 67.72553253173828 75.25723266601562 63.34066009521484 78.21369171142578 58.45858764648438 80.27863311767578 C 53.40486907958984 82.41617584228516 48.03562164306641 83.5 42.5 83.5 Z" stroke="none"/>
                        <path d="M 42.5 3 C 37.16621398925781 3 31.99356079101562 4.043960571289062 27.125732421875 6.102882385253906 C 22.42246627807617 8.092185974121094 18.19785308837891 10.94070434570312 14.56928253173828 14.56928253173828 C 10.94070434570312 18.19785308837891 8.092185974121094 22.42246627807617 6.102882385253906 27.125732421875 C 4.043960571289062 31.99356079101562 3 37.16621398925781 3 42.5 C 3 47.83378601074219 4.043960571289062 53.00643920898438 6.102882385253906 57.87425231933594 C 8.092185974121094 62.57753372192383 10.94070434570312 66.80213165283203 14.56928253173828 70.43071746826172 C 18.19786834716797 74.05929565429688 22.42246627807617 76.90781402587891 27.125732421875 78.89711761474609 C 31.99356079101562 80.95603942871094 37.16621398925781 82 42.5 82 C 47.83378601074219 82 53.00642395019531 80.95603942871094 57.87425231933594 78.89711761474609 C 62.57753372192383 76.90781402587891 66.80213165283203 74.05929565429688 70.43071746826172 70.43071746826172 C 74.05929565429688 66.80213165283203 76.90781402587891 62.57753372192383 78.89711761474609 57.87425231933594 C 80.95603942871094 53.00642395019531 82 47.83378601074219 82 42.5 C 82 37.16621398925781 80.95603942871094 31.99356079101562 78.89711761474609 27.125732421875 C 76.90781402587891 22.42246627807617 74.05929565429688 18.19786834716797 70.43071746826172 14.56928253173828 C 66.80213165283203 10.94070434570312 62.57753372192383 8.092185974121094 57.87425231933594 6.102882385253906 C 53.00643920898438 4.043960571289062 47.83378601074219 3 42.5 3 M 42.5 0 C 65.97209167480469 0 85 19.02789306640625 85 42.5 C 85 65.97209167480469 65.97209167480469 85 42.5 85 C 19.02789306640625 85 0 65.97209167480469 0 42.5 C 0 19.02789306640625 19.02789306640625 0 42.5 0 Z" stroke="none" fill="#497f88"/>
                      </g>
                    </g>
                  </g>
                </g>
              </g>
            </g>
          </g>
        </g>
      </g>
    </g>
    <g id="Layer_31" data-name="Layer 31" transform="translate(208.81 3978.16)">
      <path id="Trazado_1035264" data-name="Trazado 1035264" d="M26.96,23h6.96a6.96,6.96,0,0,1,6.96,6.96V44.75H20V29.96A6.96,6.96,0,0,1,26.96,23Z" transform="translate(-2.6 -2.99)" fill="#f8c460"/>
      <path id="Trazado_1035265" data-name="Trazado 1035265" d="M36.53,42.276a13.92,13.92,0,0,1-13.92-13.92v-.87a6.926,6.926,0,0,1,.913-3.439A6.954,6.954,0,0,0,20,30.1v14.79H40.88v-2.61Z" transform="translate(-2.6 -3.126)" fill="#faaf42"/>
      <path id="Trazado_1035266" data-name="Trazado 1035266" d="M49.186,23.185a21.616,21.616,0,0,0-2.835-6.835,1.714,1.714,0,0,1,.042-1.863l1.7-2.553a1.74,1.74,0,0,0-.218-2.2L46.2,8.063a1.74,1.74,0,0,0-2.2-.218l-2.553,1.7a1.714,1.714,0,0,1-1.863.042,21.616,21.616,0,0,0-6.837-2.835,1.74,1.74,0,0,1-1.3-1.364l-.6-2.992a1.74,1.74,0,0,0-1.7-1.4H26.787A1.74,1.74,0,0,0,25.08,2.4l-.6,2.992a1.74,1.74,0,0,1-1.3,1.364A21.616,21.616,0,0,0,16.351,9.59a1.714,1.714,0,0,1-1.863-.042l-2.556-1.7a1.74,1.74,0,0,0-2.2.218L8.063,9.737a1.74,1.74,0,0,0-.218,2.2l1.7,2.553a1.714,1.714,0,0,1,.042,1.863,21.616,21.616,0,0,0-2.835,6.837,1.74,1.74,0,0,1-1.364,1.3l-2.992.6a1.74,1.74,0,0,0-1.4,1.7v2.366a1.74,1.74,0,0,0,1.4,1.707l2.992.6a1.74,1.74,0,0,1,1.364,1.3A21.616,21.616,0,0,0,9.59,39.59a1.714,1.714,0,0,1-.042,1.863l-1.7,2.556a1.74,1.74,0,0,0,.218,2.2l1.674,1.674a1.74,1.74,0,0,0,2.2.218l2.553-1.7a1.714,1.714,0,0,1,1.863-.042,21.616,21.616,0,0,0,6.837,2.835,1.74,1.74,0,0,1,1.3,1.364l.6,2.992a1.74,1.74,0,0,0,1.7,1.4h2.366a1.74,1.74,0,0,0,1.707-1.4l.6-2.992a1.74,1.74,0,0,1,1.3-1.364,21.616,21.616,0,0,0,6.835-2.835,1.714,1.714,0,0,1,1.863.042l2.553,1.7a1.74,1.74,0,0,0,2.2-.218L47.875,46.2a1.74,1.74,0,0,0,.218-2.2l-1.7-2.553a1.714,1.714,0,0,1-.042-1.863,21.616,21.616,0,0,0,2.835-6.837,1.74,1.74,0,0,1,1.364-1.3l2.992-.6a1.74,1.74,0,0,0,1.4-1.7V26.787a1.74,1.74,0,0,0-1.4-1.707l-2.992-.6a1.74,1.74,0,0,1-1.364-1.3ZM27.97,41.891a13.92,13.92,0,1,1,13.92-13.92A13.92,13.92,0,0,1,27.97,41.891Z" transform="translate(-0.13 -0.13)" fill="#d6e4e8"/>
      <path id="Trazado_1035267" data-name="Trazado 1035267" d="M46.393,42.435a1.774,1.774,0,0,1-.3-.932,21.745,21.745,0,1,1-30.68-30.68,1.774,1.774,0,0,1-.932-.3l-2.553-1.7a1.74,1.74,0,0,0-2.2.218L8.063,10.716a1.74,1.74,0,0,0-.218,2.2l1.7,2.553a1.714,1.714,0,0,1,.042,1.863,21.616,21.616,0,0,0-2.835,6.837,1.74,1.74,0,0,1-1.364,1.3l-2.992.6a1.74,1.74,0,0,0-1.4,1.7v2.366A1.74,1.74,0,0,0,2.4,31.84l2.992.6a1.74,1.74,0,0,1,1.364,1.3A21.616,21.616,0,0,0,9.59,40.569a1.714,1.714,0,0,1-.042,1.863l-1.7,2.556a1.74,1.74,0,0,0,.218,2.2l1.674,1.674a1.74,1.74,0,0,0,2.2.218l2.553-1.7a1.714,1.714,0,0,1,1.863-.042,21.616,21.616,0,0,0,6.837,2.835,1.74,1.74,0,0,1,1.3,1.364l.6,2.992a1.74,1.74,0,0,0,1.7,1.4h2.366a1.74,1.74,0,0,0,1.707-1.4l.6-2.992a1.74,1.74,0,0,1,1.3-1.364A21.616,21.616,0,0,0,39.59,47.33a1.714,1.714,0,0,1,1.863.042l2.553,1.7a1.74,1.74,0,0,0,2.2-.218l1.674-1.674a1.74,1.74,0,0,0,.218-2.2Z" transform="translate(-0.13 -1.109)" fill="#baced3"/>
      <path id="Trazado_1035268" data-name="Trazado 1035268" d="M25,7H37.18v7.83a6.09,6.09,0,0,1-6.09,6.09h0A6.09,6.09,0,0,1,25,14.83Z" transform="translate(-3.25 -0.91)" fill="#ffd3b6"/>
      <path id="Trazado_1035269" data-name="Trazado 1035269" d="M32.83,19.18a6.09,6.09,0,0,1-6.09-6.09V7H25v7.83a6.09,6.09,0,0,0,11.176,3.346,6.058,6.058,0,0,1-3.346,1Z" transform="translate(-3.25 -0.91)" fill="#f9b995"/>
      <path id="Trazado_1035270" data-name="Trazado 1035270" d="M35.18,2.74h0A1.74,1.74,0,0,0,33.44,1H28.22A5.22,5.22,0,0,0,23,6.22h0A3.48,3.48,0,0,0,26.48,9.7h2.337a6.96,6.96,0,0,0,4.922-2.039l.571-.571h0A2.61,2.61,0,0,0,36.92,9.7h0V4.48A1.74,1.74,0,0,0,35.18,2.74Z" transform="translate(-2.99 -0.13)" fill="#8e969b"/>
      <path id="Trazado_1035271" data-name="Trazado 1035271" d="M35.5,6.011l-.025.025a6.96,6.96,0,0,1-4.922,2.038H28.314A3.558,3.558,0,0,1,24.74,4.442,5.188,5.188,0,0,1,25.5,1.881,5.213,5.213,0,0,0,23,6.355a3.505,3.505,0,0,0,3.52,3.46h2.3a6.96,6.96,0,0,0,4.922-2.039L34.31,7.2a2.61,2.61,0,0,0,2.61,2.61V7.4a2.633,2.633,0,0,1-.762-1.2.393.393,0,0,0-.654-.191Z" transform="translate(-2.99 -0.245)" fill="#778084"/>
      <path id="Trazado_1035272" data-name="Trazado 1035272" d="M39,11h.87a1.74,1.74,0,0,1,1.74,1.74h0a1.74,1.74,0,0,1-1.74,1.74H39Z" transform="translate(-5.069 -1.43)" fill="#ffd3b6"/>
      <path id="Trazado_1035273" data-name="Trazado 1035273" d="M0,0H.87A1.74,1.74,0,0,1,2.61,1.74h0A1.74,1.74,0,0,1,.87,3.48H0Z" transform="translate(21.75 13.05) rotate(180)" fill="#ffd3b6"/>
      <path id="Trazado_1035274" data-name="Trazado 1035274" d="M8,35H20.18v7.83a6.09,6.09,0,0,1-6.09,6.09h0A6.09,6.09,0,0,1,8,42.83Z" transform="translate(-1.04 -4.55)" fill="#ffd3b6"/>
      <path id="Trazado_1035275" data-name="Trazado 1035275" d="M16.052,47.18a6.09,6.09,0,0,1-6.09-6.09V35H8.222v7.83A6.09,6.09,0,0,0,19.4,46.176a6.058,6.058,0,0,1-3.346,1Z" transform="translate(-1.069 -4.55)" fill="#f9b995"/>
      <path id="Trazado_1035276" data-name="Trazado 1035276" d="M18.18,30.74h0A1.74,1.74,0,0,0,16.44,29H11.22A5.22,5.22,0,0,0,6,34.22H6A3.48,3.48,0,0,0,9.48,37.7h2.337a6.96,6.96,0,0,0,4.922-2.039l.571-.571h0a2.61,2.61,0,0,0,2.61,2.61h0V32.48A1.74,1.74,0,0,0,18.18,30.74Z" transform="translate(-0.78 -3.77)" fill="#8e969b"/>
      <path id="Trazado_1035277" data-name="Trazado 1035277" d="M18.725,34.011l-.025.025a6.96,6.96,0,0,1-4.922,2.038H11.536a3.558,3.558,0,0,1-3.571-3.632,5.188,5.188,0,0,1,.761-2.561,5.213,5.213,0,0,0-2.507,4.474,3.505,3.505,0,0,0,3.523,3.46h2.3a6.96,6.96,0,0,0,4.922-2.039l.571-.571a2.61,2.61,0,0,0,2.61,2.61V35.4a2.633,2.633,0,0,1-.762-1.2.393.393,0,0,0-.654-.191Z" transform="translate(-0.808 -3.884)" fill="#778084"/>
      <path id="Trazado_1035278" data-name="Trazado 1035278" d="M22,39h.87a1.74,1.74,0,0,1,1.74,1.74h0a1.74,1.74,0,0,1-1.74,1.74H22Z" transform="translate(-2.86 -5.069)" fill="#ffd3b6"/>
      <path id="Trazado_1035279" data-name="Trazado 1035279" d="M0,0H.87A1.74,1.74,0,0,1,2.61,1.74h0A1.74,1.74,0,0,1,.87,3.48H0Z" transform="translate(6.96 37.411) rotate(180)" fill="#ffd3b6"/>
      <path id="Trazado_1035280" data-name="Trazado 1035280" d="M7.96,51H18.4a6.96,6.96,0,0,1,6.96,6.96v3.48H1V57.96A6.96,6.96,0,0,1,7.96,51Z" transform="translate(-0.13 -6.629)" fill="#f8c460"/>
      <path id="Trazado_1035281" data-name="Trazado 1035281" d="M7.312,58.966a3.48,3.48,0,0,1-3.48-3.48h0a6.926,6.926,0,0,1,.913-3.439A6.954,6.954,0,0,0,1.222,58.1v3.48h24.36v-2.61Z" transform="translate(-0.159 -6.765)" fill="#faaf42"/>
      <path id="Trazado_1035282" data-name="Trazado 1035282" d="M42,35H54.18v7.83a6.09,6.09,0,0,1-6.09,6.09h0A6.09,6.09,0,0,1,42,42.83Z" transform="translate(-5.459 -4.55)" fill="#ffd3b6"/>
      <path id="Trazado_1035283" data-name="Trazado 1035283" d="M49.83,47.18a6.09,6.09,0,0,1-6.09-6.09V35H42v7.83a6.09,6.09,0,0,0,11.176,3.346,6.058,6.058,0,0,1-3.346,1Z" transform="translate(-5.459 -4.55)" fill="#f9b995"/>
      <path id="Trazado_1035284" data-name="Trazado 1035284" d="M52.18,30.74h0A1.74,1.74,0,0,0,50.44,29H45.22A5.22,5.22,0,0,0,40,34.22h0a3.48,3.48,0,0,0,3.48,3.48h2.337a6.96,6.96,0,0,0,4.922-2.039l.571-.571h0a2.61,2.61,0,0,0,2.61,2.61h0V32.48A1.74,1.74,0,0,0,52.18,30.74Z" transform="translate(-5.199 -3.77)" fill="#8e969b"/>
      <path id="Trazado_1035285" data-name="Trazado 1035285" d="M52.5,34.011l-.025.025a6.96,6.96,0,0,1-4.922,2.038H45.314a3.558,3.558,0,0,1-3.574-3.632,5.188,5.188,0,0,1,.764-2.561A5.213,5.213,0,0,0,40,34.355a3.505,3.505,0,0,0,3.52,3.46h2.3a6.96,6.96,0,0,0,4.922-2.039l.571-.571a2.61,2.61,0,0,0,2.61,2.61V35.4a2.633,2.633,0,0,1-.762-1.2.393.393,0,0,0-.654-.191Z" transform="translate(-5.199 -3.884)" fill="#778084"/>
      <path id="Trazado_1035286" data-name="Trazado 1035286" d="M56,39h.87a1.74,1.74,0,0,1,1.74,1.74h0a1.74,1.74,0,0,1-1.74,1.74H56Z" transform="translate(-7.279 -5.069)" fill="#ffd3b6"/>
      <path id="Trazado_1035287" data-name="Trazado 1035287" d="M0,0H.87A1.74,1.74,0,0,1,2.61,1.74h0A1.74,1.74,0,0,1,.87,3.48H0Z" transform="translate(36.541 37.411) rotate(180)" fill="#ffd3b6"/>
      <path id="Trazado_1035288" data-name="Trazado 1035288" d="M41.96,51H52.4a6.96,6.96,0,0,1,6.96,6.96v3.48H35V57.96A6.96,6.96,0,0,1,41.96,51Z" transform="translate(-4.55 -6.629)" fill="#f8c460"/>
      <path id="Trazado_1035289" data-name="Trazado 1035289" d="M41.09,58.966a3.48,3.48,0,0,1-3.48-3.48h0a6.926,6.926,0,0,1,.913-3.439A6.954,6.954,0,0,0,35,58.1v3.48H59.36v-2.61Z" transform="translate(-4.55 -6.765)" fill="#faaf42"/>
      <path id="Trazado_1035290" data-name="Trazado 1035290" d="M50.59,32.182l2.992-.6a2.617,2.617,0,0,0,2.1-2.56V26.657a2.617,2.617,0,0,0-2.1-2.558l-2.993-.6a.861.861,0,0,1-.686-.637,22.447,22.447,0,0,0-2.948-7.111.839.839,0,0,1,.031-.914l1.7-2.553a2.614,2.614,0,0,0-.326-3.293L46.69,7.318A2.618,2.618,0,0,0,43.4,6.991l-2.553,1.7a.833.833,0,0,1-.914.031A22.526,22.526,0,0,0,34.8,6.333V4.35a2.61,2.61,0,0,0-1.852-2.5A2.61,2.61,0,0,0,30.45,0H25.23a6.1,6.1,0,0,0-6.09,6.09,4.342,4.342,0,0,0,.087.843,22.578,22.578,0,0,0-3.474,1.791.835.835,0,0,1-.914-.031l-2.555-1.7a2.614,2.614,0,0,0-3.293.326L7.318,8.991a2.616,2.616,0,0,0-.326,3.294l1.7,2.553a.839.839,0,0,1,.031.914,22.446,22.446,0,0,0-2.948,7.11.861.861,0,0,1-.686.638L2.1,24.1A2.617,2.617,0,0,0,0,26.657v2.366a2.617,2.617,0,0,0,2.1,2.558l2.581.516a4.314,4.314,0,0,0,.664,1.083,2.6,2.6,0,0,0,.747,5.1A6.939,6.939,0,0,0,8.462,43.5H7.83A7.839,7.839,0,0,0,0,51.331v3.48a.87.87,0,0,0,.87.87H25.23a.87.87,0,0,0,.87-.87v-3.48a7.839,7.839,0,0,0-7.83-7.83h-.632a6.968,6.968,0,0,0,2.094-3.293,14.638,14.638,0,0,0,8.108,2.423,14.836,14.836,0,0,0,8.107-2.426,6.971,6.971,0,0,0,2.095,3.3h-.632a7.839,7.839,0,0,0-7.83,7.83v3.48a.87.87,0,0,0,.87.87h24.36a.87.87,0,0,0,.87-.87v-3.48a7.839,7.839,0,0,0-7.83-7.83h-.632a6.939,6.939,0,0,0,2.372-5.22,2.6,2.6,0,0,0,.244-5.2c.022-.087.049-.174.069-.261a.861.861,0,0,1,.686-.642ZM39,10.195a2.584,2.584,0,0,0,2.811-.054l2.553-1.7a.87.87,0,0,1,1.1.109l1.674,1.675a.87.87,0,0,1,.109,1.1l-1.7,2.553a2.582,2.582,0,0,0-.054,2.811,20.687,20.687,0,0,1,2.721,6.561,2.6,2.6,0,0,0,2.043,1.961l2.993.6a.87.87,0,0,1,.7.853v2.366a.87.87,0,0,1-.7.853l-2.992.6a2.682,2.682,0,0,0-.659.228V28.71a2.61,2.61,0,0,0-1.852-2.5,2.61,2.61,0,0,0-2.5-1.852H42.2a14.616,14.616,0,0,0-2.132-4.84.871.871,0,1,0-1.442.98,12.917,12.917,0,0,1,1.779,3.86h-.387a6.134,6.134,0,0,0-1.273.136,7.819,7.819,0,0,0-6.4-5.282A6.978,6.978,0,0,0,34.3,16.5a13.068,13.068,0,0,1,2.175,1.554.87.87,0,0,0,1.152-1.305,14.831,14.831,0,0,0-2.88-1.981,6.976,6.976,0,0,0,.054-.847,2.61,2.61,0,1,0,0-5.22V8.163A20.8,20.8,0,0,1,39,10.195ZM35.671,34.8v1.74a.87.87,0,1,1,0-1.74Zm0-4.35a4.355,4.355,0,0,1,4.35-4.35h5.22a.87.87,0,0,1,.87.87.87.87,0,0,0,.87.87.87.87,0,0,1,.87.87v4.116a1.74,1.74,0,0,1-.87-1.506.87.87,0,0,0-1.485-.615l-.572.572a6.052,6.052,0,0,1-4.306,1.784H38.281A2.61,2.61,0,0,1,35.671,30.45Zm-15.66,6.09V34.8a.87.87,0,0,1,0,1.74ZM6.09,30.45a4.355,4.355,0,0,1,4.35-4.35h5.22a.87.87,0,0,1,.87.87.87.87,0,0,0,.87.87.87.87,0,0,1,.87.87v4.116a1.74,1.74,0,0,1-.87-1.506.87.87,0,0,0-1.485-.615l-.572.572a6.052,6.052,0,0,1-4.306,1.784H8.7A2.61,2.61,0,0,1,6.09,30.45Zm10.788-5.787a2.592,2.592,0,0,0-1.218-.3h-.378a13.12,13.12,0,0,1,6.107-7.841,6.986,6.986,0,0,0,1.946,2.7,7.841,7.841,0,0,0-6.456,5.446Zm4-14.223v1.74a.87.87,0,0,1,0-1.74Zm1.74,3.48V10.353a4.35,4.35,0,0,0,.87.087h2.338a7.774,7.774,0,0,0,5.037-1.834,3.493,3.493,0,0,0,2.2,1.719V13.92a5.22,5.22,0,0,1-10.44,0ZM34.8,12.18V10.44a.87.87,0,0,1,0,1.74ZM25.23,1.74h5.22a.87.87,0,0,1,.87.87.87.87,0,0,0,.87.87.87.87,0,0,1,.87.87V8.466a1.74,1.74,0,0,1-.87-1.506.87.87,0,0,0-1.485-.615l-.572.572A6.052,6.052,0,0,1,25.828,8.7H23.49a2.61,2.61,0,0,1-2.61-2.61,4.355,4.355,0,0,1,4.35-4.35ZM1.74,29.024V26.657a.87.87,0,0,1,.7-.853l2.992-.6a2.6,2.6,0,0,0,2.043-1.962,20.691,20.691,0,0,1,2.721-6.56,2.582,2.582,0,0,0-.054-2.811l-1.7-2.553a.87.87,0,0,1,.109-1.1l1.675-1.674a.87.87,0,0,1,1.1-.109l2.553,1.7a2.584,2.584,0,0,0,2.811.054A20.823,20.823,0,0,1,19.9,8.546c.068.1.153.184.228.276a2.6,2.6,0,0,0,.75,5.1,6.988,6.988,0,0,0,.058.859,14.863,14.863,0,0,0-7.453,9.581H10.44a6.09,6.09,0,0,0-6.081,5.9l-1.924-.384a.87.87,0,0,1-.7-.853Zm3.48,6.647a.87.87,0,0,1,.87-.87v1.74A.87.87,0,0,1,5.22,35.671Zm13.05,9.57a6.1,6.1,0,0,1,6.09,6.09v2.61H22.62v-2.61a.87.87,0,0,0-1.74,0v2.61H5.22v-2.61a.87.87,0,0,0-1.74,0v2.61H1.74v-2.61a6.1,6.1,0,0,1,6.09-6.09Zm0-6.96a5.22,5.22,0,0,1-10.44,0V34.714a4.35,4.35,0,0,0,.87.087h2.338a7.774,7.774,0,0,0,5.037-1.834,3.493,3.493,0,0,0,2.2,1.719Zm1.745,0a2.61,2.61,0,1,0-.005-5.22V28.71A2.61,2.61,0,0,0,18.3,26.267c0-.021.017-.037.019-.059A6.1,6.1,0,0,1,24.36,20.88h6.96a6.073,6.073,0,0,1,5.78,4.228,6.1,6.1,0,0,0-3.17,5.342,4.308,4.308,0,0,0,.993,2.732,2.6,2.6,0,0,0,.733,5.1,13.015,13.015,0,0,1-15.64,0Zm27.835,6.96a6.1,6.1,0,0,1,6.09,6.09v2.61H52.2v-2.61a.87.87,0,0,0-1.74,0v2.61H34.8v-2.61a.87.87,0,0,0-1.74,0v2.61h-1.74v-2.61a6.1,6.1,0,0,1,6.09-6.09Zm0-6.96a5.22,5.22,0,0,1-10.44,0V34.714a4.35,4.35,0,0,0,.87.087h2.338a7.774,7.774,0,0,0,5.037-1.834,3.493,3.493,0,0,0,2.2,1.719Zm2.61-2.61a.87.87,0,0,1-.87.87V34.8A.87.87,0,0,1,50.461,35.671Z"/>
      <path id="Trazado_1035291" data-name="Trazado 1035291" d="M48.859,17.1a.435.435,0,0,1-.318-.138,20.1,20.1,0,0,0-1.884-1.781.435.435,0,1,1,.555-.67,21.186,21.186,0,0,1,1.965,1.857.435.435,0,0,1-.318.732Z" transform="translate(-6.044 -1.873)" fill="#fff"/>
    </g>
  </g>
</svg>
