<svg xmlns="http://www.w3.org/2000/svg" xmlns:xlink="http://www.w3.org/1999/xlink" width="109.601" height="109.601" viewBox="0 0 109.601 109.601">
  <defs>
    <filter id="Trazado_982547" x="0" y="0" width="109.601" height="109.601" filterUnits="userSpaceOnUse">
      <feOffset dy="3" input="SourceAlpha"/>
      <feGaussianBlur stdDeviation="3" result="blur"/>
      <feFlood flood-opacity="0.161"/>
      <feComposite operator="in" in2="blur"/>
      <feComposite in="SourceGraphic"/>
    </filter>
  </defs>
  <g id="Grupo_1177514" data-name="Grupo 1177514" transform="translate(-1035.5 -5247.725)">
    <g id="Grupo_1177426" data-name="Grupo 1177426" transform="translate(1044.5 5253.725)">
      <g id="Grupo_1172010" data-name="Grupo 1172010">
        <g id="Grupo_1171046" data-name="Grupo 1171046">
          <g id="Grupo_1148525" data-name="Grupo 1148525">
            <g transform="matrix(1, 0, 0, 1, -9, -6)" filter="url(#Trazado_982547)">
              <g id="Trazado_982547-2" data-name="Trazado 982547" transform="translate(9 6)" fill="#effbfe">
                <path d="M 45.80029296875 90.10059356689453 C 39.81912994384766 90.10059356689453 34.01768112182617 88.92950439453125 28.55708122253418 86.61986541748047 C 23.28201866149902 84.38870239257812 18.54420471191406 81.19428253173828 14.47525501251221 77.12534332275391 C 10.40631771087646 73.056396484375 7.211893081665039 68.31858062744141 4.980730533599854 63.04350662231445 C 2.671092987060547 57.58291625976562 1.500005483627319 51.78145599365234 1.500005483627319 45.80029296875 C 1.500005483627319 39.81912994384766 2.671092987060547 34.01768112182617 4.980730533599854 28.55708122253418 C 7.211893081665039 23.28201866149902 10.40631771087646 18.54420471191406 14.47525501251221 14.47525501251221 C 18.54420471191406 10.40631771087646 23.28201866149902 7.211893081665039 28.55708122253418 4.980730533599854 C 34.01768112182617 2.671092987060547 39.81912994384766 1.500005483627319 45.80029296875 1.500005483627319 C 51.78145599365234 1.500005483627319 57.58291625976562 2.671092987060547 63.04350662231445 4.980730533599854 C 68.31858062744141 7.211893081665039 73.056396484375 10.40631771087646 77.12534332275391 14.47525501251221 C 81.19428253173828 18.54420471191406 84.38870239257812 23.28201866149902 86.61986541748047 28.55708122253418 C 88.92950439453125 34.01768112182617 90.10059356689453 39.81912994384766 90.10059356689453 45.80029296875 C 90.10059356689453 51.78145599365234 88.92950439453125 57.58291625976562 86.61986541748047 63.04350662231445 C 84.38870239257812 68.31858062744141 81.19428253173828 73.056396484375 77.12534332275391 77.12534332275391 C 73.056396484375 81.19428253173828 68.31858062744141 84.38870239257812 63.04350662231445 86.61986541748047 C 57.58291625976562 88.92950439453125 51.78145599365234 90.10059356689453 45.80029296875 90.10059356689453 Z" stroke="none"/>
                <path d="M 45.80029296875 2.999992370605469 C 40.02096557617188 2.999992370605469 34.41610717773438 4.131210327148438 29.14140701293945 6.362220764160156 C 24.04513549804688 8.51776123046875 19.46759033203125 11.60423278808594 15.53590393066406 15.53590393066406 C 11.60423278808594 19.46759033203125 8.51776123046875 24.04513549804688 6.362220764160156 29.14140701293945 C 4.131210327148438 34.41610717773438 2.999992370605469 40.02096557617188 2.999992370605469 45.80029296875 C 2.999992370605469 51.57962036132812 4.131210327148438 57.18447875976562 6.362220764160156 62.45917892456055 C 8.51776123046875 67.55545043945312 11.60423278808594 72.13299560546875 15.53590393066406 76.06466674804688 C 19.46759033203125 79.996337890625 24.04513549804688 83.08280944824219 29.14140701293945 85.23834991455078 C 34.41610717773438 87.4693603515625 40.02096557617188 88.60057830810547 45.80029296875 88.60057830810547 C 51.57962036132812 88.60057830810547 57.18447875976562 87.4693603515625 62.45917892456055 85.23834991455078 C 67.55545043945312 83.08280944824219 72.13299560546875 79.996337890625 76.06466674804688 76.06466674804688 C 79.996337890625 72.13299560546875 83.08280944824219 67.55545043945312 85.23834991455078 62.45917892456055 C 87.4693603515625 57.18447875976562 88.60057830810547 51.57962036132812 88.60057830810547 45.80029296875 C 88.60057830810547 40.02096557617188 87.4693603515625 34.41610717773438 85.23834991455078 29.14140701293945 C 83.08280944824219 24.04513549804688 79.996337890625 19.46759033203125 76.06466674804688 15.53590393066406 C 72.13299560546875 11.60423278808594 67.55545043945312 8.51776123046875 62.45917892456055 6.362220764160156 C 57.18447875976562 4.131210327148438 51.57962036132812 2.999992370605469 45.80029296875 2.999992370605469 M 45.80029296875 -7.62939453125e-06 C 71.0950927734375 -7.62939453125e-06 91.60057830810547 20.5054931640625 91.60057830810547 45.80029296875 C 91.60057830810547 71.0950927734375 71.0950927734375 91.60057830810547 45.80029296875 91.60057830810547 C 20.5054931640625 91.60057830810547 -7.62939453125e-06 71.0950927734375 -7.62939453125e-06 45.80029296875 C -7.62939453125e-06 20.5054931640625 20.5054931640625 -7.62939453125e-06 45.80029296875 -7.62939453125e-06 Z" stroke="none" fill="#2cc3dc"/>
              </g>
            </g>
          </g>
        </g>
      </g>
    </g>
    <g id="tolerance_18290512" transform="translate(1034.288 5240.065)">
      <g id="Grupo_1177513" data-name="Grupo 1177513" transform="translate(26.847 32.321)">
        <path id="Trazado_1035406" data-name="Trazado 1035406" d="M133.392,38.42A21.652,21.652,0,1,1,111.74,60.072,21.652,21.652,0,0,1,133.392,38.42Z" transform="translate(-101.525 -38.42)" fill="#0593fc" fill-rule="evenodd"/>
        <path id="Trazado_1035407" data-name="Trazado 1035407" d="M178.148,68.665a21.652,21.652,0,0,1-27.006,33.389,21.652,21.652,0,0,1,27.006-33.389Z" transform="translate(-130.612 -61.955)" fill="#5ab7f8" fill-rule="evenodd"/>
        <path id="Trazado_1035408" data-name="Trazado 1035408" d="M299.344,302.52l-7.577,7.467-3.429-3.549a7.105,7.105,0,0,1-5.678-1.3c.114-.088.228-.176.338-.272L293.64,294.8a2.335,2.335,0,0,0,.191-.206,7.95,7.95,0,0,1,1.386,3.561Z" transform="translate(-250.288 -261.381)" fill="#ec806b" fill-rule="evenodd"/>
        <path id="Trazado_1035409" data-name="Trazado 1035409" d="M294.86,303.685l9.4-8.889a2.353,2.353,0,0,0,.191-.206,7.951,7.951,0,0,1,1.386,3.561l3.744,3.966-6.145,6.059-3.428-3.551A7.13,7.13,0,0,1,294.86,303.685Z" transform="translate(-260.906 -261.381)" fill="#f89580" fill-rule="evenodd"/>
        <path id="Trazado_1035410" data-name="Trazado 1035410" d="M146.15,220.036l6.968,8.39,5.049-3.479a7.109,7.109,0,0,0,6.019-1.576l10.642-10.065a1.732,1.732,0,0,0-1.488-2.95,2.03,2.03,0,0,0-2.44-2.9c1.518-1.969-1.326-4.659-3.359-3.186,1.474-1.834-1.232-4.252-3.1-2.928-2.6,2.9-12.913,10.792-13.181,14.854Z" transform="translate(-131.474 -179.889)" fill="#ffcebf" fill-rule="evenodd"/>
        <path id="Trazado_1035411" data-name="Trazado 1035411" d="M186.55,289.5l1.731,2.083,5.049-3.479a7.11,7.11,0,0,0,6.019-1.576l10.642-10.065a1.708,1.708,0,0,0-.977-2.936l-10.922,10.161a7.11,7.11,0,0,1-6.019,1.576Z" transform="translate(-166.637 -243.051)" fill="#ffb09e" fill-rule="evenodd"/>
        <path id="Trazado_1035412" data-name="Trazado 1035412" d="M348.677,339.131l-9.808,9.885L328.68,338.745l9.8-9.885Z" transform="translate(-290.342 -291.209)" fill="#97d729" fill-rule="evenodd"/>
        <path id="Trazado_1035413" data-name="Trazado 1035413" d="M349.23,336.055l7.14-7.195,10.189,10.267-7.14,7.2Z" transform="translate(-308.228 -291.209)" fill="#a2e62e" fill-rule="evenodd"/>
        <path id="Trazado_1035414" data-name="Trazado 1035414" d="M74.61,339.131l9.8,9.885,10.193-10.271L84.8,328.86Z" transform="translate(-69.208 -291.209)" fill="#0ab69f" fill-rule="evenodd"/>
        <path id="Trazado_1035415" data-name="Trazado 1035415" d="M92.017,335.915l-7-7.055L74.86,339.1l7,7.056Z" transform="translate(-69.426 -291.209)" fill="#0ed2b3" fill-rule="evenodd"/>
        <path id="Trazado_1035416" data-name="Trazado 1035416" d="M252.537,176.012,249,172.447a1.08,1.08,0,0,0-1.72.242,3.215,3.215,0,0,0,.533,3.785c0,.008.272.18.309.216l1.742,1.742c.959-.875,1.757-1.628,2.263-2.193C252.419,176.1,252.265,176.134,252.537,176.012Z" transform="translate(-219.16 -154.791)" fill="#f89580" fill-rule="evenodd"/>
        <path id="Trazado_1035417" data-name="Trazado 1035417" d="M189.874,257.225l.555-.555a1.129,1.129,0,0,1,1.591,0l3.439,3.443a1.516,1.516,0,0,1-2.145,2.143l-3.439-3.439A1.128,1.128,0,0,1,189.874,257.225Z" transform="translate(-169.244 -228.092)" fill="#f89580" fill-rule="evenodd"/>
        <path id="Trazado_1035418" data-name="Trazado 1035418" d="M206.17,240.475l.555-.555a1.129,1.129,0,0,1,1.591,0l3.439,3.439a1.516,1.516,0,1,1-2.145,2.143l-3.439-3.439A1.126,1.126,0,0,1,206.17,240.475Z" transform="translate(-183.428 -213.514)" fill="#f89580" fill-rule="evenodd"/>
        <path id="Trazado_1035419" data-name="Trazado 1035419" d="M220.174,221.365l.555-.555a1.126,1.126,0,0,1,1.588,0l3.439,3.439a1.516,1.516,0,0,1-2.143,2.145l-3.439-3.439A1.127,1.127,0,0,1,220.174,221.365Z" transform="translate(-195.616 -196.881)" fill="#f89580" fill-rule="evenodd"/>
        <path id="Trazado_1035420" data-name="Trazado 1035420" d="M237.61,205.725l.555-.555a1.129,1.129,0,0,1,1.591,0l3.439,3.439a1.517,1.517,0,1,1-2.145,2.145l-3.439-3.439A1.129,1.129,0,0,1,237.61,205.725Z" transform="translate(-210.793 -183.268)" fill="#f89580" fill-rule="evenodd"/>
        <path id="Trazado_1035421" data-name="Trazado 1035421" d="M44.291,59.28A11.353,11.353,0,1,1,32.94,70.631,11.351,11.351,0,0,1,44.291,59.28Z" transform="translate(-32.94 -56.576)" fill="#fff" fill-rule="evenodd"/>
        <path id="Trazado_1035422" data-name="Trazado 1035422" d="M44.291,59.28A11.353,11.353,0,1,1,32.94,70.631,11.351,11.351,0,0,1,44.291,59.28Zm1.444,3.473v7.008l6.115,3.531a8.016,8.016,0,0,0-6.115-10.539Zm4.681,13.041-4.681-2.7v5.42A8.024,8.024,0,0,0,50.416,75.794Zm-7.565,2.72v-5.42l-4.681,2.7A7.981,7.981,0,0,0,42.851,78.514Zm-6.119-5.222,6.119-3.531V62.753a8.02,8.02,0,0,0-6.119,10.539Z" transform="translate(-32.94 -56.576)" fill="#0ab69f" fill-rule="evenodd"/>
        <path id="Trazado_1035423" data-name="Trazado 1035423" d="M57.956,59.28a11.352,11.352,0,0,1,7.269,20.071,11.354,11.354,0,0,1-12.5-18.8A11.369,11.369,0,0,1,57.956,59.28ZM59.4,62.753v7.008l6.115,3.531A8.016,8.016,0,0,0,59.4,62.753Zm4.681,13.041-4.681-2.7v5.42A8.024,8.024,0,0,0,64.081,75.794Zm-7.565,2.72v-5.42l-4.681,2.7A7.981,7.981,0,0,0,56.515,78.514ZM50.4,73.292l6.119-3.531V62.753A8.02,8.02,0,0,0,50.4,73.292Z" transform="translate(-46.605 -56.576)" fill="#0ed2b3" fill-rule="evenodd"/>
      </g>
      <path id="Trazado_1035424" data-name="Trazado 1035424" d="M49.593,41.846l.062.166a20.651,20.651,0,0,0,8.151,2.055V33.294c-3.906.591-6.7,4.729-8.212,8.547M66.9,79.4l-.449.452,8.919,8.989,8.533-8.6-8.919-8.989ZM46.4,37.27a12.191,12.191,0,0,1,2.113,2.488,18.374,18.374,0,0,1,3.826-5.538A20.659,20.659,0,0,0,46.4,37.27Zm3.88,7.034a12.31,12.31,0,0,1-1.808,8.761h5.41a4.2,4.2,0,0,1,.29-3.278,1.983,1.983,0,0,1,3.153-.449l.478.481V45.883a22.4,22.4,0,0,1-7.529-1.617ZM38.2,34.117a12.211,12.211,0,0,1,6.724,2.007A22.557,22.557,0,0,1,75.393,69.16a.869.869,0,0,1,.235.169L85.821,79.6a.9.9,0,0,1,0,1.278l-9.8,9.885a.909.909,0,0,1-1.282,0L64.541,80.492a.9.9,0,0,1,0-1.276l.445-.449-.408-.423a8.027,8.027,0,0,1-5.362-1.172,8.062,8.062,0,0,1-5.468,1.158l-1.036.713.172.172a.9.9,0,0,1,0,1.276L42.691,90.771a.9.9,0,0,1-1.278,0L31.6,80.882a.9.9,0,0,1,.034-1.312L41.8,69.329l.239-.169a22.466,22.466,0,0,1-5.416-10.624A12.261,12.261,0,0,1,38.2,34.117Zm7.481,21.972A12.2,12.2,0,0,1,38.5,58.633,20.72,20.72,0,0,0,44.508,69.09l1.278-.959a8.409,8.409,0,0,1,1.881-3.612l-.835-.834a2.026,2.026,0,0,1-.591-1.432,1.976,1.976,0,0,1,.128-.713c-.235-1.143-.415-2.333-.544-3.561C45.765,57.353,45.713,56.725,45.679,56.089Zm-.095-17.1a10.445,10.445,0,1,0,0,14.772l.088-.088a.908.908,0,0,1,.481-.529,10.445,10.445,0,0,0-.569-14.155Zm-5.039.677v5.322l4.641,2.676A7.112,7.112,0,0,0,40.546,39.667Zm-1.811,5.839V38.5h0a.906.906,0,0,1,1.062-.889,8.92,8.92,0,0,1,6.81,11.725.9.9,0,0,1-1.3.485l-6.041-3.487A.905.905,0,0,1,38.735,45.506Zm4.122,6.235-2.311-1.334v2.678A7.113,7.113,0,0,0,42.857,51.741Zm-2.763-3.689c.541.312,4.659,2.664,4.813,2.8a.9.9,0,0,1,.106,1.276,8.96,8.96,0,0,1-2.348,1.969,8.854,8.854,0,0,1-2.778,1.036.9.9,0,0,1-1.154-.871v-5.42A.909.909,0,0,1,40.095,48.052Zm-4.248,5.035V50.409l-2.307,1.334A7.183,7.183,0,0,0,35.847,53.087Zm1.815-4.248v5.42h0a.908.908,0,0,1-1.062.889,8.906,8.906,0,0,1-5.214-3.024.906.906,0,0,1,.239-1.366l4.627-2.672A.906.906,0,0,1,37.662,48.839ZM31.21,47.663l4.637-2.676v-5.32A7.113,7.113,0,0,0,31.21,47.663Zm6-1.374c-.665.382-6.075,3.535-6.265,3.6a.9.9,0,0,1-1.154-.551,8.923,8.923,0,0,1,6.722-11.715.9.9,0,0,1,1.154.875v7.008h0A.9.9,0,0,1,37.207,46.289Zm18.84,6.978.4.316,1.128,1.128,1.29-1.254L56,50.577a.18.18,0,0,0-.239.078,2.323,2.323,0,0,0,.283,2.612Zm2.81,2.722,1.033,1.033a2.356,2.356,0,0,1,.581.933.9.9,0,0,1,.194-.29l1.58-1.58c.471-.507.01-1.4-.761-1.7a1.161,1.161,0,0,0-1.11.11l-.893.9C59.3,55.579,59.089,55.773,58.857,55.989ZM60.6,58.87a2.418,2.418,0,0,1-2.289,2.282,2.416,2.416,0,0,1-1.786,1.955A2.418,2.418,0,0,1,54.4,65.638a2.426,2.426,0,0,1-4.126,1.484l-1.312-1.312a6.693,6.693,0,0,0-1.422,2.866.9.9,0,0,1-.4.7c-.661.463-1.48,1.128-2.161,1.624l-.136.1,6.582,6.636,1.606-1.11a.91.91,0,0,1,.687-.144,6.183,6.183,0,0,0,4.156-.621,6.619,6.619,0,0,0,1.08-.739L69.579,65.074a.807.807,0,0,0-.493-1.386L67.955,64.82a.907.907,0,0,1-1.282-1.282l1.3-1.3a1.046,1.046,0,0,0,.034-.793,1.149,1.149,0,0,0-.537-.639,1.058,1.058,0,0,0-.721-.118l-1.3,1.3a.908.908,0,0,1-1.282-1.286l1.43-1.43a1.06,1.06,0,0,0,.14-.963,1.775,1.775,0,0,0-1.051-1.044,1.289,1.289,0,0,0-1.184.122l-1.554,1.554A.9.9,0,0,1,60.6,58.87ZM52.5,55.03c.014-.052.03-.1.048-.15h-5.1a35.969,35.969,0,0,0,.459,5.005,1.942,1.942,0,0,1,.481-.172A2.948,2.948,0,0,1,49.5,58.084a2.04,2.04,0,0,1,.669-.445c-.018-.981.533-1.414,1.146-2.033A2.048,2.048,0,0,1,52.5,55.03Zm2.359-.165-.555.555a.215.215,0,0,0,0,.3l3.439,3.439a.608.608,0,0,0,.859-.861l-3.439-3.439a.214.214,0,0,0-.3,0ZM52.6,56.893l-.555.555a.223.223,0,0,0,0,.3l3.439,3.439a.61.61,0,0,0,1.04-.43.6.6,0,0,0-.176-.43l-3.439-3.439A.221.221,0,0,0,52.6,56.893Zm-1.811,2.473-.555.555a.215.215,0,0,0,0,.3l3.439,3.439a.608.608,0,0,0,.859-.861l-3.439-3.439a.224.224,0,0,0-.3,0Zm-2.117,2.175-.555.555a.223.223,0,0,0,0,.3l3.443,3.441a.608.608,0,0,0,.859-.861L48.98,61.542A.22.22,0,0,0,48.671,61.542Zm10.95-9.892.871.878a3.239,3.239,0,0,1,2.33.537h7.158a34.166,34.166,0,0,0-1.492-9.389,22.456,22.456,0,0,1-8.867,2.209ZM48.8,77.667l-6.361-6.412L33.52,80.244l8.533,8.6,8.919-8.989Zm23.709-6.483-1.374-1.456a.9.9,0,0,1-.261-.581A6.554,6.554,0,0,0,70.2,66.98l-9.48,8.963a6.208,6.208,0,0,0,4.006.544.91.91,0,0,1,.823.261l.713.735Zm-8.356-16.3a2.381,2.381,0,0,1,.084.489A3.459,3.459,0,0,1,67.6,58.933a2.963,2.963,0,0,1,1.855,1.356,36.555,36.555,0,0,0,.529-5.41Zm6.666,7.735a2.581,2.581,0,0,1,.635,2.884,9.233,9.233,0,0,1,1.19,3.189l.327.349a20.646,20.646,0,0,0,6.467-14.159H71.794A36.819,36.819,0,0,1,70.818,62.615Zm8.621-9.55a20.668,20.668,0,0,0-5.45-13.126,22.48,22.48,0,0,1-3.877,2.87,35.809,35.809,0,0,1,1.683,10.255ZM59.622,33.3V44.066a20.621,20.621,0,0,0,8.26-2.105C66.306,37.929,63.469,33.875,59.622,33.3Zm9.863,7.779a21.126,21.126,0,0,0,3.223-2.418A20.7,20.7,0,0,0,65.1,34.228,19.544,19.544,0,0,1,69.484,41.078Z" transform="translate(0 0)"/>
    </g>
  </g>
</svg>
