<svg xmlns="http://www.w3.org/2000/svg" xmlns:xlink="http://www.w3.org/1999/xlink" width="109.601" height="109.601" viewBox="0 0 109.601 109.601">
  <defs>
    <filter id="Trazado_982547" x="0" y="0" width="109.601" height="109.601" filterUnits="userSpaceOnUse">
      <feOffset dy="3" input="SourceAlpha"/>
      <feGaussianBlur stdDeviation="3" result="blur"/>
      <feFlood flood-opacity="0.161"/>
      <feComposite operator="in" in2="blur"/>
      <feComposite in="SourceGraphic"/>
    </filter>
  </defs>
  <g id="Grupo_1177523" data-name="Grupo 1177523" transform="translate(-615.5 -5395.725)">
    <g id="Grupo_1177427" data-name="Grupo 1177427" transform="translate(624.5 5401.725)">
      <g id="Grupo_1172010" data-name="Grupo 1172010">
        <g id="Grupo_1171046" data-name="Grupo 1171046">
          <g id="Grupo_1148525" data-name="Grupo 1148525">
            <g transform="matrix(1, 0, 0, 1, -9, -6)" filter="url(#Trazado_982547)">
              <g id="Trazado_982547-2" data-name="Trazado 982547" transform="translate(9 6)" fill="#effbfe">
                <path d="M 45.80029296875 90.10059356689453 C 39.81912994384766 90.10059356689453 34.01768112182617 88.92950439453125 28.55708122253418 86.61986541748047 C 23.28201866149902 84.38870239257812 18.54420471191406 81.19428253173828 14.47525501251221 77.12534332275391 C 10.40631771087646 73.056396484375 7.211893081665039 68.31858062744141 4.980730533599854 63.04350662231445 C 2.671092987060547 57.58291625976562 1.500005483627319 51.78145599365234 1.500005483627319 45.80029296875 C 1.500005483627319 39.81912994384766 2.671092987060547 34.01768112182617 4.980730533599854 28.55708122253418 C 7.211893081665039 23.28201866149902 10.40631771087646 18.54420471191406 14.47525501251221 14.47525501251221 C 18.54420471191406 10.40631771087646 23.28201866149902 7.211893081665039 28.55708122253418 4.980730533599854 C 34.01768112182617 2.671092987060547 39.81912994384766 1.500005483627319 45.80029296875 1.500005483627319 C 51.78145599365234 1.500005483627319 57.58291625976562 2.671092987060547 63.04350662231445 4.980730533599854 C 68.31858062744141 7.211893081665039 73.056396484375 10.40631771087646 77.12534332275391 14.47525501251221 C 81.19428253173828 18.54420471191406 84.38870239257812 23.28201866149902 86.61986541748047 28.55708122253418 C 88.92950439453125 34.01768112182617 90.10059356689453 39.81912994384766 90.10059356689453 45.80029296875 C 90.10059356689453 51.78145599365234 88.92950439453125 57.58291625976562 86.61986541748047 63.04350662231445 C 84.38870239257812 68.31858062744141 81.19428253173828 73.056396484375 77.12534332275391 77.12534332275391 C 73.056396484375 81.19428253173828 68.31858062744141 84.38870239257812 63.04350662231445 86.61986541748047 C 57.58291625976562 88.92950439453125 51.78145599365234 90.10059356689453 45.80029296875 90.10059356689453 Z" stroke="none"/>
                <path d="M 45.80029296875 2.999992370605469 C 40.02096557617188 2.999992370605469 34.41610717773438 4.131210327148438 29.14140701293945 6.362220764160156 C 24.04513549804688 8.51776123046875 19.46759033203125 11.60423278808594 15.53590393066406 15.53590393066406 C 11.60423278808594 19.46759033203125 8.51776123046875 24.04513549804688 6.362220764160156 29.14140701293945 C 4.131210327148438 34.41610717773438 2.999992370605469 40.02096557617188 2.999992370605469 45.80029296875 C 2.999992370605469 51.57962036132812 4.131210327148438 57.18447875976562 6.362220764160156 62.45917892456055 C 8.51776123046875 67.55545043945312 11.60423278808594 72.13299560546875 15.53590393066406 76.06466674804688 C 19.46759033203125 79.996337890625 24.04513549804688 83.08280944824219 29.14140701293945 85.23834991455078 C 34.41610717773438 87.4693603515625 40.02096557617188 88.60057830810547 45.80029296875 88.60057830810547 C 51.57962036132812 88.60057830810547 57.18447875976562 87.4693603515625 62.45917892456055 85.23834991455078 C 67.55545043945312 83.08280944824219 72.13299560546875 79.996337890625 76.06466674804688 76.06466674804688 C 79.996337890625 72.13299560546875 83.08280944824219 67.55545043945312 85.23834991455078 62.45917892456055 C 87.4693603515625 57.18447875976562 88.60057830810547 51.57962036132812 88.60057830810547 45.80029296875 C 88.60057830810547 40.02096557617188 87.4693603515625 34.41610717773438 85.23834991455078 29.14140701293945 C 83.08280944824219 24.04513549804688 79.996337890625 19.46759033203125 76.06466674804688 15.53590393066406 C 72.13299560546875 11.60423278808594 67.55545043945312 8.51776123046875 62.45917892456055 6.362220764160156 C 57.18447875976562 4.131210327148438 51.57962036132812 2.999992370605469 45.80029296875 2.999992370605469 M 45.80029296875 -7.62939453125e-06 C 71.0950927734375 -7.62939453125e-06 91.60057830810547 20.5054931640625 91.60057830810547 45.80029296875 C 91.60057830810547 71.0950927734375 71.0950927734375 91.60057830810547 45.80029296875 91.60057830810547 C 20.5054931640625 91.60057830810547 -7.62939453125e-06 71.0950927734375 -7.62939453125e-06 45.80029296875 C -7.62939453125e-06 20.5054931640625 20.5054931640625 -7.62939453125e-06 45.80029296875 -7.62939453125e-06 Z" stroke="none" fill="#2cc3dc"/>
              </g>
            </g>
          </g>
        </g>
      </g>
    </g>
    <g id="activism_8225997" transform="translate(635.825 5413.05)">
      <g id="Grupo_1177517" data-name="Grupo 1177517" transform="translate(7.5 7.5)">
        <path id="Trazado_1035425" data-name="Trazado 1035425" d="M302.812,382.533h-5.4v12.4a.843.843,0,0,0,.843.843h3.709a.843.843,0,0,0,.843-.843v-12.4Z" transform="translate(-265.946 -341.823)" fill="#a45e43"/>
        <path id="Trazado_1035426" data-name="Trazado 1035426" d="M316.985,382.533V394.9a.868.868,0,0,1-.868.868h2.522a.843.843,0,0,0,.843-.843v-12.4Z" transform="translate(-282.616 -341.823)" fill="#85453d"/>
        <path id="Trazado_1035427" data-name="Trazado 1035427" d="M140.033,29.125V9.3a1.8,1.8,0,0,1,1.8-1.8H177.8a1.8,1.8,0,0,1,1.8,1.8V47.064a1.8,1.8,0,0,1-1.8,1.8H143.819Z" transform="translate(-125.646 -7.5)" fill="#f1f6f7"/>
        <path id="Trazado_1035428" data-name="Trazado 1035428" d="M269.544,322.267h-12.7a.843.843,0,0,0-.843.843v1.911a.843.843,0,0,0,.843.843h12.7a.843.843,0,0,0,.843-.843V323.11A.843.843,0,0,0,269.544,322.267Z" transform="translate(-229.025 -288.099)" fill="#ff6337"/>
        <path id="Trazado_1035429" data-name="Trazado 1035429" d="M223.6,49.662l-.739,17.084a13.545,13.545,0,0,0,4.7,3.944l14.678-1.634h0a13.512,13.512,0,0,0,4.133-5.906h0l-1.928-12.588a13.507,13.507,0,0,0-6.962-4.843l-8.758.378a13.515,13.515,0,0,0-5.122,3.566Z" transform="translate(-199.483 -41.569)" fill="#01d0fb"/>
        <path id="Trazado_1035430" data-name="Trazado 1035430" d="M348.417,63.149h0l-1.928-12.588h0a13.507,13.507,0,0,0-6.963-4.843h0l-2.193.095a13.489,13.489,0,0,1,4.045,23.566l2.905-.323A13.512,13.512,0,0,0,348.417,63.149Z" transform="translate(-301.529 -41.569)" fill="#01c0fa"/>
        <path id="Trazado_1035431" data-name="Trazado 1035431" d="M55.211,264.283s-6.294,8.895-6.294,9.441V289.46a.9.9,0,0,0,.9.9h9.891a.9.9,0,0,0,.9-.9v-9.027a1.8,1.8,0,0,1,.675-1.4h0a10.181,10.181,0,0,0,3.821-7.95v-5.9Z" transform="translate(-44.421 -236.409)" fill="#ffb4a9"/>
        <path id="Trazado_1035432" data-name="Trazado 1035432" d="M92.183,264.283v1.349a4.743,4.743,0,0,0,6.992,4.177,4.738,4.738,0,0,0,4.5,0v-4.627l-9.891-.9h-1.6Z" transform="translate(-82.991 -236.409)" fill="#fa9d96"/>
        <path id="Trazado_1035433" data-name="Trazado 1035433" d="M467.43,7.5h-2.5a1.8,1.8,0,0,1,1.8,1.8V47.064a1.8,1.8,0,0,1-1.8,1.8h2.5a1.8,1.8,0,0,0,1.8-1.8V9.3A1.8,1.8,0,0,0,467.43,7.5Z" transform="translate(-415.278 -7.5)" fill="#e1ebf0"/>
        <path id="Trazado_1035434" data-name="Trazado 1035434" d="M360.056,322.267h-2.522a.868.868,0,0,1,.868.868V325a.868.868,0,0,1-.868.868h2.522a.843.843,0,0,0,.843-.843V323.11A.843.843,0,0,0,360.056,322.267Z" transform="translate(-319.537 -288.099)" fill="#ff4128"/>
        <path id="Trazado_1035435" data-name="Trazado 1035435" d="M130.712,270.476V276.6a10.181,10.181,0,0,1-3.821,7.95h0a1.8,1.8,0,0,0-.675,1.4v9.026a.9.9,0,0,1-.9.9h2.5a.9.9,0,0,0,.9-.9v-9.026a1.8,1.8,0,0,1,.675-1.4h0a10.181,10.181,0,0,0,3.821-7.95v-5.9Z" transform="translate(-112.528 -241.93)" fill="#fa9d96"/>
        <path id="Trazado_1035436" data-name="Trazado 1035436" d="M207.56,84.748h-.8a2.147,2.147,0,0,1-2.037-1.468,1.8,1.8,0,0,0-1.706-1.23h-1.562a13.487,13.487,0,0,0-.739,17.084h0a3.6,3.6,0,0,0,3.6-3.6v-.425a1.374,1.374,0,0,1,1.374-1.374,3.6,3.6,0,0,0,3.217-1.988l.425-.849a3.6,3.6,0,0,0,.38-1.609v-2.4A2.147,2.147,0,0,0,207.56,84.748Z" transform="translate(-177.337 -73.957)" fill="#baeb6c"/>
        <path id="Trazado_1035437" data-name="Trazado 1035437" d="M281.779,40.633a13.453,13.453,0,0,0-4.93.93l.339.679a3.6,3.6,0,0,0,3.217,1.988h2.21a1.8,1.8,0,0,0,1.5-.8l1.5-2.244A13.49,13.49,0,0,0,281.779,40.633Z" transform="translate(-247.611 -37.036)" fill="#baeb6c"/>
        <path id="Trazado_1035438" data-name="Trazado 1035438" d="M315.333,41.949l.509-.764a13.487,13.487,0,0,0-3.828-.552c-.421,0-.837.02-1.248.058A13.4,13.4,0,0,1,315.333,41.949Z" transform="translate(-277.846 -37.036)" fill="#97e063"/>
        <path id="Trazado_1035439" data-name="Trazado 1035439" d="M351.138,90.333a3.6,3.6,0,0,0-3.217,1.988l-.425.849a3.6,3.6,0,0,0-.38,1.609v1.636a1.8,1.8,0,0,0,.994,1.609l1.843.922a3.6,3.6,0,0,0,1.609.38h.949a.9.9,0,0,1,.9.9v.9a1.8,1.8,0,0,0,1.8,1.8h1.929a13.505,13.505,0,0,0-1.928-12.588h-4.072Z" transform="translate(-310.251 -81.341)" fill="#baeb6c"/>
        <path id="Trazado_1035440" data-name="Trazado 1035440" d="M398.663,90.333a13.507,13.507,0,0,1,1.959,12.506,1.8,1.8,0,0,0,.538.082h1.929a13.5,13.5,0,0,0-1.928-12.588Z" transform="translate(-356.202 -81.341)" fill="#97e063"/>
        <path id="Trazado_1035441" data-name="Trazado 1035441" d="M272.24,237.443a13.432,13.432,0,0,0,8.586-3.086l-1.216-1.7a3.6,3.6,0,0,0-2.927-1.506h-2.206A4.181,4.181,0,0,0,271,233.011h0a1.877,1.877,0,0,1-1.561.836h0a3.6,3.6,0,0,0-3.289,2.145A13.428,13.428,0,0,0,272.24,237.443Z" transform="translate(-238.071 -206.872)" fill="#baeb6c"/>
        <path id="Trazado_1035442" data-name="Trazado 1035442" d="M310.767,252.032h0q.615.056,1.245.057A13.432,13.432,0,0,0,320.6,249l-1.018-1.425A13.457,13.457,0,0,1,310.767,252.032Z" transform="translate(-277.847 -221.518)" fill="#97e063"/>
        <path id="Trazado_1035443" data-name="Trazado 1035443" d="M51.045,433.546H40.554a.843.843,0,0,1-.843-.843v-1.911a.843.843,0,0,1,.843-.843H51.045a.183.183,0,0,1,.183.183v3.231A.182.182,0,0,1,51.045,433.546Z" transform="translate(-36.214 -384.091)" fill="#baeb6c"/>
        <path id="Trazado_1035444" data-name="Trazado 1035444" d="M137.3,429.95h-2.5a.868.868,0,0,1,.868.868v1.86a.868.868,0,0,1-.868.868h2.5a.868.868,0,0,0,.868-.868v-1.86A.868.868,0,0,0,137.3,429.95Z" transform="translate(-120.986 -384.092)" fill="#97e063"/>
        <path id="Trazado_1035445" data-name="Trazado 1035445" d="M48.176,209a2.246,2.246,0,0,0-2.012,1.082.177.177,0,0,1-.15.087.175.175,0,0,1-.175-.175V208.6a2.284,2.284,0,0,0-2.191-2.3,2.247,2.247,0,0,0-2.061,1.228.274.274,0,0,1-.244.15h0a.272.272,0,0,1-.243-.147,2.246,2.246,0,0,0-4.235.757.164.164,0,0,1-.164.144h0a.167.167,0,0,1-.145-.087,2.245,2.245,0,0,0-1.964-1.145,2.284,2.284,0,0,0-2.241,2.3v3.634h4.5l4.5.356v.395a2.307,2.307,0,0,0,2.224,2.3,2.247,2.247,0,0,0,2.015-1.205.29.29,0,0,1,.513,0,2.247,2.247,0,0,0,2.015,1.205,2.307,2.307,0,0,0,2.224-2.3V211.3A2.283,2.283,0,0,0,48.176,209Z" transform="translate(-29.653 -184.72)" fill="#ffb4a9"/>
        <path id="Trazado_1035446" data-name="Trazado 1035446" d="M15.629,269.288a4.147,4.147,0,0,0,3.56-4.105h0a.9.9,0,0,0-.9-.9H11.733a3.6,3.6,0,0,0-3.339,2.261l-.225.563A9.35,9.35,0,0,0,7.5,270.58h0a9.35,9.35,0,0,0,3.509,7.3l.312.25a1.8,1.8,0,0,1,.675,1.4l5.319-.015Z" transform="translate(-7.5 -236.41)" fill="#ffb4a9"/>
        <g id="Grupo_1177516" data-name="Grupo 1177516" transform="translate(2.698 26.246)">
          <path id="Trazado_1035447" data-name="Trazado 1035447" d="M33.886,249.282a5.263,5.263,0,0,0-1.536.228v1.746a3.591,3.591,0,0,1,1.536-.345h6.557a.894.894,0,0,1,.9.88,4.147,4.147,0,0,1-3.56,4.124l-1.942.277a.814.814,0,0,0-.693.907h0a.814.814,0,0,0,.922.7l1.942-.277a5.775,5.775,0,0,0,4.958-5.771,2.517,2.517,0,0,0-2.527-2.473H33.886Z" transform="translate(-32.35 -249.282)" fill="#fa9d96"/>
        </g>
      </g>
      <g id="Grupo_1177522" data-name="Grupo 1177522" transform="translate(7.5 7.5)">
        <g id="Grupo_1177519" data-name="Grupo 1177519" transform="translate(14.387 0)">
          <path id="Trazado_1035448" data-name="Trazado 1035448" d="M179.318,7.5h29.571a1.8,1.8,0,0,1,1.8,1.8V47.064a1.8,1.8,0,0,1-1.8,1.8H174.91" transform="translate(-171.124 -7.5)" fill="none" stroke="#000" stroke-linecap="round" stroke-linejoin="round" stroke-miterlimit="10" stroke-width="1.5"/>
          <path id="Trazado_1035449" data-name="Trazado 1035449" d="M140.033,29.125V9.3a1.8,1.8,0,0,1,1.8-1.8h2.6" transform="translate(-140.033 -7.5)" fill="none" stroke="#000" stroke-linecap="round" stroke-linejoin="round" stroke-miterlimit="10" stroke-width="1.5"/>
          <path id="Trazado_1035450" data-name="Trazado 1035450" d="M297.417,398v2.254a.868.868,0,0,0,.868.868h3.658a.868.868,0,0,0,.868-.868v-11.72h-5.4V394.2" transform="translate(-280.333 -347.171)" fill="none" stroke="#000" stroke-linecap="round" stroke-linejoin="round" stroke-miterlimit="10" stroke-width="1.5"/>
          <line id="Línea_1007" data-name="Línea 1007" x2="5.395" transform="translate(17.084 44.959)" fill="none" stroke="#000" stroke-linecap="round" stroke-linejoin="round" stroke-miterlimit="10" stroke-width="1.5"/>
          <path id="Trazado_1035451" data-name="Trazado 1035451" d="M269.518,322.267h-12.65a.868.868,0,0,0-.868.868V325a.868.868,0,0,0,.868.868h12.65a.868.868,0,0,0,.868-.868v-1.86A.868.868,0,0,0,269.518,322.267Z" transform="translate(-243.412 -288.099)" fill="none" stroke="#000" stroke-linecap="round" stroke-linejoin="round" stroke-miterlimit="10" stroke-width="1.5"/>
          <circle id="Elipse_12468" data-name="Elipse 12468" cx="13.488" cy="13.488" r="13.488" transform="translate(6.294 3.597)" fill="none" stroke="#000" stroke-linecap="round" stroke-linejoin="round" stroke-miterlimit="10" stroke-width="1.5"/>
          <g id="Grupo_1177518" data-name="Grupo 1177518" transform="translate(8.991 4.149)">
            <path id="Trazado_1035452" data-name="Trazado 1035452" d="M276.849,46.1l.339.679a3.6,3.6,0,0,0,3.217,1.988h2.21a1.8,1.8,0,0,0,1.5-.8l1.5-2.244" transform="translate(-270.988 -45.719)" fill="none" stroke="#000" stroke-linecap="round" stroke-linejoin="round" stroke-miterlimit="10" stroke-width="1.5"/>
            <path id="Trazado_1035453" data-name="Trazado 1035453" d="M222.861,99.132h0a3.6,3.6,0,0,0,3.6-3.6v-.425a1.374,1.374,0,0,1,1.374-1.374,3.6,3.6,0,0,0,3.217-1.988l.425-.849a3.6,3.6,0,0,0,.38-1.609v-2.4a2.147,2.147,0,0,0-2.147-2.147h-.8a2.147,2.147,0,0,1-2.037-1.468,1.8,1.8,0,0,0-1.706-1.23H223.6" transform="translate(-222.861 -78.104)" fill="none" stroke="#000" stroke-linecap="round" stroke-linejoin="round" stroke-miterlimit="10" stroke-width="1.5"/>
            <path id="Trazado_1035454" data-name="Trazado 1035454" d="M280.826,234.359l-1.216-1.7a3.6,3.6,0,0,0-2.927-1.506h-2.206A4.181,4.181,0,0,0,271,233.012h0a1.877,1.877,0,0,1-1.561.836h0a3.6,3.6,0,0,0-3.289,2.145" transform="translate(-261.449 -211.021)" fill="none" stroke="#000" stroke-linecap="round" stroke-linejoin="round" stroke-miterlimit="10" stroke-width="1.5"/>
            <path id="Trazado_1035455" data-name="Trazado 1035455" d="M355.21,90.333h-4.072a3.6,3.6,0,0,0-3.217,1.988l-.425.849a3.6,3.6,0,0,0-.38,1.609v1.636a1.8,1.8,0,0,0,.994,1.609l1.843.922a3.6,3.6,0,0,0,1.609.38h.949a.9.9,0,0,1,.9.9v.9a1.8,1.8,0,0,0,1.8,1.8h1.929" transform="translate(-333.629 -85.49)" fill="none" stroke="#000" stroke-linecap="round" stroke-linejoin="round" stroke-miterlimit="10" stroke-width="1.5"/>
          </g>
        </g>
        <g id="Grupo_1177521" data-name="Grupo 1177521" transform="translate(0 21.58)">
          <path id="Trazado_1035456" data-name="Trazado 1035456" d="M119.68,208.548a2.248,2.248,0,1,0-4.5,0v5.4a2.248,2.248,0,1,0,4.5,0Z" transform="translate(-103.495 -206.3)" fill="none" stroke="#000" stroke-linecap="round" stroke-linejoin="round" stroke-miterlimit="10" stroke-width="1.5"/>
          <path id="Trazado_1035457" data-name="Trazado 1035457" d="M161.1,233.4a2.248,2.248,0,0,0-4.5,0v2.7a2.248,2.248,0,0,0,4.5,0Z" transform="translate(-140.416 -228.452)" fill="none" stroke="#000" stroke-linecap="round" stroke-linejoin="round" stroke-miterlimit="10" stroke-width="1.5"/>
          <path id="Trazado_1035458" data-name="Trazado 1035458" d="M156.6,289.651v-1.833a1.8,1.8,0,0,1,.675-1.4h0a10.181,10.181,0,0,0,3.821-7.95v-5.9" transform="translate(-140.415 -265.374)" fill="none" stroke="#000" stroke-linecap="round" stroke-linejoin="round" stroke-miterlimit="10" stroke-width="1.5"/>
          <path id="Trazado_1035459" data-name="Trazado 1035459" d="M48.917,463.083v3.6a.9.9,0,0,0,.9.9h9.891a.9.9,0,0,0,.9-.9v-3.6" transform="translate(-44.421 -435.209)" fill="none" stroke="#000" stroke-linecap="round" stroke-linejoin="round" stroke-miterlimit="10" stroke-width="1.5"/>
          <path id="Trazado_1035460" data-name="Trazado 1035460" d="M12.9,269.678l2.734-.391a4.147,4.147,0,0,0,3.56-4.105h0a.9.9,0,0,0-.9-.9H11.733a3.6,3.6,0,0,0-3.339,2.261l-.225.563a9.35,9.35,0,0,0-.669,3.472h0a9.35,9.35,0,0,0,3.509,7.3l.312.25a1.8,1.8,0,0,1,.675,1.4v2.732" transform="translate(-7.5 -257.989)" fill="none" stroke="#000" stroke-linecap="round" stroke-linejoin="round" stroke-miterlimit="10" stroke-width="1.5"/>
          <path id="Trazado_1035461" data-name="Trazado 1035461" d="M80.642,310.634a6.3,6.3,0,0,1,3.749,5.759" transform="translate(-72.702 -299.308)" fill="none" stroke="#000" stroke-linecap="round" stroke-linejoin="round" stroke-miterlimit="10" stroke-width="1.5"/>
          <g id="Grupo_1177520" data-name="Grupo 1177520" transform="translate(2.698 0)">
            <path id="Trazado_1035462" data-name="Trazado 1035462" d="M78.263,213.494v-4.945a2.248,2.248,0,1,0-4.5,0V212.6" transform="translate(-69.271 -206.301)" fill="none" stroke="#000" stroke-linecap="round" stroke-linejoin="round" stroke-miterlimit="10" stroke-width="1.5"/>
            <path id="Trazado_1035463" data-name="Trazado 1035463" d="M36.847,219.978v-3.147a2.248,2.248,0,1,0-4.5,0v3.26" transform="translate(-32.351 -213.684)" fill="none" stroke="#000" stroke-linecap="round" stroke-linejoin="round" stroke-miterlimit="10" stroke-width="1.5"/>
          </g>
          <path id="Trazado_1035464" data-name="Trazado 1035464" d="M52.531,433.547H40.58a.868.868,0,0,1-.868-.868v-1.86a.868.868,0,0,1,.868-.868H52.531a.868.868,0,0,1,.868.868v1.86A.868.868,0,0,1,52.531,433.547Z" transform="translate(-36.215 -405.672)" fill="none" stroke="#000" stroke-linecap="round" stroke-linejoin="round" stroke-miterlimit="10" stroke-width="1.5"/>
        </g>
      </g>
    </g>
  </g>
</svg>
