<svg xmlns="http://www.w3.org/2000/svg" xmlns:xlink="http://www.w3.org/1999/xlink" width="109.601" height="109.601" viewBox="0 0 109.601 109.601">
  <defs>
    <filter id="Trazado_982547" x="0" y="0" width="109.601" height="109.601" filterUnits="userSpaceOnUse">
      <feOffset dy="3" input="SourceAlpha"/>
      <feGaussianBlur stdDeviation="3" result="blur"/>
      <feFlood flood-opacity="0.161"/>
      <feComposite operator="in" in2="blur"/>
      <feComposite in="SourceGraphic"/>
    </filter>
  </defs>
  <g id="Grupo_1177541" data-name="Grupo 1177541" transform="translate(-1035.5 -5395.725)">
    <g id="Grupo_1177428" data-name="Grupo 1177428" transform="translate(1044.5 5401.725)">
      <g id="Grupo_1172010" data-name="Grupo 1172010">
        <g id="Grupo_1171046" data-name="Grupo 1171046">
          <g id="Grupo_1148525" data-name="Grupo 1148525">
            <g transform="matrix(1, 0, 0, 1, -9, -6)" filter="url(#Trazado_982547)">
              <g id="Trazado_982547-2" data-name="Trazado 982547" transform="translate(9 6)" fill="#effbfe">
                <path d="M 45.80029296875 90.10059356689453 C 39.81912994384766 90.10059356689453 34.01768112182617 88.92950439453125 28.55708122253418 86.61986541748047 C 23.28201866149902 84.38870239257812 18.54420471191406 81.19428253173828 14.47525501251221 77.12534332275391 C 10.40631771087646 73.056396484375 7.211893081665039 68.31858062744141 4.980730533599854 63.04350662231445 C 2.671092987060547 57.58291625976562 1.500005483627319 51.78145599365234 1.500005483627319 45.80029296875 C 1.500005483627319 39.81912994384766 2.671092987060547 34.01768112182617 4.980730533599854 28.55708122253418 C 7.211893081665039 23.28201866149902 10.40631771087646 18.54420471191406 14.47525501251221 14.47525501251221 C 18.54420471191406 10.40631771087646 23.28201866149902 7.211893081665039 28.55708122253418 4.980730533599854 C 34.01768112182617 2.671092987060547 39.81912994384766 1.500005483627319 45.80029296875 1.500005483627319 C 51.78145599365234 1.500005483627319 57.58291625976562 2.671092987060547 63.04350662231445 4.980730533599854 C 68.31858062744141 7.211893081665039 73.056396484375 10.40631771087646 77.12534332275391 14.47525501251221 C 81.19428253173828 18.54420471191406 84.38870239257812 23.28201866149902 86.61986541748047 28.55708122253418 C 88.92950439453125 34.01768112182617 90.10059356689453 39.81912994384766 90.10059356689453 45.80029296875 C 90.10059356689453 51.78145599365234 88.92950439453125 57.58291625976562 86.61986541748047 63.04350662231445 C 84.38870239257812 68.31858062744141 81.19428253173828 73.056396484375 77.12534332275391 77.12534332275391 C 73.056396484375 81.19428253173828 68.31858062744141 84.38870239257812 63.04350662231445 86.61986541748047 C 57.58291625976562 88.92950439453125 51.78145599365234 90.10059356689453 45.80029296875 90.10059356689453 Z" stroke="none"/>
                <path d="M 45.80029296875 2.999992370605469 C 40.02096557617188 2.999992370605469 34.41610717773438 4.131210327148438 29.14140701293945 6.362220764160156 C 24.04513549804688 8.51776123046875 19.46759033203125 11.60423278808594 15.53590393066406 15.53590393066406 C 11.60423278808594 19.46759033203125 8.51776123046875 24.04513549804688 6.362220764160156 29.14140701293945 C 4.131210327148438 34.41610717773438 2.999992370605469 40.02096557617188 2.999992370605469 45.80029296875 C 2.999992370605469 51.57962036132812 4.131210327148438 57.18447875976562 6.362220764160156 62.45917892456055 C 8.51776123046875 67.55545043945312 11.60423278808594 72.13299560546875 15.53590393066406 76.06466674804688 C 19.46759033203125 79.996337890625 24.04513549804688 83.08280944824219 29.14140701293945 85.23834991455078 C 34.41610717773438 87.4693603515625 40.02096557617188 88.60057830810547 45.80029296875 88.60057830810547 C 51.57962036132812 88.60057830810547 57.18447875976562 87.4693603515625 62.45917892456055 85.23834991455078 C 67.55545043945312 83.08280944824219 72.13299560546875 79.996337890625 76.06466674804688 76.06466674804688 C 79.996337890625 72.13299560546875 83.08280944824219 67.55545043945312 85.23834991455078 62.45917892456055 C 87.4693603515625 57.18447875976562 88.60057830810547 51.57962036132812 88.60057830810547 45.80029296875 C 88.60057830810547 40.02096557617188 87.4693603515625 34.41610717773438 85.23834991455078 29.14140701293945 C 83.08280944824219 24.04513549804688 79.996337890625 19.46759033203125 76.06466674804688 15.53590393066406 C 72.13299560546875 11.60423278808594 67.55545043945312 8.51776123046875 62.45917892456055 6.362220764160156 C 57.18447875976562 4.131210327148438 51.57962036132812 2.999992370605469 45.80029296875 2.999992370605469 M 45.80029296875 -7.62939453125e-06 C 71.0950927734375 -7.62939453125e-06 91.60057830810547 20.5054931640625 91.60057830810547 45.80029296875 C 91.60057830810547 71.0950927734375 71.0950927734375 91.60057830810547 45.80029296875 91.60057830810547 C 20.5054931640625 91.60057830810547 -7.62939453125e-06 71.0950927734375 -7.62939453125e-06 45.80029296875 C -7.62939453125e-06 20.5054931640625 20.5054931640625 -7.62939453125e-06 45.80029296875 -7.62939453125e-06 Z" stroke="none" fill="#2cc3dc"/>
              </g>
            </g>
          </g>
        </g>
      </g>
    </g>
    <g id="charity_2666116" transform="translate(998.681 5413.792)">
      <g id="Grupo_1177533" data-name="Grupo 1177533" transform="translate(88.957 21.157)">
        <g id="Grupo_1177529" data-name="Grupo 1177529" transform="translate(0)">
          <g id="Grupo_1177524" data-name="Grupo 1177524" transform="translate(6.656 38.533)">
            <path id="Trazado_1035465" data-name="Trazado 1035465" d="M286.3,452.982h17.3v6.789H286.3Z" transform="translate(-286.305 -452.982)" fill="#ffddce"/>
          </g>
          <g id="Grupo_1177525" data-name="Grupo 1177525" transform="translate(6.656 38.533)">
            <path id="Trazado_1035466" data-name="Trazado 1035466" d="M286.3,452.982h17.3v6.789H286.3Z" transform="translate(-286.305 -452.982)" fill="#b1e4f9"/>
          </g>
          <g id="Grupo_1177526" data-name="Grupo 1177526" transform="translate(21.298 38.533)">
            <path id="Trazado_1035467" data-name="Trazado 1035467" d="M397.423,452.982h2.662v6.789h-2.662Z" transform="translate(-397.423 -452.982)" fill="#90d8f9"/>
          </g>
          <g id="Grupo_1177527" data-name="Grupo 1177527">
            <path id="Trazado_1035468" data-name="Trazado 1035468" d="M259.852,168.48a2.662,2.662,0,0,0-2.759,2.66V165.88a2.7,2.7,0,0,0-2.565-2.724,2.662,2.662,0,0,0-2.759,2.66v-2.529a2.7,2.7,0,0,0-2.565-2.724,2.662,2.662,0,0,0-2.759,2.66v2.593a2.662,2.662,0,0,0-2.759-2.66,2.7,2.7,0,0,0-2.565,2.724v13.247a2.662,2.662,0,0,0-2.759-2.66,2.7,2.7,0,0,0-2.565,2.724v9.025a7.986,7.986,0,0,0,1.851,5.113l4.8,5.765h17.3l1.71-4.275a13.31,13.31,0,0,0,.952-4.944V171.2a2.7,2.7,0,0,0-2.565-2.724Z" transform="translate(-235.795 -160.561)" fill="#ffddce"/>
          </g>
          <g id="Grupo_1177528" data-name="Grupo 1177528" transform="translate(21.564 7.917)">
            <path id="Trazado_1035469" data-name="Trazado 1035469" d="M401.936,220.646a2.654,2.654,0,0,0-1.3.288,2.746,2.746,0,0,1,1.474,2.437v18.67a13.31,13.31,0,0,1-.952,4.944l-1.71,4.275h2.4l1.71-4.275a13.31,13.31,0,0,0,.952-4.944V223.37A2.7,2.7,0,0,0,401.936,220.646Z" transform="translate(-399.443 -220.644)" fill="#ffcbbe"/>
          </g>
        </g>
        <g id="Grupo_1177532" data-name="Grupo 1177532" transform="translate(5.325 16.963)">
          <g id="Grupo_1177530" data-name="Grupo 1177530">
            <path id="Trazado_1035470" data-name="Trazado 1035470" d="M290.8,290.672a4.71,4.71,0,0,0-6.607-.052,4.71,4.71,0,0,0-6.607,6.714l6.607,6.607,6.607-6.607A4.71,4.71,0,0,0,290.8,290.672Z" transform="translate(-276.203 -289.292)" fill="#dd636e"/>
          </g>
          <g id="Grupo_1177531" data-name="Grupo 1177531" transform="translate(3.125 0.004)">
            <path id="Trazado_1035471" data-name="Trazado 1035471" d="M311.384,290.7a4.69,4.69,0,0,0-3.164-1.375,8.02,8.02,0,0,1-7.823,9.8c-.162,0-.322-.006-.482-.016l4.862,4.862,6.607-6.607A4.71,4.71,0,0,0,311.384,290.7Z" transform="translate(-299.915 -289.324)" fill="#da4a54"/>
          </g>
        </g>
      </g>
      <g id="Grupo_1177540" data-name="Grupo 1177540" transform="translate(67.659 0.988)">
        <g id="Grupo_1177539" data-name="Grupo 1177539" transform="translate(0)">
          <g id="Grupo_1177534" data-name="Grupo 1177534" transform="translate(2.662)">
            <path id="Trazado_1035472" data-name="Trazado 1035472" d="M94.374,7.5h17.3v6.789h-17.3Z" transform="translate(-94.374 -7.5)" fill="#ffddce"/>
          </g>
          <g id="Grupo_1177535" data-name="Grupo 1177535" transform="translate(2.662)">
            <path id="Trazado_1035473" data-name="Trazado 1035473" d="M94.374,7.5h17.3v6.789h-17.3Z" transform="translate(-94.374 -7.5)" fill="#90dfc3"/>
          </g>
          <g id="Grupo_1177536" data-name="Grupo 1177536" transform="translate(17.304)">
            <path id="Trazado_1035474" data-name="Trazado 1035474" d="M205.492,7.5h2.662v6.789h-2.662Z" transform="translate(-205.492 -7.5)" fill="#78d0b1"/>
          </g>
          <g id="Grupo_1177537" data-name="Grupo 1177537" transform="translate(0 6.789)">
            <path id="Trazado_1035475" data-name="Trazado 1035475" d="M76.736,89.633a2.662,2.662,0,0,0,2.759-2.66v5.261a2.7,2.7,0,0,0,2.565,2.724A2.662,2.662,0,0,0,84.82,92.3v2.529a2.7,2.7,0,0,0,2.565,2.724,2.662,2.662,0,0,0,2.759-2.66V92.3a2.662,2.662,0,0,0,2.759,2.66,2.7,2.7,0,0,0,2.565-2.724V78.985a2.662,2.662,0,0,0,2.759,2.66,2.7,2.7,0,0,0,2.565-2.724V69.9a7.986,7.986,0,0,0-1.851-5.113l-4.8-5.765h-17.3l-1.71,4.275a13.31,13.31,0,0,0-.952,4.944v18.67a2.7,2.7,0,0,0,2.565,2.724Z" transform="translate(-74.171 -59.019)" fill="#c6865c"/>
          </g>
          <g id="Grupo_1177538" data-name="Grupo 1177538" transform="translate(16.967 6.789)">
            <path id="Trazado_1035476" data-name="Trazado 1035476" d="M210.055,68.6V78.921a2.748,2.748,0,0,1-1.405,2.4,2.65,2.65,0,0,0,1.369.324,2.7,2.7,0,0,0,2.565-2.724V69.9a7.986,7.986,0,0,0-1.851-5.113l-4.8-5.765h-3l6.516,7.888a2.662,2.662,0,0,1,.61,1.7Z" transform="translate(-202.929 -59.018)" fill="#b16e3d"/>
          </g>
        </g>
      </g>
      <path id="Trazado_1035477" data-name="Trazado 1035477" d="M115.579,40.269a.988.988,0,0,0,.988-.988V31.8a3.669,3.669,0,0,0-3.518-3.712,3.616,3.616,0,0,0-1.806.4V26.476a3.714,3.714,0,0,0-3.518-3.712,3.616,3.616,0,0,0-1.867.434,3.647,3.647,0,0,0-7.187,0,3.624,3.624,0,0,0-1.859-.43,3.527,3.527,0,0,0-1.542.418V18.655a8.992,8.992,0,0,0-2.08-5.746l-4.575-5.49V.988a.988.988,0,0,0-1.977,0v5.8H71.31V.988a.988.988,0,0,0-1.977,0v6.6l-1.639,4.1A14.237,14.237,0,0,0,66.671,17v4.969a.988.988,0,1,0,1.977,0V17a12.269,12.269,0,0,1,.881-4.577l1.462-3.654H87.163l4.508,5.41a7.011,7.011,0,0,1,1.622,4.48V27.68a1.721,1.721,0,0,1-1.612,1.737,1.674,1.674,0,0,1-1.736-1.673V22.685a.988.988,0,0,0-1.977,0V40.991a1.722,1.722,0,0,1-1.612,1.737,1.674,1.674,0,0,1-1.736-1.673V26.412a.988.988,0,1,0-1.977,0V43.647a1.674,1.674,0,0,1-1.736,1.673A1.721,1.721,0,0,1,79.3,43.583V26.412a.988.988,0,1,0-1.977,0V41.054a1.674,1.674,0,0,1-1.736,1.673,1.721,1.721,0,0,1-1.612-1.737V26.412a.988.988,0,0,0-1.977,0V35.73A1.674,1.674,0,0,1,70.26,37.4a1.721,1.721,0,0,1-1.612-1.737V26.585a.988.988,0,0,0-1.977,0v9.081a3.669,3.669,0,0,0,3.518,3.712,3.615,3.615,0,0,0,1.806-.4v2.014A3.714,3.714,0,0,0,75.514,44.7a3.629,3.629,0,0,0,1.867-.434A3.652,3.652,0,0,0,80.838,47.3l.134,0a3.653,3.653,0,0,0,3.6-3.025,3.615,3.615,0,0,0,1.859.43,3.527,3.527,0,0,0,1.542-.418v4.527a8.992,8.992,0,0,0,2.08,5.746l4.575,5.49v6.431a.988.988,0,1,0,1.977,0v-5.8h15.328v5.8a.988.988,0,1,0,1.977,0v-6.6l1.639-4.1a14.237,14.237,0,0,0,1.023-5.311V43.908a.988.988,0,1,0-1.977,0v6.563a12.269,12.269,0,0,1-.881,4.577L112.247,58.7H96.075l-4.508-5.41a7.011,7.011,0,0,1-1.622-4.48V39.787a1.721,1.721,0,0,1,1.612-1.737,1.674,1.674,0,0,1,1.736,1.673v5.058a.989.989,0,0,0,.289.7L97.907,49.8l1.24,1.24a2.719,2.719,0,0,1,.8,1.934V54.5a.988.988,0,0,0,1.977,0v-.8a.983.983,0,0,0,1.042-.227l6.607-6.607a5.661,5.661,0,0,0,1.669-4.03V31.737a1.674,1.674,0,0,1,1.736-1.673A1.721,1.721,0,0,1,114.59,31.8v7.48a.989.989,0,0,0,.989.988ZM106.43,25.208a1.661,1.661,0,0,1,1.224-.468,1.721,1.721,0,0,1,1.612,1.737V38.517a5.677,5.677,0,0,0-3.348-1.362V26.412a1.661,1.661,0,0,1,.512-1.2Zm-5.836-1.388a1.674,1.674,0,0,1,1.736-1.673,1.721,1.721,0,0,1,1.612,1.737V37.37a5.646,5.646,0,0,0-1.674.8,5.643,5.643,0,0,0-1.674-.8Zm-3.712.92a1.674,1.674,0,0,1,1.736,1.673V37.155a5.679,5.679,0,0,0-3.348,1.362V26.476a1.721,1.721,0,0,1,1.612-1.737ZM91.487,36.075a3.529,3.529,0,0,0-1.542.418v-5.5a3.608,3.608,0,0,0,1.806.4,3.529,3.529,0,0,0,1.542-.418v5.5a3.63,3.63,0,0,0-1.806-.4Zm16.689,9.387-5.908,5.908L96.36,45.462a3.722,3.722,0,0,1,5.22-5.305.988.988,0,0,0,1.375,0,3.737,3.737,0,0,1,5.22.041h0a3.722,3.722,0,0,1,0,5.264Z"/>
    </g>
  </g>
</svg>
