<svg xmlns="http://www.w3.org/2000/svg" xmlns:xlink="http://www.w3.org/1999/xlink" width="98.104" height="98.104" viewBox="0 0 98.104 98.104">
  <defs>
    <filter id="Trazado_904820" x="0" y="0" width="98.104" height="98.104" filterUnits="userSpaceOnUse">
      <feOffset dy="3" input="SourceAlpha"/>
      <feGaussianBlur stdDeviation="3" result="blur"/>
      <feFlood flood-opacity="0.161"/>
      <feComposite operator="in" in2="blur"/>
      <feComposite in="SourceGraphic"/>
    </filter>
  </defs>
  <g id="Grupo_1177473" data-name="Grupo 1177473" transform="translate(-203.896 -1312.948)">
    <g id="Grupo_1177317" data-name="Grupo 1177317" transform="translate(-416.104 786.948)">
      <g id="Grupo_1173585" data-name="Grupo 1173585" transform="translate(629 532)">
        <g id="Grupo_1173428" data-name="Grupo 1173428" transform="translate(0 0)">
          <g id="Grupo_1171958" data-name="Grupo 1171958">
            <g id="Grupo_1167341" data-name="Grupo 1167341">
              <g id="Grupo_1166792" data-name="Grupo 1166792">
                <g transform="matrix(1, 0, 0, 1, -9, -6)" filter="url(#Trazado_904820)">
                  <g id="Trazado_904820-2" data-name="Trazado 904820" transform="translate(9 6)" fill="#effbfe">
                    <path d="M 40.05199813842773 78.60399627685547 C 34.84685516357422 78.60399627685547 29.79819869995117 77.58489227294922 25.04628753662109 75.57500457763672 C 20.45572090148926 73.63336181640625 16.3326530456543 70.85340881347656 12.7916202545166 67.31237030029297 C 9.250587463378906 63.77133941650391 6.47063159942627 59.64828491210938 4.528986930847168 55.05771636962891 C 2.519098043441772 50.30579376220703 1.499998092651367 45.25713729858398 1.499998092651367 40.05199432373047 C 1.499998092651367 34.84685134887695 2.519098043441772 29.79819488525391 4.528986930847168 25.04627227783203 C 6.47063159942627 20.45571708679199 9.250587463378906 16.33264923095703 12.7916202545166 12.79161643981934 C 16.3326530456543 9.250583648681641 20.45572090148926 6.470638751983643 25.04628753662109 4.528994560241699 C 29.79819869995117 2.519105434417725 34.84685516357422 1.500005483627319 40.05199813842773 1.500005483627319 C 45.25714111328125 1.500005483627319 50.3057975769043 2.519105434417725 55.05772018432617 4.528994560241699 C 59.64828872680664 6.470638751983643 63.77134323120117 9.250583648681641 67.3123779296875 12.79161643981934 C 70.85340881347656 16.33264923095703 73.63336181640625 20.45571708679199 75.57501220703125 25.04627227783203 C 77.58489990234375 29.79819488525391 78.60399627685547 34.84685134887695 78.60399627685547 40.05199432373047 C 78.60399627685547 45.25713729858398 77.58489990234375 50.30579376220703 75.57501220703125 55.05771636962891 C 73.63336181640625 59.64828491210938 70.85340881347656 63.77133941650391 67.3123779296875 67.31237030029297 C 63.77134323120117 70.85340881347656 59.64828872680664 73.63336181640625 55.05772018432617 75.57500457763672 C 50.3057975769043 77.58489227294922 45.25714111328125 78.60399627685547 40.05199813842773 78.60399627685547 Z" stroke="none"/>
                    <path d="M 40.05199813842773 2.999992370605469 C 35.04869079589844 2.999992370605469 30.19664001464844 3.979217529296875 25.63061141967773 5.910484313964844 C 21.21883773803711 7.776512145996094 17.25603866577148 10.44851684570312 13.85227966308594 13.85227203369141 C 10.44851684570312 17.25603485107422 7.776519775390625 21.21883392333984 5.910491943359375 25.63060760498047 C 3.979225158691406 30.19663619995117 3 35.04868698120117 3 40.05199432373047 C 3 45.05530166625977 3.979225158691406 49.90735626220703 5.910491943359375 54.47338104248047 C 7.776519775390625 58.88513946533203 10.44851684570312 62.84795379638672 13.85227966308594 66.25170135498047 C 17.25603866577148 69.65546417236328 21.21883773803711 72.32746124267578 25.63061141967773 74.19348907470703 C 30.19664001464844 76.124755859375 35.04869079589844 77.10398101806641 40.05199813842773 77.10398101806641 C 45.05530548095703 77.10398101806641 49.90735626220703 76.124755859375 54.47338485717773 74.19348907470703 C 58.88515853881836 72.32746124267578 62.84795761108398 69.65546417236328 66.25171661376953 66.25170135498047 C 69.65547943115234 62.84795379638672 72.32747650146484 58.88513946533203 74.19350433349609 54.47338104248047 C 76.12477111816406 49.90735626220703 77.10399627685547 45.05530166625977 77.10399627685547 40.05199432373047 C 77.10399627685547 35.04868698120117 76.12477111816406 30.19663619995117 74.19350433349609 25.63060760498047 C 72.32747650146484 21.21883392333984 69.65547943115234 17.25603485107422 66.25171661376953 13.85227203369141 C 62.84795761108398 10.44851684570312 58.88515853881836 7.776512145996094 54.47338485717773 5.910484313964844 C 49.90735626220703 3.979217529296875 45.05530548095703 2.999992370605469 40.05199813842773 2.999992370605469 M 40.05199813842773 -7.62939453125e-06 C 62.17210388183594 -7.62939453125e-06 80.10399627685547 17.93188858032227 80.10399627685547 40.05199432373047 C 80.10399627685547 62.17210006713867 62.17210388183594 80.10398101806641 40.05199813842773 80.10398101806641 C 17.93189239501953 80.10398101806641 0 62.17210006713867 0 40.05199432373047 C 0 17.93188858032227 17.93189239501953 -7.62939453125e-06 40.05199813842773 -7.62939453125e-06 Z" stroke="none" fill="#497f88"/>
                  </g>
                </g>
              </g>
            </g>
          </g>
        </g>
      </g>
    </g>
    <g id="Page-1" transform="translate(227.588 1334.938)">
      <g id="_031---Copywriting-Presentation" data-name="031---Copywriting-Presentation" transform="translate(0 0)">
        <path id="Shape" d="M42.264,8.671v6.683H31.4a1.676,1.676,0,0,0-1.671,1.671V32.9H3V8.671A1.676,1.676,0,0,1,4.671,7h11.7v.835a1.676,1.676,0,0,0,1.671,1.671h9.189A1.676,1.676,0,0,0,28.9,7.835V7h11.7A1.676,1.676,0,0,1,42.264,8.671Z" transform="translate(-0.494 -1.152)" fill="#607d8b"/>
        <path id="Shape-2" data-name="Shape" d="M47.506,7H45a1.676,1.676,0,0,1,1.671,1.671v6.683h2.506V8.671A1.676,1.676,0,0,0,47.506,7Z" transform="translate(-7.407 -1.152)" fill="#37474f"/>
        <path id="Shape-3" data-name="Shape" d="M32,18.671V34.543h2.506V18.671A1.676,1.676,0,0,1,36.177,17H33.671A1.676,1.676,0,0,0,32,18.671Z" transform="translate(-5.267 -2.798)" fill="#37474f"/>
        <path id="Shape-4" data-name="Shape" d="M29.4,38v4.177H3.506A2.506,2.506,0,0,1,1,39.671v-.835A.835.835,0,0,1,1.835,38Z" transform="translate(-0.165 -6.255)" fill="#825a2c"/>
        <path id="Rectangle-path" d="M32,38h2.506v4.177H32Z" transform="translate(-5.267 -6.255)" fill="#624421"/>
        <path id="Shape-5" data-name="Shape" d="M31.531,5.494V6.848A1.676,1.676,0,0,1,29.86,8.519H20.671A1.676,1.676,0,0,1,19,6.848V5.494A2.757,2.757,0,0,1,20.888,2.88a2.826,2.826,0,0,0,1.078-.668l.4-.4A2.763,2.763,0,0,1,24.321,1H26.21a2.763,2.763,0,0,1,1.955.81l.4.4a2.826,2.826,0,0,0,1.078.668,2.743,2.743,0,0,1,1.888,2.615Z" transform="translate(-3.127 -0.165)" fill="#ffdc00"/>
        <path id="Shape-6" data-name="Shape" d="M32,3.882a2.781,2.781,0,0,0-1.37-1,2.826,2.826,0,0,1-1.078-.668l-.4-.4A2.763,2.763,0,0,0,27.2,1H25.309A2.728,2.728,0,0,0,25,1.031a2.752,2.752,0,0,1,1.646.779l.4.4a2.826,2.826,0,0,0,1.078.668,2.743,2.743,0,0,1,1.888,2.615V6.848a1.676,1.676,0,0,1-1.671,1.671h2.506a1.676,1.676,0,0,0,1.671-1.671V5.494A2.789,2.789,0,0,0,32,3.882Z" transform="translate(-4.115 -0.165)" fill="#fec108"/>
        <path id="Shape-7" data-name="Shape" d="M21.262,43,16.451,55.823a.83.83,0,0,1-.777.543h-2.4a.83.83,0,0,1-.777-1.128L17.085,43Z" transform="translate(-2.048 -7.078)" fill="sienna"/>
        <path id="Shape-8" data-name="Shape" d="M28.177,43V55.531a.835.835,0,0,1-.835.835H24.835A.835.835,0,0,1,24,55.531V43Z" transform="translate(-3.95 -7.078)" fill="sienna"/>
        <path id="Shape-9" data-name="Shape" d="M24.708,22.354A8.354,8.354,0,1,1,16.354,14v8.354Z" transform="translate(-1.317 -2.304)" fill="#f5f5f5"/>
        <path id="Shape-10" data-name="Shape" d="M23.6,24a8.341,8.341,0,0,1-7.1,8.252A8.346,8.346,0,0,0,26.107,24Z" transform="translate(-2.716 -3.95)" fill="#cfd8dc"/>
        <path id="Shape-11" data-name="Shape" d="M26.354,22.354H18V14a8.354,8.354,0,0,1,8.354,8.354Z" transform="translate(-2.963 -2.304)" fill="#e91e63"/>
        <path id="Shape-12" data-name="Shape" d="M23.906,16.448A8.331,8.331,0,0,0,18,14v.389a8.346,8.346,0,0,1,5.848,7.965h2.506A8.331,8.331,0,0,0,23.906,16.448Z" transform="translate(-2.963 -2.304)" fill="#bb193b"/>
        <rect id="Rectangle-path-2" data-name="Rectangle-path" width="20" height="29" rx="2" transform="translate(29.062 14.062)" fill="#f5f5f5"/>
        <path id="Shape-13" data-name="Shape" d="M56.506,17H54a1.676,1.676,0,0,1,1.671,1.671v25.9A1.676,1.676,0,0,1,54,46.239h2.506a1.676,1.676,0,0,0,1.671-1.671v-25.9A1.676,1.676,0,0,0,56.506,17Z" transform="translate(-8.888 -2.798)" fill="#cfd8dc"/>
        <path id="Shape-14" data-name="Shape" d="M45.347,26.022l-1.5-1.128a.835.835,0,0,0-1,0l-1.5,1.128A.835.835,0,0,1,40,25.354V17h6.683v8.354a.835.835,0,0,1-1.337.668Z" transform="translate(-6.584 -2.798)" fill="#ef314c"/>
        <g id="Grupo_1177472" data-name="Grupo 1177472">
          <path id="Shape-15" data-name="Shape" d="M24.835,6.671h2.506a.835.835,0,1,0,0-1.671H24.835a.835.835,0,0,0,0,1.671Z" transform="translate(-3.95 -0.823)"/>
          <path id="Shape-16" data-name="Shape" d="M25.373,22.169a9.173,9.173,0,0,0-9.166-9.164c-.007,0-.012,0-.018,0s-.012,0-.018,0a9.189,9.189,0,1,0,9.2,9.205V22.19Zm-1.72-.815H17.024V14.725A7.484,7.484,0,0,1,23.653,21.354ZM21.5,27.506a7.519,7.519,0,1,1-6.152-12.781V22.19a.835.835,0,0,0,.835.835h7.464A7.475,7.475,0,0,1,21.5,27.506Z" transform="translate(-1.151 -2.14)"/>
          <path id="Shape-17" data-name="Shape" d="M47.618,13.366H42.605V7.519A2.506,2.506,0,0,0,40.1,5.012H29.214A3.583,3.583,0,0,0,26.78,1.921a1.933,1.933,0,0,1-.752-.465l-.4-.4A3.573,3.573,0,0,0,23.083,0h-1.89A3.573,3.573,0,0,0,18.65,1.053l-.4.4a1.931,1.931,0,0,1-.752.465,3.584,3.584,0,0,0-2.435,3.093H4.177A2.506,2.506,0,0,0,1.671,7.519V30.91A1.671,1.671,0,0,0,0,32.581v.835a3.342,3.342,0,0,0,3.342,3.342h10.49L9.666,47.868a1.671,1.671,0,0,0,1.565,2.256h2.393a1.678,1.678,0,0,0,1.565-1.086L19.214,38.3V48.453a1.671,1.671,0,0,0,1.671,1.671h2.506a1.671,1.671,0,0,0,1.671-1.671v-11.7H28.4V41.77a2.506,2.506,0,0,0,2.506,2.506H47.618a2.506,2.506,0,0,0,2.506-2.506v-25.9A2.506,2.506,0,0,0,47.618,13.366Zm-8.349,9.189h-.005l-1.5-1.127a1.677,1.677,0,0,0-2,0l-1.5,1.127V15.037h5.012ZM16.708,5.332a1.921,1.921,0,0,1,1.317-1.823,3.612,3.612,0,0,0,1.406-.869l.4-.4a1.913,1.913,0,0,1,1.362-.568h1.89a1.913,1.913,0,0,1,1.362.564l.4.4a3.612,3.612,0,0,0,1.406.873,1.921,1.921,0,0,1,1.317,1.823V6.683a.835.835,0,0,1-.835.835H17.543a.835.835,0,0,1-.835-.835ZM3.342,7.519a.835.835,0,0,1,.835-.835h10.86a2.506,2.506,0,0,0,2.506,2.506h9.189a2.506,2.506,0,0,0,2.506-2.506H40.1a.835.835,0,0,1,.835.835v5.848H30.91A2.506,2.506,0,0,0,28.4,15.873V30.91H3.342ZM13.623,48.453H11.23l4.386-11.7h2.393Zm9.768,0H20.885v-11.7h2.506Zm.835-13.366H3.342a1.671,1.671,0,0,1-1.671-1.671v-.835H28.4v2.506ZM48.453,41.77a.835.835,0,0,1-.835.835H30.91a.835.835,0,0,1-.835-.835v-25.9a.835.835,0,0,1,.835-.835h1.671v7.519a1.671,1.671,0,0,0,2.673,1.337l1.5-1.128,1.5,1.128a1.671,1.671,0,0,0,2.673-1.337V15.037h6.683a.835.835,0,0,1,.835.835Z" transform="translate(0 0)"/>
          <path id="Shape-18" data-name="Shape" d="M51.531,31h-11.7a.835.835,0,1,0,0,1.671h11.7a.835.835,0,1,0,0-1.671Z" transform="translate(-6.419 -5.103)"/>
          <path id="Shape-19" data-name="Shape" d="M51.531,36h-11.7a.835.835,0,1,0,0,1.671h11.7a.835.835,0,0,0,0-1.671Z" transform="translate(-6.419 -5.926)"/>
          <path id="Shape-20" data-name="Shape" d="M51.531,41h-11.7a.835.835,0,1,0,0,1.671h11.7a.835.835,0,0,0,0-1.671Z" transform="translate(-6.419 -6.749)"/>
          <path id="Shape-21" data-name="Shape" d="M51.531,46h-11.7a.835.835,0,1,0,0,1.671h11.7a.835.835,0,0,0,0-1.671Z" transform="translate(-6.419 -7.572)"/>
        </g>
      </g>
    </g>
  </g>
</svg>
