<svg xmlns="http://www.w3.org/2000/svg" xmlns:xlink="http://www.w3.org/1999/xlink" width="98.104" height="98.104" viewBox="0 0 98.104 98.104">
  <defs>
    <filter id="Trazado_904820" x="0" y="0" width="98.104" height="98.104" filterUnits="userSpaceOnUse">
      <feOffset dy="3" input="SourceAlpha"/>
      <feGaussianBlur stdDeviation="3" result="blur"/>
      <feFlood flood-opacity="0.161"/>
      <feComposite operator="in" in2="blur"/>
      <feComposite in="SourceGraphic"/>
    </filter>
  </defs>
  <g id="Grupo_1177474" data-name="Grupo 1177474" transform="translate(-203.896 -1418.896)">
    <g id="Grupo_1177318" data-name="Grupo 1177318" transform="translate(-416.104 892.896)">
      <g id="Grupo_1173585" data-name="Grupo 1173585" transform="translate(629 532)">
        <g id="Grupo_1173428" data-name="Grupo 1173428" transform="translate(0 0)">
          <g id="Grupo_1171958" data-name="Grupo 1171958">
            <g id="Grupo_1167341" data-name="Grupo 1167341">
              <g id="Grupo_1166792" data-name="Grupo 1166792">
                <g transform="matrix(1, 0, 0, 1, -9, -6)" filter="url(#Trazado_904820)">
                  <g id="Trazado_904820-2" data-name="Trazado 904820" transform="translate(9 6)" fill="#effbfe">
                    <path d="M 40.05199813842773 78.60399627685547 C 34.84685516357422 78.60399627685547 29.79819869995117 77.58489227294922 25.04628753662109 75.57500457763672 C 20.45572090148926 73.63336181640625 16.3326530456543 70.85340881347656 12.7916202545166 67.31237030029297 C 9.250587463378906 63.77133941650391 6.47063159942627 59.64828491210938 4.528986930847168 55.05771636962891 C 2.519098043441772 50.30579376220703 1.499998092651367 45.25713729858398 1.499998092651367 40.05199432373047 C 1.499998092651367 34.84685134887695 2.519098043441772 29.79819488525391 4.528986930847168 25.04627227783203 C 6.47063159942627 20.45571708679199 9.250587463378906 16.33264923095703 12.7916202545166 12.79161643981934 C 16.3326530456543 9.250583648681641 20.45572090148926 6.470638751983643 25.04628753662109 4.528994560241699 C 29.79819869995117 2.519105434417725 34.84685516357422 1.500005483627319 40.05199813842773 1.500005483627319 C 45.25714111328125 1.500005483627319 50.3057975769043 2.519105434417725 55.05772018432617 4.528994560241699 C 59.64828872680664 6.470638751983643 63.77134323120117 9.250583648681641 67.3123779296875 12.79161643981934 C 70.85340881347656 16.33264923095703 73.63336181640625 20.45571708679199 75.57501220703125 25.04627227783203 C 77.58489990234375 29.79819488525391 78.60399627685547 34.84685134887695 78.60399627685547 40.05199432373047 C 78.60399627685547 45.25713729858398 77.58489990234375 50.30579376220703 75.57501220703125 55.05771636962891 C 73.63336181640625 59.64828491210938 70.85340881347656 63.77133941650391 67.3123779296875 67.31237030029297 C 63.77134323120117 70.85340881347656 59.64828872680664 73.63336181640625 55.05772018432617 75.57500457763672 C 50.3057975769043 77.58489227294922 45.25714111328125 78.60399627685547 40.05199813842773 78.60399627685547 Z" stroke="none"/>
                    <path d="M 40.05199813842773 2.999992370605469 C 35.04869079589844 2.999992370605469 30.19664001464844 3.979217529296875 25.63061141967773 5.910484313964844 C 21.21883773803711 7.776512145996094 17.25603866577148 10.44851684570312 13.85227966308594 13.85227203369141 C 10.44851684570312 17.25603485107422 7.776519775390625 21.21883392333984 5.910491943359375 25.63060760498047 C 3.979225158691406 30.19663619995117 3 35.04868698120117 3 40.05199432373047 C 3 45.05530166625977 3.979225158691406 49.90735626220703 5.910491943359375 54.47338104248047 C 7.776519775390625 58.88513946533203 10.44851684570312 62.84795379638672 13.85227966308594 66.25170135498047 C 17.25603866577148 69.65546417236328 21.21883773803711 72.32746124267578 25.63061141967773 74.19348907470703 C 30.19664001464844 76.124755859375 35.04869079589844 77.10398101806641 40.05199813842773 77.10398101806641 C 45.05530548095703 77.10398101806641 49.90735626220703 76.124755859375 54.47338485717773 74.19348907470703 C 58.88515853881836 72.32746124267578 62.84795761108398 69.65546417236328 66.25171661376953 66.25170135498047 C 69.65547943115234 62.84795379638672 72.32747650146484 58.88513946533203 74.19350433349609 54.47338104248047 C 76.12477111816406 49.90735626220703 77.10399627685547 45.05530166625977 77.10399627685547 40.05199432373047 C 77.10399627685547 35.04868698120117 76.12477111816406 30.19663619995117 74.19350433349609 25.63060760498047 C 72.32747650146484 21.21883392333984 69.65547943115234 17.25603485107422 66.25171661376953 13.85227203369141 C 62.84795761108398 10.44851684570312 58.88515853881836 7.776512145996094 54.47338485717773 5.910484313964844 C 49.90735626220703 3.979217529296875 45.05530548095703 2.999992370605469 40.05199813842773 2.999992370605469 M 40.05199813842773 -7.62939453125e-06 C 62.17210388183594 -7.62939453125e-06 80.10399627685547 17.93188858032227 80.10399627685547 40.05199432373047 C 80.10399627685547 62.17210006713867 62.17210388183594 80.10398101806641 40.05199813842773 80.10398101806641 C 17.93189239501953 80.10398101806641 0 62.17210006713867 0 40.05199432373047 C 0 17.93188858032227 17.93189239501953 -7.62939453125e-06 40.05199813842773 -7.62939453125e-06 Z" stroke="none" fill="#497f88"/>
                  </g>
                </g>
              </g>
            </g>
          </g>
        </g>
      </g>
    </g>
    <g id="FillOutline" transform="translate(225.599 1438.25)">
      <path id="Trazado_1035263" data-name="Trazado 1035263" d="M0,0H37.87V32.107H0Z" transform="translate(8.116 7.763)" fill="#e6e6e6"/>
      <rect id="Rectángulo_416046" data-name="Rectángulo 416046" width="42" height="4" transform="translate(6.051 5.698)" fill="#196aaf"/>
      <rect id="Rectángulo_416047" data-name="Rectángulo 416047" width="12" height="5" transform="translate(11.051 31.698)" fill="#56a8c6"/>
      <path id="Trazado_1035255" data-name="Trazado 1035255" d="M38.293,29,35,30.647l3.293,1.647H39.94V29Z" transform="translate(-5.479 -4.772)" fill="#196aaf"/>
      <path id="Trazado_1035256" data-name="Trazado 1035256" d="M54.172,29H41v3.293H54.172a1.647,1.647,0,0,0,0-3.293Z" transform="translate(-6.54 -4.772)" fill="#56a8c6"/>
      <rect id="Rectángulo_416048" data-name="Rectángulo 416048" width="23" height="5" transform="translate(26.051 31.698)" fill="#196aaf"/>
      <path id="Trazado_1035257" data-name="Trazado 1035257" d="M25.525,21.111V18.775a8.233,8.233,0,1,0-6.586,0v2.336Z" transform="translate(-1.767 -0.176)" fill="#f7931e"/>
      <path id="Trazado_1035258" data-name="Trazado 1035258" d="M20,29l1.646,3.293H24.94L26.586,29Z" transform="translate(-2.828 -4.772)" fill="#6e6350"/>
      <rect id="Rectángulo_416049" data-name="Rectángulo 416049" width="9" height="4" transform="translate(16.051 20.698)" fill="#95866d"/>
      <path id="Trazado_1035259" data-name="Trazado 1035259" d="M24.349,37H12.823a.823.823,0,0,0-.823.823v4.939a.823.823,0,0,0,.823.823H24.349a.823.823,0,0,0,.823-.823V37.823A.823.823,0,0,0,24.349,37Zm-.823,4.94H13.647V38.646h9.879Z" transform="translate(-1.414 -6.186)"/>
      <path id="Trazado_1035260" data-name="Trazado 1035260" d="M7.293,48.935h2.47V47.288H7.293a1.647,1.647,0,0,1-1.647-1.646V30H4V45.642A3.293,3.293,0,0,0,7.293,48.935Z" transform="translate(0 -4.949)"/>
      <rect id="Rectángulo_416050" data-name="Rectángulo 416050" width="16" height="2" transform="translate(30.051 1.698)"/>
      <rect id="Rectángulo_416051" data-name="Rectángulo 416051" width="11" height="1" transform="translate(35.051 42.698)"/>
      <path id="Trazado_1035261" data-name="Trazado 1035261" d="M47.986,28.344a2.47,2.47,0,0,0,0-4.94h-.823V10.233h.823a.823.823,0,0,0,.823-.823V6.116a.823.823,0,0,0-.823-.823H27.8a9.045,9.045,0,0,0-13.961,0H6.823A.823.823,0,0,0,6,6.116V9.409a.823.823,0,0,0,.823.823h.823V39.87a.823.823,0,0,0,.823.823H26.581v2.952l-6.1,6.1H12.586V51.4H42.223V49.749H34.331l-6.1-6.1V40.693H46.339a.823.823,0,0,0,.823-.823V37.4h2.47a.823.823,0,0,0,.823-.823v-4.94a.823.823,0,0,0-.823-.823h-2.47v-2.47Zm-25.18,21.4,3.775-3.775v3.775Zm9.2,0H28.228V45.973ZM48.809,25.874a.823.823,0,0,1-.823.823H35.637V25.051H47.986A.823.823,0,0,1,48.809,25.874ZM33.362,26.7l-1.647-.823,1.647-.823h.629V26.7ZM47.163,6.94V8.586H29.524a9.034,9.034,0,0,0-.649-1.647ZM20.819,3.647a7.409,7.409,0,0,1,2.964,14.2.823.823,0,0,0-.494.754v1.513H21.642V16.336l3.052-3.052L23.529,12.12l-2.711,2.711L18.108,12.12l-1.164,1.164L20,16.336v3.775H18.349V18.6a.823.823,0,0,0-.494-.754,7.409,7.409,0,0,1,2.964-14.2Zm3.293,18.112V23.4H17.526V21.758Zm-1.332,3.293L21.956,26.7H19.681l-.823-1.647ZM7.647,6.94h5.116a9.034,9.034,0,0,0-.649,1.646H7.647ZM48.809,35.753H27.4V32.46h1.647v1.647H30.7V32.46h1.647v1.647h1.646V32.46h1.646v1.647h1.646V32.46H38.93v1.647h1.647V32.46h1.646v1.647H43.87V32.46h1.647v1.647h1.646V32.46h1.646Zm-3.293-4.94H26.581a.823.823,0,0,0-.823.823v4.94a.823.823,0,0,0,.823.823H45.516v1.647H9.293V10.233H11.8c-.025.272-.042.545-.042.823A9.056,9.056,0,0,0,16.7,19.124v.987a.823.823,0,0,0-.823.823v3.293a.823.823,0,0,0,.823.823h.314l1.418,2.838a.823.823,0,0,0,.737.455h3.293a.823.823,0,0,0,.737-.455l1.418-2.838h.314a.823.823,0,0,0,.823-.823V20.935a.823.823,0,0,0-.823-.823v-.988a9.056,9.056,0,0,0,4.94-8.068c0-.278-.017-.552-.042-.823H45.516V23.4H33.167a.823.823,0,0,0-.368.086l-3.293,1.646a.823.823,0,0,0,0,1.474L32.8,28.258a.823.823,0,0,0,.368.086H45.516Z" transform="translate(-0.353 0)"/>
      <path id="Trazado_1035262" data-name="Trazado 1035262" d="M26.181,8.408a4.087,4.087,0,0,1,1.674,2.669l1.623-.275a5.763,5.763,0,0,0-6.645-4.72l.275,1.623a4.088,4.088,0,0,1,3.073.7Z" transform="translate(-3.329 -0.707)"/>
      <rect id="Rectángulo_416052" data-name="Rectángulo 416052" width="2" height="2" transform="translate(32.051 12.698)"/>
      <rect id="Rectángulo_416053" data-name="Rectángulo 416053" width="8" height="2" transform="translate(35.051 12.698)"/>
      <rect id="Rectángulo_416054" data-name="Rectángulo 416054" width="11" height="2" transform="translate(32.051 15.698)"/>
      <rect id="Rectángulo_416055" data-name="Rectángulo 416055" width="11" height="1" transform="translate(32.051 19.698)"/>
      <rect id="Rectángulo_416056" data-name="Rectángulo 416056" width="2" height="2" transform="translate(4.051 21.698)"/>
      <rect id="Rectángulo_416057" data-name="Rectángulo 416057" width="2" height="2" transform="translate(9.051 49.698)"/>
    </g>
  </g>
</svg>
