<svg xmlns="http://www.w3.org/2000/svg" width="401" height="170.118" viewBox="0 0 401 170.118">
  <g id="Grupo_1177672" data-name="Grupo 1177672" transform="translate(-1019.183 -277.882)">
    <g id="Grupo_1177451" data-name="Grupo 1177451" transform="translate(-202.787 -3879)">
      <rect id="Rect치ngulo_416021" data-name="Rect치ngulo 416021" width="401" height="122" transform="translate(1221.97 4187)" fill="#27454a"/>
      <rect id="Rect치ngulo_416022" data-name="Rect치ngulo 416022" width="341" height="158" transform="translate(1251.97 4169)" fill="#c3f3fb"/>
    </g>
    <g id="teacher_5190740_1_" data-name="teacher_5190740 (1)" transform="translate(1129.074 263.907)">
      <path id="Trazado_1035582" data-name="Trazado 1035582" d="M201.99,361.325a1.757,1.757,0,0,1-1.757-1.757v-47.26a15.885,15.885,0,0,1-9.375,3.046h-1.786v13.78a1.757,1.757,0,0,1-2.639,1.52l-15.808-9.173a1.758,1.758,0,0,0-1.764,0l-15.809,9.173a1.757,1.757,0,0,1-2.639-1.52v-13.78h-1.786a15.886,15.886,0,0,1-9.375-3.046v47.26a1.757,1.757,0,0,1-1.757,1.757H123v11.859a1.757,1.757,0,0,0,1.757,1.757h89.971a1.757,1.757,0,0,0,1.757-1.757V361.325Z" transform="translate(-79.772 -193.484)" fill="#ffd15b"/>
      <path id="Trazado_1035583" data-name="Trazado 1035583" d="M137.058,463.639V451.78H123v11.859a1.757,1.757,0,0,0,1.757,1.757h14.058A1.757,1.757,0,0,1,137.058,463.639Z" transform="translate(-79.772 -283.939)" fill="#fdb441"/>
      <path id="Trazado_1035584" data-name="Trazado 1035584" d="M242.56,337.97a1.757,1.757,0,0,0-1.764,0l-6.879,3.991,6.111,16.662a1.757,1.757,0,0,0,3.3,0l6.111-16.662Z" transform="translate(-151.707 -209.974)" fill="#fff"/>
      <path id="Trazado_1035585" data-name="Trazado 1035585" d="M197.638,25.75a20.247,20.247,0,0,0-12.466-4.274h-7.654A27.018,27.018,0,0,0,150.5,48.494v56.718h4.83a1.757,1.757,0,0,1,1.757,1.757v16.719a15.885,15.885,0,0,0,9.375,3.046h1.786V115.017a1.758,1.758,0,0,1,.774-1.457l7.7-5.2a24.647,24.647,0,0,0,8.71,1.583h4.29a24.657,24.657,0,0,0,8.71-1.583l7.7,5.2a1.758,1.758,0,0,1,.774,1.457v11.718h1.786a15.885,15.885,0,0,0,9.375-3.046V106.969a1.757,1.757,0,0,1,1.757-1.757h4.83V52.767A27.018,27.018,0,0,0,197.638,25.75Z" transform="translate(-97.607 -4.865)" fill="#fe7701"/>
      <g id="Grupo_1177596" data-name="Grupo 1177596" transform="translate(52.893 16.611)">
        <path id="Trazado_1035586" data-name="Trazado 1035586" d="M153.777,69.1h6.944c0,.017,0,.033,0,.05a7.585,7.585,0,0,1,6.827-7.547V48.494a27.02,27.02,0,0,1,22-26.544,20.356,20.356,0,0,0-4.369-.473h-7.654A27.018,27.018,0,0,0,150.5,48.494V69.644A10.075,10.075,0,0,1,153.777,69.1Z" transform="translate(-150.5 -21.476)" fill="#f46700"/>
        <path id="Trazado_1035587" data-name="Trazado 1035587" d="M168.248,245.69a15.959,15.959,0,0,1-.7-4.695v-8.5a24.685,24.685,0,0,1-5.713-9.686h-8.055a10.074,10.074,0,0,1-3.277-.547v13.169h4.83a1.758,1.758,0,0,1,1.757,1.757v16.719a15.885,15.885,0,0,0,9.375,3.046h1.786Z" transform="translate(-150.5 -151.699)" fill="#f46700"/>
      </g>
      <path id="Trazado_1035588" data-name="Trazado 1035588" d="M238.885,273.9l-7.7-5.2a24.648,24.648,0,0,1-8.71,1.583h-4.29a24.657,24.657,0,0,1-8.71-1.583l-7.7,5.2a1.757,1.757,0,0,0-.774,1.457v25.5a1.757,1.757,0,0,0,2.639,1.52l15.808-9.173a1.758,1.758,0,0,1,1.764,0l15.809,9.173a1.757,1.757,0,0,0,2.639-1.52v-25.5A1.757,1.757,0,0,0,238.885,273.9Z" transform="translate(-130.359 -165.204)" fill="#eaf6ff"/>
      <path id="Trazado_1035589" data-name="Trazado 1035589" d="M209.475,268.7l-7.7,5.2a1.757,1.757,0,0,0-.774,1.457v25.5a1.757,1.757,0,0,0,2.639,1.52l6.147-3.567V275.356a1.758,1.758,0,0,1,.774-1.457l5.5-3.71A24.569,24.569,0,0,1,209.475,268.7Z" transform="translate(-130.359 -165.204)" fill="#d8ecfe"/>
      <path id="Trazado_1035590" data-name="Trazado 1035590" d="M239.354,270.728h-4.29a24.667,24.667,0,0,1-8.038-1.344v12.86l10.183,10.887,10.182-10.887v-12.86A24.667,24.667,0,0,1,239.354,270.728Z" transform="translate(-147.239 -165.646)" fill="#fed2a4"/>
      <path id="Trazado_1035591" data-name="Trazado 1035591" d="M235.823,270.728h-.758a24.667,24.667,0,0,1-8.038-1.344v12.86l10.183,10.887,5.727-6.123-7.114-7.606Z" transform="translate(-147.239 -165.646)" fill="#ffbd86"/>
      <g id="Grupo_1177597" data-name="Grupo 1177597" transform="translate(46.08 64.232)">
        <path id="Trazado_1035592" data-name="Trazado 1035592" d="M148.146,173.11V157.025c0-.017,0-.033,0-.05h-6.944a10.09,10.09,0,0,0-10.09,10.09v3.312a10.09,10.09,0,0,0,10.09,10.09h8.055A24.692,24.692,0,0,1,148.146,173.11Z" transform="translate(-131.115 -156.975)" fill="#ffe5c2"/>
        <path id="Trazado_1035593" data-name="Trazado 1035593" d="M337.31,156.976h-6.941v16.135a24.7,24.7,0,0,1-1.114,7.358h8.055a10.09,10.09,0,0,0,10.09-10.09v-3.312A10.09,10.09,0,0,0,337.31,156.976Z" transform="translate(-259.619 -156.976)" fill="#ffe5c2"/>
      </g>
      <g id="Grupo_1177598" data-name="Grupo 1177598" transform="translate(63.112 47.169)">
        <path id="Trazado_1035594" data-name="Trazado 1035594" d="M220.382,109.889a7.491,7.491,0,0,1,8.845-.039,10.086,10.086,0,0,1,4.068,8.1v23.67a24.714,24.714,0,0,1-24.714,24.714h-4.29a24.714,24.714,0,0,1-24.714-24.714V125.538a7.585,7.585,0,0,1,7.585-7.585H206.79a7.584,7.584,0,0,0,4.449-1.442Z" transform="translate(-179.577 -108.425)" fill="#ffe5c2"/>
      </g>
      <g id="Grupo_1177600" data-name="Grupo 1177600" transform="translate(63.112 56.697)">
        <g id="Grupo_1177599" data-name="Grupo 1177599">
          <path id="Trazado_1035595" data-name="Trazado 1035595" d="M191.376,159.206V143.121a7.585,7.585,0,0,1,7.585-7.585h-11.8a7.585,7.585,0,0,0-7.585,7.585v16.085a24.715,24.715,0,0,0,24.714,24.715h4.29a24.923,24.923,0,0,0,3.755-.284A24.721,24.721,0,0,1,191.376,159.206Z" transform="translate(-179.576 -135.536)" fill="#fed2a4"/>
        </g>
      </g>
      <path id="Trazado_1035596" data-name="Trazado 1035596" d="M226.277,216.388a1.616,1.616,0,0,0-1.594,1.9,10.276,10.276,0,0,0,10.1,8.371h1.783a10.276,10.276,0,0,0,10.1-8.371,1.615,1.615,0,0,0-1.594-1.9Z" transform="translate(-145.701 -131.275)" fill="#fff"/>
      <g id="Grupo_1177604" data-name="Grupo 1177604" transform="translate(2.636 100.347)">
        <g id="Grupo_1177601" data-name="Grupo 1177601" transform="translate(4.479)">
          <path id="Trazado_1035597" data-name="Trazado 1035597" d="M70.852,259.736H22a1.757,1.757,0,0,0-1.757,1.757v50.128h7.643a4.04,4.04,0,0,1,4.04,4.04V327.23H70.851a1.757,1.757,0,0,0,1.757-1.757V261.493a1.757,1.757,0,0,0-1.757-1.757Z" transform="translate(-20.243 -259.736)" fill="#d8ecfe"/>
          <path id="Trazado_1035598" data-name="Trazado 1035598" d="M34.567,325.472V261.493a1.757,1.757,0,0,1,1.757-1.757H22a1.757,1.757,0,0,0-1.757,1.757v50.128h7.643a4.04,4.04,0,0,1,4.04,4.04V327.23h4.4A1.757,1.757,0,0,1,34.567,325.472Z" transform="translate(-20.243 -259.736)" fill="#c4e2ff"/>
        </g>
        <g id="Grupo_1177602" data-name="Grupo 1177602" transform="translate(0 51.886)">
          <path id="Trazado_1035599" data-name="Trazado 1035599" d="M19.621,427.976H11.54a4.04,4.04,0,0,1-4.04-4.04V411.41a4.04,4.04,0,0,1,4.04-4.04h8.081a4.04,4.04,0,0,1,4.04,4.04v12.525A4.04,4.04,0,0,1,19.621,427.976Z" transform="translate(-7.5 -407.37)" fill="#ffe5c2"/>
        </g>
        <g id="Grupo_1177603" data-name="Grupo 1177603" transform="translate(0 51.886)">
          <path id="Trazado_1035600" data-name="Trazado 1035600" d="M15.759,423.935V411.41a4.038,4.038,0,0,1,3.951-4.036c-.03,0-.059,0-.089,0H11.54a4.04,4.04,0,0,0-4.04,4.04v12.525a4.04,4.04,0,0,0,4.04,4.04h8.081c.03,0,.059,0,.089,0A4.038,4.038,0,0,1,15.759,423.935Z" transform="translate(-7.5 -407.37)" fill="#fed2a4"/>
        </g>
      </g>
      <g id="Grupo_1177613" data-name="Grupo 1177613" transform="translate(120.461 100.347)">
        <g id="Grupo_1177610" data-name="Grupo 1177610">
          <path id="Trazado_1035601" data-name="Trazado 1035601" d="M383.44,315.662a4.04,4.04,0,0,1,4.04-4.04h7.642V261.493a1.757,1.757,0,0,0-1.757-1.757H344.514a1.757,1.757,0,0,0-1.757,1.757v63.979a1.757,1.757,0,0,0,1.757,1.757H383.44V315.662Z" transform="translate(-342.757 -259.736)" fill="#0593fc"/>
          <g id="Grupo_1177605" data-name="Grupo 1177605">
            <path id="Trazado_1035602" data-name="Trazado 1035602" d="M358.306,325.472V261.493a1.757,1.757,0,0,1,1.757-1.757H344.514a1.757,1.757,0,0,0-1.757,1.757v63.979a1.757,1.757,0,0,0,1.757,1.757h15.549A1.757,1.757,0,0,1,358.306,325.472Z" transform="translate(-342.757 -259.736)" fill="#0182fc"/>
          </g>
          <g id="Grupo_1177609" data-name="Grupo 1177609" transform="translate(9.676 17.904)">
            <path id="Trazado_1035603" data-name="Trazado 1035603" d="M395.995,327.209a7.775,7.775,0,0,1-9.05,5.686,7.79,7.79,0,0,1-.144-1.309l0,.007c-2.078-2.938-5.09-4.73-8.239-4.513-5.271.364-8.928,6.216-8.168,13.071s5.65,12.117,10.922,11.753h10.971c5.271.364,10.161-4.9,10.922-11.753C403.917,333.719,400.742,328.171,395.995,327.209Z" transform="translate(-370.289 -321.304)" fill="#fb2b3a"/>
            <g id="Grupo_1177607" data-name="Grupo 1177607" transform="translate(0 5.757)">
              <g id="Grupo_1177606" data-name="Grupo 1177606">
                <path id="Trazado_1035604" data-name="Trazado 1035604" d="M382.259,340.149a13.346,13.346,0,0,1,2.925-10.426,8.787,8.787,0,0,0-6.627-2.644c-5.271.364-8.928,6.216-8.168,13.071s5.65,12.117,10.922,11.753h10.853C387.294,351.577,382.97,346.56,382.259,340.149Z" transform="translate(-370.289 -327.061)" fill="#e41f2d"/>
              </g>
            </g>
            <g id="Grupo_1177608" data-name="Grupo 1177608" transform="translate(14.183)">
              <ellipse id="Elipse_12480" data-name="Elipse 12480" cx="6.47" cy="3.459" rx="6.47" ry="3.459" transform="translate(0 9.149) rotate(-45)" fill="#97d729"/>
            </g>
          </g>
        </g>
        <g id="Grupo_1177611" data-name="Grupo 1177611" transform="translate(40.683 51.886)">
          <path id="Trazado_1035605" data-name="Trazado 1035605" d="M470.636,427.976h-8.081a4.04,4.04,0,0,1-4.04-4.04V411.41a4.04,4.04,0,0,1,4.04-4.04h8.081a4.04,4.04,0,0,1,4.04,4.04v12.525A4.04,4.04,0,0,1,470.636,427.976Z" transform="translate(-458.515 -407.37)" fill="#ffe5c2"/>
        </g>
        <g id="Grupo_1177612" data-name="Grupo 1177612" transform="translate(40.683 51.886)">
          <path id="Trazado_1035606" data-name="Trazado 1035606" d="M466.774,423.935V411.41a4.038,4.038,0,0,1,3.951-4.036c-.03,0-.059,0-.089,0h-8.081a4.04,4.04,0,0,0-4.04,4.04v12.525a4.04,4.04,0,0,0,4.04,4.04h8.081c.03,0,.06,0,.089,0A4.038,4.038,0,0,1,466.774,423.935Z" transform="translate(-458.515 -407.37)" fill="#fed2a4"/>
        </g>
      </g>
      <g id="Grupo_1177614" data-name="Grupo 1177614" transform="translate(0 13.975)">
        <path id="Trazado_1035607" data-name="Trazado 1035607" d="M240.2,208.889H221.413a4.251,4.251,0,0,0-4.185,5.022,12.908,12.908,0,0,0,12.688,10.522H231.7a12.908,12.908,0,0,0,12.688-10.522,4.251,4.251,0,0,0-4.184-5.022Zm-8.5,10.272h-1.783a7.64,7.64,0,0,1-7.171-5H238.87A7.64,7.64,0,0,1,231.7,219.161Z" transform="translate(-140.837 -140.387)" fill="#202330"/>
        <path id="Trazado_1035608" data-name="Trazado 1035608" d="M216.964,156.484v-6.651a2.636,2.636,0,0,0-5.272,0v6.651a2.636,2.636,0,0,0,5.272,0Z" transform="translate(-137.293 -100.376)" fill="#202330"/>
        <path id="Trazado_1035609" data-name="Trazado 1035609" d="M287.944,147.2a2.636,2.636,0,0,0-2.636,2.636v6.651a2.636,2.636,0,1,0,5.272,0v-6.651A2.636,2.636,0,0,0,287.944,147.2Z" transform="translate(-185.037 -100.376)" fill="#202330"/>
        <path id="Trazado_1035610" data-name="Trazado 1035610" d="M242.345,171.123a2.636,2.636,0,0,0,3.94-3.5l-2.219-2.5,2.307-2.884a2.636,2.636,0,1,0-4.117-3.293l-3.7,4.62a2.636,2.636,0,0,0,.088,3.4Z" transform="translate(-154.344 -107.355)" fill="#202330"/>
        <path id="Trazado_1035611" data-name="Trazado 1035611" d="M67.5,309.014a2.636,2.636,0,0,0-2.413,1.575L52.965,338.173a2.636,2.636,0,1,0,4.826,2.121l2.861-6.508h13.7l2.861,6.508a2.636,2.636,0,0,0,4.826-2.121L69.916,310.589A2.637,2.637,0,0,0,67.5,309.014Zm4.534,19.5H62.968L67.5,318.2Z" transform="translate(-34.205 -205.323)"/>
        <path id="Trazado_1035612" data-name="Trazado 1035612" d="M394.01,311.909a10.461,10.461,0,0,0-.194-2.193,2.636,2.636,0,0,0-2.074-2.074,10.416,10.416,0,0,0-7.178,1.165,2.635,2.635,0,0,0-5.269.049v3.378a10.667,10.667,0,0,0-5.785-1.3,10.53,10.53,0,0,0-7.358,3.893,16.11,16.11,0,0,0-3.248,12.1c.882,7.948,6.652,14.116,13.04,14.115.194,0,.389-.006.585-.017h10.8c.2.012.39.017.585.017,6.387,0,12.159-6.168,13.04-14.115a16.107,16.107,0,0,0-3.249-12.1,11.11,11.11,0,0,0-3.7-2.918Zm-7.937,2.312a5.134,5.134,0,0,1,2.556-1.392,5.147,5.147,0,0,1-3.948,3.947A5.14,5.14,0,0,1,386.073,314.222Zm9.645,12.121c-.578,5.21-4.1,9.426-7.789,9.425-.11,0-.221,0-.331-.011-.06,0-.121-.006-.182-.006H376.445c-.06,0-.121,0-.181.006-3.815.26-7.525-4.049-8.12-9.414a11,11,0,0,1,2.055-8.137,5.3,5.3,0,0,1,3.675-2.013c.107-.007.214-.011.322-.011a6.921,6.921,0,0,1,5.172,2.877c.032.278.071.555.126.832a2.635,2.635,0,0,0,2.074,2.074,10.415,10.415,0,0,0,10.949-4.835,6.334,6.334,0,0,1,1.146,1.076A11,11,0,0,1,395.718,326.343Z" transform="translate(-235.287 -203.512)" fill="#202330"/>
        <path id="Trazado_1035613" data-name="Trazado 1035613" d="M175.463,149.976v-28.1a2.636,2.636,0,0,0-5.272,0V149.6h-5.007a6.684,6.684,0,0,0-6.676,6.676V165.2H123.1V102.983h47.094v6.595a2.636,2.636,0,1,0,5.272,0V102.1a4.4,4.4,0,0,0-4.393-4.393H129.684V88.9A12.736,12.736,0,0,0,136.5,77.635V74.323a12.737,12.737,0,0,0-6.813-11.264V47.9a29.688,29.688,0,0,0-28.761-29.64,22.734,22.734,0,0,0-13.359-4.287H79.91A29.688,29.688,0,0,0,50.257,43.629v19.43a12.736,12.736,0,0,0-6.813,11.264v3.312A12.736,12.736,0,0,0,50.257,88.9v8.813H46.04a2.636,2.636,0,1,0,0,5.272h10.8V165.2H21.433v-8.932a6.684,6.684,0,0,0-6.676-6.676H9.75V102.983H33.739a2.636,2.636,0,1,0,0-5.272H8.872A4.4,4.4,0,0,0,4.478,102.1v47.872A6.683,6.683,0,0,0,0,156.273V168.8a6.683,6.683,0,0,0,6.676,6.676h8.081a6.682,6.682,0,0,0,6.454-5H40.592V179.7a4.4,4.4,0,0,0,4.393,4.393h60.8a2.636,2.636,0,1,0,0-5.272H45.864v-8.345H57.723a4.4,4.4,0,0,0,4.393-4.393V123.237a18.44,18.44,0,0,0,5.889,1.247V135.65a4.393,4.393,0,0,0,6.6,3.8l6.214-3.606,5.03,13.714a4.393,4.393,0,0,0,8.249,0l5.03-13.714,6.214,3.606a4.393,4.393,0,0,0,6.6-3.8V124.484a18.437,18.437,0,0,0,5.889-1.247v42.846a4.4,4.4,0,0,0,4.393,4.393h11.859v8.345H118.087a2.636,2.636,0,0,0,0,5.272h16.87a4.4,4.4,0,0,0,4.393-4.393v-9.223H158.73a6.682,6.682,0,0,0,6.454,5h8.081a6.683,6.683,0,0,0,6.676-6.676V156.273a6.683,6.683,0,0,0-4.479-6.3ZM16.161,168.8a1.406,1.406,0,0,1-1.4,1.4H6.676a1.406,1.406,0,0,1-1.4-1.4V156.273a1.406,1.406,0,0,1,1.4-1.4h8.081a1.406,1.406,0,0,1,1.4,1.4V168.8ZM131.225,77.635a7.463,7.463,0,0,1-7.454,7.454h-4.715a27.406,27.406,0,0,0,.41-4.722v-13.5h4.305a7.463,7.463,0,0,1,7.454,7.455Zm-75.7-34.006A24.409,24.409,0,0,1,79.91,19.247h7.654a17.528,17.528,0,0,1,10.849,3.719,2.635,2.635,0,0,0,1.617.555A24.409,24.409,0,0,1,124.413,47.9v13.71q-.319-.016-.641-.016h-4.305V56.7a12.8,12.8,0,0,0-5.129-10.215,10.063,10.063,0,0,0-11.967.017l-9.143,6.622a4.92,4.92,0,0,1-2.9.941H70.7a10.238,10.238,0,0,0-9.86,7.535H56.171q-.323,0-.641.016V43.629Zm36.587,58.817h-4.29A22.1,22.1,0,0,1,65.747,80.368V64.283A4.955,4.955,0,0,1,70.7,59.333H90.324a10.161,10.161,0,0,0,6-1.943l9.143-6.622a4.876,4.876,0,0,1,5.723-.06,7.408,7.408,0,0,1,3.008,5.989v23.67A22.1,22.1,0,0,1,92.116,102.446Zm5.4,4.734v8.378l-7.547,8.069-7.547-8.069V107.18a27.365,27.365,0,0,0,5.4.538h4.29A27.365,27.365,0,0,0,97.517,107.18Zm-48.8-32.857a7.463,7.463,0,0,1,7.454-7.455h4.305v13.5a27.408,27.408,0,0,0,.41,4.722H56.17a7.463,7.463,0,0,1-7.454-7.454ZM69.941,106.51a4.387,4.387,0,0,0-1.935,3.641V119.2a13.222,13.222,0,0,1-5.889-1.807V102.1a4.4,4.4,0,0,0-4.393-4.393H55.529V90.344q.319.016.641.016h6.2a27.515,27.515,0,0,0,11.486,13.508Zm3.336,27.614V110.619L77.152,108V116.6a2.637,2.637,0,0,0,.711,1.8l7.921,8.468Zm16.694,11.369-4.524-12.336,4.524-2.625,4.524,2.625Zm16.694-11.369-12.507-7.257,7.921-8.468a2.637,2.637,0,0,0,.711-1.8V108l3.875,2.615Zm11.161-32.02V117.4a13.227,13.227,0,0,1-5.889,1.807v-9.052A4.388,4.388,0,0,0,110,106.511l-3.915-2.642a27.517,27.517,0,0,0,11.486-13.508h6.2q.323,0,.641-.016v7.366h-2.194A4.4,4.4,0,0,0,117.825,102.1ZM174.67,168.8a1.406,1.406,0,0,1-1.4,1.4h-8.081a1.406,1.406,0,0,1-1.4-1.4V156.273a1.406,1.406,0,0,1,1.4-1.4h8.081a1.406,1.406,0,0,1,1.4,1.4Z" transform="translate(0 -13.975)" fill="#202330"/>
      </g>
    </g>
  </g>
</svg>
