<svg xmlns="http://www.w3.org/2000/svg" width="190" height="127" viewBox="0 0 190 127">
  <g id="Grupo_1177674" data-name="Grupo 1177674" transform="translate(-1229.65 -4191)">
    <g id="Grupo_1177451" data-name="Grupo 1177451" transform="translate(8.35 22)">
      <rect id="Rectángulo_416021" data-name="Rectángulo 416021" width="190" height="91" transform="translate(1221.3 4187)" fill="#27454a"/>
      <rect id="Rectángulo_416022" data-name="Rectángulo 416022" width="130" height="127" transform="translate(1251.3 4169)" fill="#6ae2f6"/>
    </g>
    <g id="inspire-idea_14781822_1_" data-name="inspire-idea_14781822 (1)" transform="translate(1272.635 4202.69)">
      <g id="Grupo_1173811" data-name="Grupo 1173811" transform="translate(7.75 7.5)">
        <path id="Trazado_1030754" data-name="Trazado 1030754" d="M118.589,354.62v-6.484a3.943,3.943,0,0,0,3.2-3.873V333.114h20.364v11.149a3.943,3.943,0,0,0,3.2,3.873l.555,5.585Z" transform="translate(-98.825 -275.054)" fill="#ca6e59"/>
        <path id="Trazado_1030755" data-name="Trazado 1030755" d="M77.9,25.049c0,12.829-6.9,28.07-24.48,23.028L38.752,41.407a5.791,5.791,0,0,1-.382-8.564l1.48-.408,1.023-1.018A6.119,6.119,0,0,1,42.1,20.92a.54.54,0,0,0,.316-.628,5.809,5.809,0,0,1-.162-1.367,5.654,5.654,0,0,1,5.592-5.713,5.6,5.6,0,0,1,1.088.109,2.654,2.654,0,0,1,.423-.428,2.258,2.258,0,0,0,.938-1.97,6.3,6.3,0,0,1,8.829-.623.532.532,0,0,0,.8-.128,5.532,5.532,0,0,1,9.469,0,.532.532,0,0,0,.8.127,6.281,6.281,0,0,1,1.256-.834C77.9,11.42,77.9,20.42,77.9,25.049Z" transform="translate(-31.505 -7.5)" fill="#73788c"/>
        <path id="Trazado_1030756" data-name="Trazado 1030756" d="M169.873,42.869a5.748,5.748,0,0,1-2.092,4.454l-16.774,9.115H136.014l-5.374-2.445a26.347,26.347,0,0,0,18.027-38.615,6.241,6.241,0,0,1,2.839-.679,6.328,6.328,0,0,1,4.734,2.138l.294,1.439,1.066.959a5.593,5.593,0,0,1,1.086-.109,5.654,5.654,0,0,1,5.594,5.713,5.84,5.84,0,0,1-.294,1.828,6.113,6.113,0,0,1,1.674,10.665A5.694,5.694,0,0,1,169.873,42.869Z" transform="translate(-108.728 -13.416)" fill="#5e6577"/>
        <path id="Trazado_1030757" data-name="Trazado 1030757" d="M87.917,205.912a9.762,9.762,0,0,0,7.436-9.481h0a3.882,3.882,0,0,0-3.882-3.882H87.917l-39.1.005H45.257a3.882,3.882,0,0,0-3.882,3.882h0a9.762,9.762,0,0,0,7.436,9.481Z" transform="translate(-35.379 -159.553)" fill="#ca6e59"/>
        <path id="Trazado_1030758" data-name="Trazado 1030758" d="M112.621,131.108a3.863,3.863,0,0,1,5.044,1.662,15.509,15.509,0,0,0,1.293,1.965l.843,1.122c.357,1.041,1.151,5.9,2.253,5.9v14.811a12.355,12.355,0,0,1-4.219,9.3l-7.672,6.715a8.236,8.236,0,0,1-5.423,2.036h-4.55a8.235,8.235,0,0,1-5.423-2.036l-7.672-6.715a12.354,12.354,0,0,1-4.219-9.3V141.761a2.622,2.622,0,0,0,2.437-1.792L87,133.378a3.862,3.862,0,0,1,5.319-2.232l.247.118,1.988.762a22.007,22.007,0,0,0,15.748,0l1.988-.762Z" transform="translate(-69.48 -108.765)" fill="#d78878"/>
        <path id="Trazado_1030759" data-name="Trazado 1030759" d="M172.52,302.587c-4.23,0-4.419-3.9-4.348-5.321a.534.534,0,0,1,.534-.506h7.614a.533.533,0,0,1,.535.519C176.891,298.706,176.611,302.587,172.52,302.587Z" transform="translate(-139.559 -245.182)" fill="#eaf6ff"/>
        <path id="Trazado_1030760" data-name="Trazado 1030760" d="M19.477,445.2l-11.192-.026a.534.534,0,0,1-.535-.535V434.7a.536.536,0,0,1,.287-.476,17.3,17.3,0,0,1,4.663-1.6l1.289-.259,11.373,4.219Z" transform="translate(-7.75 -356.604)" fill="#9be69d"/>
        <path id="Trazado_1030761" data-name="Trazado 1030761" d="M308.385,437.732l-4.318,7.045-14.9.011-5.392-9.443c.059-.061,10.9-3.465,10.9-3.465l.736.141a17.3,17.3,0,0,1,4.873,1.715Z" transform="translate(-234.555 -356.209)" fill="#9be69d"/>
        <path id="Trazado_1030762" data-name="Trazado 1030762" d="M134.52,418.39l1.628,8.182-5.887,7.126-17.875.02-6.78-7.474,2.529-7.813A18.308,18.308,0,0,0,134.52,418.39Z" transform="translate(-88.158 -345.125)" fill="#eaf6ff"/>
        <path id="Trazado_1030763" data-name="Trazado 1030763" d="M57.209,417.066,52.34,399.558a1.96,1.96,0,0,0-2.458-1.35l-10.824,3.3a.848.848,0,0,0-.53,1.157l2.283,5.17a.535.535,0,0,0,.37.305l5.563,1.276a.535.535,0,0,1,.319.827l-3.019,4.326a.535.535,0,0,0-.065.487l.727,2.009Z" transform="translate(-32.98 -328.472)" fill="#bbf49b"/>
        <path id="Trazado_1030764" data-name="Trazado 1030764" d="M243.879,416.857l4.875-17.528a1.959,1.959,0,0,1,2.458-1.349l10.824,3.3a.85.85,0,0,1,.53,1.157l-2.283,5.17a.534.534,0,0,1-.37.305l-5.563,1.276a.535.535,0,0,0-.319.828l3.019,4.327a.534.534,0,0,1,.065.487l-.73,2.035Z" transform="translate(-201.775 -328.284)" fill="#bbf49b"/>
        <g id="Grupo_1173808" data-name="Grupo 1173808" transform="translate(66.007 48.37)">
          <path id="Trazado_1030765" data-name="Trazado 1030765" d="M399.12,387.922v6.857a20.886,20.886,0,0,1-.47,4.157,14.6,14.6,0,0,1-1.689,3.039c-1.081,1.819-.607,3.691-.6,5.806l-1.37.876H381.476v-2.935a7.374,7.374,0,0,0-1.94-4.984,6.1,6.1,0,0,1-1.6-4.119v-2.955a3.617,3.617,0,0,1,1.544-2.963Z" transform="translate(-377.933 -368.459)" fill="#d78878"/>
          <g id="Grupo_1173807" data-name="Grupo 1173807" transform="translate(16.492 11.513)">
            <path id="Trazado_1030766" data-name="Trazado 1030766" d="M475.12,344.5v6.8a1.426,1.426,0,0,1-.572,1.276c-.428.428-1.932-.226-2.584-.221l-1.163-1.243-.376-4.42,1.234-.953a2.391,2.391,0,0,1,2.329-2.388C474.773,343.641,475.12,344.045,475.12,344.5Z" transform="translate(-470.425 -343.349)" fill="#d78878"/>
            <path id="Trazado_1030767" data-name="Trazado 1030767" d="M483.535,345.729V351.1a2.393,2.393,0,0,1-4.328,1.405l-.153-.162a2.393,2.393,0,0,0,2.372-2.393v-5.367a2.378,2.378,0,0,0-.348-1.243c.021,0,.043,0,.064,0A2.391,2.391,0,0,1,483.535,345.729Z" transform="translate(-477.515 -343.34)" fill="#ca6e59"/>
          </g>
          <path id="Trazado_1030768" data-name="Trazado 1030768" d="M479.015,386.87v7.152a11.66,11.66,0,0,1-1.64,5.964A11.668,11.668,0,0,0,475.736,406l0,1.26a.535.535,0,0,1-.535.537h-1.646l-.007-1.8a11.685,11.685,0,0,1,1.64-6.009,11.659,11.659,0,0,0,1.641-5.964v-6.844Z" transform="translate(-456.504 -367.595)" fill="#ca6e59"/>
          <path id="Trazado_1030769" data-name="Trazado 1030769" d="M393.161,282.327v19.314c0,1.387-2.27,2.521-3.657,2.521l1.179-3.151-1.63-1.55V282.327a2.524,2.524,0,0,1,1.487-2.3A2.332,2.332,0,0,1,393.161,282.327Z" transform="translate(-387.069 -279.805)" fill="#d78878"/>
          <path id="Trazado_1030770" data-name="Trazado 1030770" d="M419.656,333.148v6.337c0,1.022-1.659,1.906-2.536,2.3a2.527,2.527,0,0,1-1.492-2.3l-.616-.136v-5.983l.616-.218a2.527,2.527,0,0,1,1.492-2.3C419.234,331.12,419.656,332.128,419.656,333.148Z" transform="translate(-408.4 -321.564)" fill="#d78878"/>
          <path id="Trazado_1030771" data-name="Trazado 1030771" d="M449.329,333.148v6.72c0,1.02-1.845,1.9-2.722,2.3a2.525,2.525,0,0,1-1.492-2.3l-.6-.383v-6.065l.6-.272a2.527,2.527,0,0,1,1.492-2.3C449,331.175,449.329,332.128,449.329,333.148Z" transform="translate(-432.642 -321.564)" fill="#d78878"/>
          <path id="Trazado_1030772" data-name="Trazado 1030772" d="M401.151,281.291v18.286a1.14,1.14,0,0,1-2.272,0V281.291a2.528,2.528,0,0,0-1.485-2.3,2.483,2.483,0,0,1,1.034-.225h.2A2.528,2.528,0,0,1,401.151,281.291Z" transform="translate(-393.924 -278.77)" fill="#ca6e59"/>
          <path id="Trazado_1030773" data-name="Trazado 1030773" d="M430.587,332.121v6.337a2.53,2.53,0,0,1-2.521,2.523h-.2a2.463,2.463,0,0,1-1.029-.223,2.527,2.527,0,0,0,1.492-2.3v-6.337a2.527,2.527,0,0,0-1.492-2.3,2.464,2.464,0,0,1,1.029-.223h.2A2.529,2.529,0,0,1,430.587,332.121Z" transform="translate(-418.114 -320.537)" fill="#ca6e59"/>
          <path id="Trazado_1030774" data-name="Trazado 1030774" d="M460.007,332.121v6.72a2.53,2.53,0,0,1-2.523,2.521h-.2a2.456,2.456,0,0,1-1.029-.223,2.525,2.525,0,0,0,1.491-2.3v-6.72a2.527,2.527,0,0,0-1.491-2.3,2.457,2.457,0,0,1,1.029-.223h.2A2.531,2.531,0,0,1,460.007,332.121Z" transform="translate(-442.289 -320.537)" fill="#ca6e59"/>
          <path id="Trazado_1030775" data-name="Trazado 1030775" d="M406.755,368.321a5.418,5.418,0,0,1-.115,1.11c-.469,2.243-3.805,2.521-6.17,2.767,0,0-2.569-1.2-4.469-.609-1.414.437-2.3,2.708-2.322,2.692l-4.629-2.421v-2.28l4.469-3.214a5.007,5.007,0,0,1,2.861-.931l7.42-.07A2.958,2.958,0,0,1,406.755,368.321Z" transform="translate(-387.068 -349.925)" fill="#ca6e59"/>
          <path id="Trazado_1030776" data-name="Trazado 1030776" d="M393.393,384.449l2.111-2.841a.535.535,0,0,1,.365-.212l4.562-.553a3.621,3.621,0,0,0,2.5-3.473,1.218,1.218,0,0,0-1.226-1.192h-6.713a4.532,4.532,0,0,0-2.6.819l-5.794,4.055Z" transform="translate(-385.05 -358.81)" fill="#d78878"/>
        </g>
        <g id="Grupo_1173810" data-name="Grupo 1173810" transform="translate(48.993 2.52)">
          <path id="Trazado_1030777" data-name="Trazado 1030777" d="M318.282,35.922a20.771,20.771,0,0,1-20.625,21.092c-3.762,0-12.023-2.761-13.1-5.76l.2-.82a.529.529,0,0,0-.046-.373A19.47,19.47,0,0,1,314.865,26.49C317.366,30.4,318.282,33.653,318.282,35.922Z" transform="translate(-282.516 -21.635)" fill="#eaf6ff"/>
          <path id="Trazado_1030778" data-name="Trazado 1030778" d="M322.145,67.593A19.5,19.5,0,0,1,292.92,80.044a.532.532,0,0,0-.378-.07l-8.029,1.53a.536.536,0,0,1-.62-.654l1.785-7.222a21,21,0,0,0,30.305-24.764A19.423,19.423,0,0,1,322.145,67.593Z" transform="translate(-283.634 -44.01)" fill="#d8ecfe"/>
          <g id="Grupo_1173809" data-name="Grupo 1173809" transform="translate(9.423 4.85)">
            <path id="Trazado_1030779" data-name="Trazado 1030779" d="M353.154,59.409c0,5.217-5.48,10.263-10.8,10.263-.808,0-1.681.549-3.091-1.534a11.344,11.344,0,0,0-1.4-2.454,9.664,9.664,0,0,1,5.454-16C350.634,49.682,353.154,54.768,353.154,59.409Z" transform="translate(-335.361 -49.531)" fill="#ffe177"/>
            <path id="Trazado_1030780" data-name="Trazado 1030780" d="M371.293,58.5a9.63,9.63,0,0,1-2.459,6.439,11.668,11.668,0,0,0-2.34,6.957v.6l-9.729.031V72a16.332,16.332,0,0,0-1.2-5.316,9.786,9.786,0,0,0,2.341.281c5.324,0,9.936-3.467,9.936-8.684a9.5,9.5,0,0,0-7.923-9.294A9.671,9.671,0,0,1,371.293,58.5Z" transform="translate(-351.965 -48.837)" fill="#ffd15b"/>
            <path id="Trazado_1030781" data-name="Trazado 1030781" d="M369.511,179.51l1.513,2.954c0,1.6-.96,2.954-4.413,2.954h-.758a2.9,2.9,0,0,1-2.9-2.9V179.51h6.56Z" transform="translate(-358.032 -156.21)" fill="#5e6577"/>
            <path id="Trazado_1030782" data-name="Trazado 1030782" d="M389.3,179.511v3.006a2.9,2.9,0,0,1-2.9,2.9h-2.928a2.9,2.9,0,0,0,2.9-2.9v-3.006Z" transform="translate(-374.895 -156.211)" fill="#4d5263"/>
            <path id="Trazado_1030783" data-name="Trazado 1030783" d="M359.674,161.379c0,.642.389,1.37,0,1.792s-3.283.92-3.878.92h-7.137a2.245,2.245,0,0,1-2.155-2.326,2.423,2.423,0,0,1,.63-1.646,2.077,2.077,0,0,1,1.524-.681H355.8C356.985,159.439,359.674,160.094,359.674,161.379Z" transform="translate(-344.517 -139.718)" fill="#73788c"/>
            <path id="Trazado_1030784" data-name="Trazado 1030784" d="M404.674,161.766a2.42,2.42,0,0,1-.63,1.645,2.077,2.077,0,0,1-1.524.681h-3.908a2.074,2.074,0,0,0,1.524-.681,2.42,2.42,0,0,0,.63-1.645,2.246,2.246,0,0,0-2.155-2.327h3.908A2.245,2.245,0,0,1,404.674,161.766Z" transform="translate(-387.333 -139.718)" fill="#5e6577"/>
          </g>
        </g>
      </g>
      <g id="Grupo_1173820" data-name="Grupo 1173820" transform="translate(7.75 7.5)">
        <g id="Grupo_1173812" data-name="Grupo 1173812" transform="translate(5.996 33.001)">
          <path id="Trazado_1030785" data-name="Trazado 1030785" d="M48.723,205.918a9.762,9.762,0,0,1-7.347-9.458h0a3.882,3.882,0,0,1,3.882-3.882h3.555" transform="translate(-41.376 -192.577)" fill="none" stroke="#000" stroke-linecap="round" stroke-linejoin="round" stroke-miterlimit="10" stroke-width="1.5"/>
          <path id="Trazado_1030786" data-name="Trazado 1030786" d="M309.852,232.041a9.778,9.778,0,0,1-6.795,6.291" transform="translate(-256.397 -225.004)" fill="none" stroke="#000" stroke-linecap="round" stroke-linejoin="round" stroke-miterlimit="10" stroke-width="1.5"/>
        </g>
        <path id="Trazado_1030787" data-name="Trazado 1030787" d="M209.872,133.264a22,22,0,0,0,4.784-1.239l1.988-.762.33-.155a3.862,3.862,0,0,1,5.3,2.243" transform="translate(-173.832 -108.765)" fill="none" stroke="#000" stroke-linecap="round" stroke-linejoin="round" stroke-miterlimit="10" stroke-width="1.5"/>
        <path id="Trazado_1030788" data-name="Trazado 1030788" d="M122.054,149.079v7.615a12.355,12.355,0,0,1-4.219,9.3l-7.672,6.715a8.235,8.235,0,0,1-5.423,2.036h-4.55a8.235,8.235,0,0,1-5.423-2.036l-7.672-6.715a12.354,12.354,0,0,1-4.219-9.3V141.883a2.622,2.622,0,0,0,2.437-1.792L87,133.5a3.862,3.862,0,0,1,5.319-2.232l.247.118,1.988.762a21.991,21.991,0,0,0,4.754,1.235" transform="translate(-69.48 -108.886)" fill="none" stroke="#000" stroke-linecap="round" stroke-linejoin="round" stroke-miterlimit="10" stroke-width="1.5"/>
        <g id="Grupo_1173814" data-name="Grupo 1173814" transform="translate(21.667 31.306)">
          <g id="Grupo_1173813" data-name="Grupo 1173813">
            <path id="Trazado_1030789" data-name="Trazado 1030789" d="M185.838,262.089a4.134,4.134,0,0,1-3.749,0" transform="translate(-172.67 -248)" fill="none" stroke="#000" stroke-linecap="round" stroke-linejoin="round" stroke-miterlimit="10" stroke-width="1.5"/>
            <path id="Trazado_1030790" data-name="Trazado 1030790" d="M136.122,183.951a7.131,7.131,0,0,0-6.856,0" transform="translate(-129.266 -183.073)" fill="none" stroke="#000" stroke-linecap="round" stroke-linejoin="round" stroke-miterlimit="10" stroke-width="1.5"/>
            <path id="Trazado_1030791" data-name="Trazado 1030791" d="M224.342,183.951a7.131,7.131,0,0,0-6.856,0" transform="translate(-201.756 -183.073)" fill="none" stroke="#000" stroke-linecap="round" stroke-linejoin="round" stroke-miterlimit="10" stroke-width="1.5"/>
            <line id="Línea_813" data-name="Línea 813" y1="3.037" transform="translate(19.158 5.149)" fill="none" stroke="#000" stroke-linecap="round" stroke-linejoin="round" stroke-miterlimit="10" stroke-width="1.5"/>
            <line id="Línea_814" data-name="Línea 814" y1="3.037" transform="translate(3.428 5.149)" fill="none" stroke="#000" stroke-linecap="round" stroke-linejoin="round" stroke-miterlimit="10" stroke-width="1.5"/>
          </g>
          <path id="Trazado_1030792" data-name="Trazado 1030792" d="M172.52,302.587c-5.168,0-4.3-5.827-4.3-5.827h8.607S177.533,302.587,172.52,302.587Z" transform="translate(-161.227 -276.489)" fill="none" stroke="#000" stroke-linecap="round" stroke-linejoin="round" stroke-miterlimit="10" stroke-width="1.5"/>
        </g>
        <path id="Trazado_1030793" data-name="Trazado 1030793" d="M85.718,15.212a5.513,5.513,0,0,0-5.338-1.891,6.418,6.418,0,0,0-6.094-4.537,6.316,6.316,0,0,0-4.578,1.971,5.545,5.545,0,0,0-10.1,0,6.315,6.315,0,0,0-4.578-1.971,6.418,6.418,0,0,0-6.094,4.537,5.51,5.51,0,0,0-1.088-.109,5.653,5.653,0,0,0-5.593,5.712,5.813,5.813,0,0,0,.294,1.827,6.114,6.114,0,0,0-1.674,10.666,5.762,5.762,0,0,0-2.122,9.99" transform="translate(-31.508 -7.5)" fill="none" stroke="#000" stroke-linecap="round" stroke-linejoin="round" stroke-miterlimit="10" stroke-width="1.5"/>
        <path id="Trazado_1030794" data-name="Trazado 1030794" d="M62.85,142.664a5.6,5.6,0,0,1-2.523-1.023" transform="translate(-50.952 -117.722)" fill="none" stroke="#000" stroke-linecap="round" stroke-linejoin="round" stroke-miterlimit="10" stroke-width="1.5"/>
        <path id="Trazado_1030795" data-name="Trazado 1030795" d="M105.6,40.2a5.307,5.307,0,0,1,3.363,2.235" transform="translate(-88.152 -34.368)" fill="none" stroke="#000" stroke-linecap="round" stroke-linejoin="round" stroke-miterlimit="10" stroke-width="1.5"/>
        <path id="Trazado_1030796" data-name="Trazado 1030796" d="M269.248,40.183a5.315,5.315,0,0,0-2.7,2.058" transform="translate(-220.4 -34.355)" fill="none" stroke="#000" stroke-linecap="round" stroke-linejoin="round" stroke-miterlimit="10" stroke-width="1.5"/>
        <path id="Trazado_1030797" data-name="Trazado 1030797" d="M319.154,42.867q-.089.565-.213,1.131A20.073,20.073,0,0,1,288.674,56.7l-9.318,1.776,2.3-9.314A20.022,20.022,0,0,1,295.982,20" transform="translate(-230.876 -17.773)" fill="none" stroke="#000" stroke-linecap="round" stroke-linejoin="round" stroke-miterlimit="10" stroke-width="1.5"/>
        <path id="Trazado_1030798" data-name="Trazado 1030798" d="M407.545,19.544q.719.1,1.441.259a20.044,20.044,0,0,1,15.554,16.448" transform="translate(-336.258 -17.396)" fill="none" stroke="#000" stroke-linecap="round" stroke-linejoin="round" stroke-miterlimit="10" stroke-width="1.5"/>
        <g id="Grupo_1173815" data-name="Grupo 1173815" transform="translate(58.415 7.375)">
          <path id="Trazado_1030799" data-name="Trazado 1030799" d="M339.555,68.251a11.4,11.4,0,0,0-1.7-3.272,9.654,9.654,0,1,1,14.351-.049,11.9,11.9,0,0,0-1.73,3.282" transform="translate(-335.355 -48.863)" fill="none" stroke="#000" stroke-linecap="round" stroke-linejoin="round" stroke-miterlimit="10" stroke-width="1.5"/>
          <line id="Línea_815" data-name="Línea 815" y1="7.097" transform="translate(9.653 12.252)" fill="none" stroke="#000" stroke-linecap="round" stroke-linejoin="round" stroke-miterlimit="10" stroke-width="1.5"/>
          <path id="Trazado_1030800" data-name="Trazado 1030800" d="M372.4,186.134v1.1a3.566,3.566,0,0,1-3.566,3.566h-2.346a3.566,3.566,0,0,1-3.566-3.566v-1.1" transform="translate(-358.003 -161.657)" fill="none" stroke="#000" stroke-linecap="round" stroke-linejoin="round" stroke-miterlimit="10" stroke-width="1.5"/>
          <path id="Trazado_1030801" data-name="Trazado 1030801" d="M360.915,162.62h-9.607a2.441,2.441,0,0,1-2.441-2.441v-.144a2.441,2.441,0,0,1,2.441-2.441h9.607a2.441,2.441,0,0,1,2.441,2.441v.144A2.441,2.441,0,0,1,360.915,162.62Z" transform="translate(-346.458 -138.207)" fill="none" stroke="#000" stroke-linecap="round" stroke-linejoin="round" stroke-miterlimit="10" stroke-width="1.5"/>
          <line id="Línea_816" data-name="Línea 816" x2="6.18" transform="translate(6.692 12.237)" fill="none" stroke="#000" stroke-linecap="round" stroke-linejoin="round" stroke-miterlimit="10" stroke-width="1.5"/>
        </g>
        <path id="Trazado_1030802" data-name="Trazado 1030802" d="M346.53,432.195l.448.085A17.271,17.271,0,0,1,351.85,434" transform="translate(-286.122 -356.468)" fill="none" stroke="#000" stroke-linecap="round" stroke-linejoin="round" stroke-miterlimit="10" stroke-width="1.5"/>
        <path id="Trazado_1030803" data-name="Trazado 1030803" d="M250.768,358.351V365a3.943,3.943,0,0,0,3.2,3.873" transform="translate(-207.436 -295.791)" fill="none" stroke="#000" stroke-linecap="round" stroke-linejoin="round" stroke-miterlimit="10" stroke-width="1.5"/>
        <path id="Trazado_1030804" data-name="Trazado 1030804" d="M118.589,417.362h0a18.312,18.312,0,0,0,26.773,0h0" transform="translate(-98.825 -344.28)" fill="none" stroke="#000" stroke-linecap="round" stroke-linejoin="round" stroke-miterlimit="10" stroke-width="1.5"/>
        <path id="Trazado_1030805" data-name="Trazado 1030805" d="M13.4,371.665l-.7.141a17.266,17.266,0,0,0-4.951,1.757m22.968-15.212V365a3.943,3.943,0,0,1-3.2,3.873l-.2.039" transform="translate(-7.75 -295.791)" fill="none" stroke="#000" stroke-linecap="round" stroke-linejoin="round" stroke-miterlimit="10" stroke-width="1.5"/>
        <g id="Grupo_1173816" data-name="Grupo 1173816" transform="translate(4.984 69.652)">
          <path id="Trazado_1030806" data-name="Trazado 1030806" d="M52.387,409.619l-2.8-10.061a1.96,1.96,0,0,0-2.458-1.35l-10.824,3.3a.848.848,0,0,0-.53,1.157l2.392,5.415,6.6,1.514-3.631,5.2.823,2.3" transform="translate(-35.703 -398.124)" fill="none" stroke="#000" stroke-linecap="round" stroke-linejoin="round" stroke-miterlimit="10" stroke-width="1.5"/>
          <line id="Línea_817" data-name="Línea 817" x1="0.406" y1="1.46" transform="translate(18.355 17.508)" fill="none" stroke="#000" stroke-linecap="round" stroke-linejoin="round" stroke-miterlimit="10" stroke-width="1.5"/>
          <path id="Trazado_1030807" data-name="Trazado 1030807" d="M244.868,417.092l4.877-17.533a1.959,1.959,0,0,1,2.458-1.349l10.824,3.3a.85.85,0,0,1,.53,1.157l-2.392,5.416-6.6,1.513,3.631,5.2-.823,2.295" transform="translate(-207.572 -398.125)" fill="none" stroke="#000" stroke-linecap="round" stroke-linejoin="round" stroke-miterlimit="10" stroke-width="1.5"/>
        </g>
        <g id="Grupo_1173819" data-name="Grupo 1173819" transform="translate(66.019 48.421)">
          <g id="Grupo_1173817" data-name="Grupo 1173817" transform="translate(17.726 11.513)">
            <path id="Trazado_1030808" data-name="Trazado 1030808" d="M482.2,346.016a2.39,2.39,0,0,0-2.39-2.39h0a2.393,2.393,0,0,0-2.393,2.393v5.367a2.393,2.393,0,0,0,2.393,2.393h0a2.393,2.393,0,0,0,2.393-2.393Z" transform="translate(-477.412 -343.626)" fill="none" stroke="#000" stroke-linecap="round" stroke-linejoin="round" stroke-miterlimit="10" stroke-width="1.5"/>
            <path id="Trazado_1030809" data-name="Trazado 1030809" d="M490.831,400.563" transform="translate(-488.438 -390.411)" fill="none" stroke="#000" stroke-linecap="round" stroke-linejoin="round" stroke-miterlimit="10" stroke-width="1.5"/>
          </g>
          <g id="Grupo_1173818" data-name="Grupo 1173818" transform="translate(19.232 19.342)">
            <path id="Trazado_1030810" data-name="Trazado 1030810" d="M489.137,387.53v7.151a11.615,11.615,0,0,1-1.64,5.9h0a11.673,11.673,0,0,0-1.64,6.009l.007,1.8" transform="translate(-485.857 -387.53)" fill="none" stroke="#000" stroke-linecap="round" stroke-linejoin="round" stroke-miterlimit="10" stroke-width="1.5"/>
          </g>
          <path id="Trazado_1030811" data-name="Trazado 1030811" d="M433.859,414.75a9.782,9.782,0,0,1,2.089,8.944l-.074.285" transform="translate(-423.899 -390.555)" fill="none" stroke="#000" stroke-linecap="round" stroke-linejoin="round" stroke-miterlimit="10" stroke-width="1.5"/>
          <path id="Trazado_1030812" data-name="Trazado 1030812" d="M389.115,300.88v-19.3a2.529,2.529,0,0,1,2.521-2.521h.2a2.529,2.529,0,0,1,2.521,2.521v15.683" transform="translate(-387.133 -279.057)" fill="none" stroke="#000" stroke-linecap="round" stroke-linejoin="round" stroke-miterlimit="10" stroke-width="1.5"/>
          <path id="Trazado_1030813" data-name="Trazado 1030813" d="M418.532,332.414a2.529,2.529,0,0,1,2.521-2.521h.2a2.529,2.529,0,0,1,2.521,2.521v5.74" transform="translate(-411.305 -320.828)" fill="none" stroke="#000" stroke-linecap="round" stroke-linejoin="round" stroke-miterlimit="10" stroke-width="1.5"/>
          <path id="Trazado_1030814" data-name="Trazado 1030814" d="M447.947,338.093v-5.678a2.529,2.529,0,0,1,2.521-2.521h.2a2.529,2.529,0,0,1,2.521,2.521v2.407" transform="translate(-435.475 -320.828)" fill="none" stroke="#000" stroke-linecap="round" stroke-linejoin="round" stroke-miterlimit="10" stroke-width="1.5"/>
          <path id="Trazado_1030815" data-name="Trazado 1030815" d="M386.341,384.738l2.248-3.025,4.5-.581a3.621,3.621,0,0,0,2.5-3.44,1.226,1.226,0,0,0-1.226-1.225h-6.427a4.531,4.531,0,0,0-2.6.819l-5.794,4.055A3.619,3.619,0,0,0,378,384.306v2.954a6.1,6.1,0,0,0,1.6,4.119,7.376,7.376,0,0,1,1.94,4.985V399.3" transform="translate(-377.999 -359.099)" fill="none" stroke="#000" stroke-linecap="round" stroke-linejoin="round" stroke-miterlimit="10" stroke-width="1.5"/>
        </g>
      </g>
    </g>
  </g>
</svg>
