<svg xmlns="http://www.w3.org/2000/svg" xmlns:xlink="http://www.w3.org/1999/xlink" width="118" height="118" viewBox="0 0 118 118">
  <defs>
    <filter id="Trazado_982547" x="0" y="0" width="118" height="118" filterUnits="userSpaceOnUse">
      <feOffset dy="3" input="SourceAlpha"/>
      <feGaussianBlur stdDeviation="3" result="blur"/>
      <feFlood flood-opacity="0.161"/>
      <feComposite operator="in" in2="blur"/>
      <feComposite in="SourceGraphic"/>
    </filter>
  </defs>
  <g id="Grupo_1177498" data-name="Grupo 1177498" transform="translate(-834.5 -4911.545)">
    <g id="Grupo_1173988" data-name="Grupo 1173988" transform="translate(843.5 4917.545)">
      <g id="Grupo_1172010" data-name="Grupo 1172010">
        <g id="Grupo_1171046" data-name="Grupo 1171046">
          <g id="Grupo_1148525" data-name="Grupo 1148525">
            <g transform="matrix(1, 0, 0, 1, -9, -6)" filter="url(#Trazado_982547)">
              <g id="Trazado_982547-2" data-name="Trazado 982547" transform="translate(9 6)" fill="#fdfbec">
                <path d="M 50 98.5 C 43.45188522338867 98.5 37.10042953491211 97.21787261962891 31.12207221984863 94.68923950195312 C 25.34691429138184 92.24655914306641 20.15997123718262 88.74931335449219 15.70532894134521 84.29468536376953 C 11.2506856918335 79.84004211425781 7.753442764282227 74.65309906005859 5.310757160186768 68.8779296875 C 2.782128572463989 62.89957046508789 1.5 56.54811477661133 1.5 50 C 1.5 43.45188522338867 2.782128572463989 37.10042953491211 5.310757160186768 31.12207221984863 C 7.753442764282227 25.34691429138184 11.2506856918335 20.15997123718262 15.70532894134521 15.70532894134521 C 20.15997123718262 11.2506856918335 25.34691429138184 7.753442764282227 31.12207221984863 5.310757160186768 C 37.10042953491211 2.782128572463989 43.45188522338867 1.5 50 1.5 C 56.54811477661133 1.5 62.89957046508789 2.782128572463989 68.8779296875 5.310757160186768 C 74.65309906005859 7.753442764282227 79.84004211425781 11.2506856918335 84.29468536376953 15.70532894134521 C 88.74931335449219 20.15997123718262 92.24655914306641 25.34691429138184 94.68923950195312 31.12207221984863 C 97.21787261962891 37.10042953491211 98.5 43.45188522338867 98.5 50 C 98.5 56.54811477661133 97.21787261962891 62.89957046508789 94.68923950195312 68.8779296875 C 92.24655914306641 74.65309906005859 88.74931335449219 79.84004211425781 84.29468536376953 84.29468536376953 C 79.84004211425781 88.74931335449219 74.65309906005859 92.24655914306641 68.8779296875 94.68923950195312 C 62.89957046508789 97.21787261962891 56.54811477661133 98.5 50 98.5 Z" stroke="none"/>
                <path d="M 50 3 C 43.65372467041016 3 37.49886322021484 4.242263793945312 31.70639801025391 6.6922607421875 C 26.11003112792969 9.059326171875 21.08335113525391 12.44861602783203 16.76598358154297 16.76598358154297 C 12.44861602783203 21.08335113525391 9.059326171875 26.11003112792969 6.6922607421875 31.70639801025391 C 4.242263793945312 37.49886322021484 3 43.65372467041016 3 50 C 3 56.34627532958984 4.242263793945312 62.50113677978516 6.6922607421875 68.29360198974609 C 9.059326171875 73.88996887207031 12.44861602783203 78.91666412353516 16.76598358154297 83.23401641845703 C 21.08335113525391 87.55138397216797 26.11003112792969 90.940673828125 31.70639801025391 93.3077392578125 C 37.49886322021484 95.75773620605469 43.65372467041016 97 50 97 C 56.34627532958984 97 62.50113677978516 95.75773620605469 68.29360198974609 93.3077392578125 C 73.88996887207031 90.940673828125 78.91666412353516 87.55138397216797 83.23401641845703 83.23401641845703 C 87.55138397216797 78.91666412353516 90.940673828125 73.88996887207031 93.3077392578125 68.29360198974609 C 95.75773620605469 62.50113677978516 97 56.34627532958984 97 50 C 97 43.65372467041016 95.75773620605469 37.49886322021484 93.3077392578125 31.70639801025391 C 90.940673828125 26.11003112792969 87.55138397216797 21.08335113525391 83.23401641845703 16.76598358154297 C 78.91666412353516 12.44861602783203 73.88996887207031 9.059326171875 68.29360198974609 6.6922607421875 C 62.50113677978516 4.242263793945312 56.34627532958984 3 50 3 M 50 0 C 77.61424255371094 0 100 22.38577270507812 100 50 C 100 77.61424255371094 77.61424255371094 100 50 100 C 22.38577270507812 100 0 77.61424255371094 0 50 C 0 22.38577270507812 22.38577270507812 0 50 0 Z" stroke="none" fill="#83793c"/>
              </g>
            </g>
          </g>
        </g>
      </g>
    </g>
    <g id="think-question_14781835_1_" data-name="think-question_14781835 (1)" transform="translate(856.848 4928.892)">
      <g id="Grupo_1177491" data-name="Grupo 1177491" transform="translate(7.506 7.5)">
        <path id="Trazado_1035331" data-name="Trazado 1035331" d="M36.6,360.8l-1.752-.737c-5.4-2.621-4.628-2.817-2.963-7.809,1.933-1.319,4.347-1.7,6.583-2.284.9-.233,4.393-1.24,5.059-1.374l2.483-.989a3.132,3.132,0,0,0,.345-1.727V340.2l10.241,4.053v1.626a2.641,2.641,0,0,0,.5,1.547l8.011,1.3a60.818,60.818,0,0,1,8.7,2.074l4.062,1.29-5.415,6.6L62.322,360.8Z" transform="translate(-27.751 -298.493)" fill="#bbf49b"/>
        <path id="Trazado_1035332" data-name="Trazado 1035332" d="M388.707,443.994a9.957,9.957,0,0,0-3.986-8.056c-.048-.034-.1-.068-.144-.1a46.927,46.927,0,0,0-3.27,3.875S388.707,444.77,388.707,443.994Z" transform="translate(-334.453 -382.143)" fill="#9be69d"/>
        <path id="Trazado_1035333" data-name="Trazado 1035333" d="M16.394,444.552v.343H7.926a.378.378,0,0,1-.377-.391,10.256,10.256,0,0,1,3.986-8.056c.048-.034.1-.068.144-.1C13.772,438.689,16.217,441.254,16.394,444.552Z" transform="translate(-7.549 -382.59)" fill="#9be69d"/>
        <path id="Trazado_1035334" data-name="Trazado 1035334" d="M27.925,216.289c0,4.687-4.651,9.066-9.357,9.066-1.805,0-4.406,0-6.934-4.122a8.52,8.52,0,0,1,13.1-9.149C24.913,212.779,27.925,215.536,27.925,216.289Z" transform="translate(-10.873 -185.113)" fill="#ffd15b"/>
        <path id="Trazado_1035335" data-name="Trazado 1035335" d="M30.366,229.622A8.524,8.524,0,0,1,13.61,231.8a8.506,8.506,0,0,0,13.1-9.149A8.468,8.468,0,0,1,30.366,229.622Z" transform="translate(-12.85 -195.679)" fill="#ffc344"/>
        <path id="Trazado_1035336" data-name="Trazado 1035336" d="M261.96,217.388c0,4.687-1.468,8.053-9.161,8.4-1.995.09-5.09-2.643-6.156-4.557a8.52,8.52,0,0,1,13.1-9.149C261.585,214.836,261.96,216.636,261.96,217.388Z" transform="translate(-216.423 -185.113)" fill="#ffd15b"/>
        <path id="Trazado_1035337" data-name="Trazado 1035337" d="M265.377,229.622A8.525,8.525,0,0,1,248.62,231.8a8.506,8.506,0,0,0,13.1-9.149A8.466,8.466,0,0,1,265.377,229.622Z" transform="translate(-218.399 -195.679)" fill="#ffc344"/>
        <path id="Trazado_1035338" data-name="Trazado 1035338" d="M89.815,19.161c0,7.161-1.174,16.165-10.657,13.938L61.5,32.675v-7.7A16.921,16.921,0,0,1,77.517,8.11l.726.535L79.4,8.11a16.756,16.756,0,0,1,7.636,2.32C91.113,15.317,89.815,17.484,89.815,19.161Z" transform="translate(-54.737 -8.034)" fill="#ffe177"/>
        <path id="Trazado_1035339" data-name="Trazado 1035339" d="M218.618,41.327V49.68l-16.258-.391a23.075,23.075,0,0,0,7.875-22.669A17.1,17.1,0,0,1,218.618,41.327Z" transform="translate(-177.939 -24.223)" fill="#ffd15b"/>
        <path id="Trazado_1035340" data-name="Trazado 1035340" d="M76.47,194.529a6.933,6.933,0,0,0,5.3-6.728h0A2.76,2.76,0,0,0,79,185.046H46.1a2.76,2.76,0,0,0-2.766,2.755h0a6.933,6.933,0,0,0,5.3,6.728Z" transform="translate(-38.85 -162.788)" fill="#ca6e59"/>
        <path id="Trazado_1035341" data-name="Trazado 1035341" d="M105.657,110.061l5.051-4.731a9.789,9.789,0,0,0,2.768-6.819V90.324a1.786,1.786,0,0,1-1.7-1.217l-1.059-3.162a9.366,9.366,0,0,0-4.08-5.068L99.729,76.8a.376.376,0,0,0-.382,0l-6.856,4.041a9.376,9.376,0,0,0-4.135,5.1L87.3,89.107a1.786,1.786,0,0,1-1.7,1.217v8.187a9.8,9.8,0,0,0,3.119,7.165l4.7,4.384a8.949,8.949,0,0,0,6.118,2.408c.445,0,3.542.267,3.982.2Z" transform="translate(-75.817 -68.068)" fill="#d78878"/>
        <g id="Grupo_1177489" data-name="Grupo 1177489" transform="translate(12.041 36.697)">
          <path id="Trazado_1035342" data-name="Trazado 1035342" d="M126.513,315.484l-.464.572L121,322.283,119.2,321.14a8.456,8.456,0,0,0-4.208-1.32,6.954,6.954,0,0,1-3.444-1.076l-4.467-2.837a1.579,1.579,0,0,1-.735-1.335c0-.018,0-.034,0-.052,0,0,.225-.457.338-.671a6,6,0,0,1,.794-.478c.224.121.827-.444,1.313-.136l-1.015-.644a1.577,1.577,0,0,1-.735-1.335.283.283,0,0,1,0-.051c.049-.261.674-.347.786-.563.021-.043-.035-.056.187-.165,0,0,.984-.865,1.469-.556l-.648-.412a1.58,1.58,0,0,1-.736-1.338c0-.018,0-.034,0-.052.008-.228.349-.366.46-.581a2,2,0,0,1,.532-.469s.966-.54,1.452-.232l-6.208-3.943a1.577,1.577,0,0,1-.559-2.06c.625-.561,1.024-.7,1.286-.536l9.994,6.611c2.992,1.6,4.255.4,4.256.388.021-.1.357-.667.379-.765a1.885,1.885,0,0,0,.2-.53.2.2,0,0,0,.006-.029c.059-.282.12-.542.186-.784a7.936,7.936,0,0,1,1.368-2.816,3.49,3.49,0,0,1,.622-.687,2.372,2.372,0,0,1,.652-.36,4.733,4.733,0,0,1,1.449.1c.075.048-.94,3.658-.885,4.262,0,0,.172,4.8.2,5.151a3.661,3.661,0,0,0,2.012,3.169Z" transform="translate(-103.6 -300.234)" fill="#ca6e59"/>
        </g>
        <path id="Trazado_1035343" data-name="Trazado 1035343" d="M257.908,420.641h-14.27l-5.689-3.559,5.027-8.462,17.537,11.329C260.83,420.15,258.281,420.636,257.908,420.641Z" transform="translate(-209.067 -358.335)" fill="#9be69d"/>
        <path id="Trazado_1035344" data-name="Trazado 1035344" d="M293.549,416.811h-4.136a.376.376,0,0,0,.2-.693l-15.641-9.995,1.193-1.883,18.587,11.878A.376.376,0,0,1,293.549,416.811Z" transform="translate(-240.572 -354.505)" fill="#6fd7a3"/>
        <path id="Trazado_1035345" data-name="Trazado 1035345" d="M228.021,400.29l-5.4,7.242a1.105,1.105,0,0,1-1.537.226l-1.873-1.388a1.1,1.1,0,0,1-.227-1.532l5.36-7.187c.7-.569,1.5-1.5,1.855-1.235l2.011,1.489C228.543,398.152,228.666,399.226,228.021,400.29Z" transform="translate(-192.29 -347.621)" fill="#eaf6ff"/>
        <path id="Trazado_1035346" data-name="Trazado 1035346" d="M267.958,394.748l-1.032,1.383a1.2,1.2,0,0,0-.494-.994l-2.011-1.489a1.2,1.2,0,0,0-1.172-.155l1.072-1.437a1.1,1.1,0,0,1,1.536-.226l1.874,1.386A1.1,1.1,0,0,1,267.958,394.748Z" transform="translate(-231.195 -343.462)" fill="#d8ecfe"/>
        <g id="Grupo_1177490" data-name="Grupo 1177490" transform="translate(33.698 0)">
          <path id="Trazado_1035347" data-name="Trazado 1035347" d="M427.5,271.043c0,1.4-1.675,2.012-3.076,2.012-.662,0-1.179-.661-1.641-1.332a2.619,2.619,0,0,1-.06-.564,2.711,2.711,0,0,1,4.1-2.319A3.435,3.435,0,0,1,427.5,271.043Z" transform="translate(-404.372 -235.746)" fill="#eaf6ff"/>
          <path id="Trazado_1035348" data-name="Trazado 1035348" d="M428.56,273.809a2.711,2.711,0,0,1-5.36.564,2.539,2.539,0,0,0,4.252-1.862,2.5,2.5,0,0,0-.217-1.022A2.693,2.693,0,0,1,428.56,273.809Z" transform="translate(-404.792 -238.396)" fill="#d8ecfe"/>
          <path id="Trazado_1035349" data-name="Trazado 1035349" d="M299.268,10.41c-.113-.012-.228-.021-.343-.025a.388.388,0,0,1-.3-.163c-.112-.158-.231-.311-.357-.457a6.486,6.486,0,0,0-7.588-1.692.385.385,0,0,1-.343-.013,4.734,4.734,0,0,0-6.736,2.716.372.372,0,0,1-.353.259,5.782,5.782,0,0,0-5.156,8.429.38.38,0,0,1-.116.49,3.691,3.691,0,0,0-.379,5.807.377.377,0,0,1,.115.351,5.339,5.339,0,0,0,.105,2.367c2.5,3.247,7.534,4.086,10.382,4.086,8.15,0,13.3-4.211,13.3-12.361C301.5,18.25,301.5,12.988,299.268,10.41Z" transform="translate(-276.36 -7.5)" fill="#eaf6ff"/>
          <path id="Trazado_1035350" data-name="Trazado 1035350" d="M401.568,333.733a1.8,1.8,0,0,1-1.926,1.606c-.51,0-.92-.259-1.455-1.135A1.971,1.971,0,0,1,401,332.178,2.179,2.179,0,0,1,401.568,333.733Z" transform="translate(-382.9 -291.303)" fill="#eaf6ff"/>
          <path id="Trazado_1035351" data-name="Trazado 1035351" d="M402.231,335.325a1.97,1.97,0,0,1-3.921.261,1.75,1.75,0,0,0,3.037-1.176,1.724,1.724,0,0,0-.222-.85A1.962,1.962,0,0,1,402.231,335.325Z" transform="translate(-383.022 -292.685)" fill="#d8ecfe"/>
          <path id="Trazado_1035352" data-name="Trazado 1035352" d="M314.445,42.894a.368.368,0,0,0-.021.384,5.772,5.772,0,0,1-2.335,7.837c-.049.026-.134.069-.214.108a.37.37,0,0,0-.208.3,5.09,5.09,0,0,1-.18.964,0,0,0,0,0,0,0,5.067,5.067,0,0,1-7.1,3.11.371.371,0,0,0-.422.067,6.114,6.114,0,0,1-10.1-2.648.372.372,0,0,0-.377-.266,5.426,5.426,0,0,1-5.5-3.971,14.76,14.76,0,0,0,21.452-18.068,5.2,5.2,0,0,1,4.408,6.807.371.371,0,0,0,.1.382,3.891,3.891,0,0,1,.508,4.994Z" transform="translate(-286.524 -27.801)" fill="#d8ecfe"/>
          <path id="Trazado_1035353" data-name="Trazado 1035353" d="M341.044,61.136c-1.3,10.394-6.749,10.251-11.509,10.251a8.8,8.8,0,1,1,11.509-10.251Z" transform="translate(-317.696 -48.433)" fill="#73788c"/>
          <path id="Trazado_1035354" data-name="Trazado 1035354" d="M382.527,110.782a8.83,8.83,0,0,1-11.727,8.3,14.772,14.772,0,0,0,11.509-10.251A8.789,8.789,0,0,1,382.527,110.782Z" transform="translate(-358.961 -96.127)" fill="#5e6577"/>
        </g>
      </g>
      <g id="Grupo_1177497" data-name="Grupo 1177497" transform="translate(7.5 7.5)">
        <g id="Grupo_1177492" data-name="Grupo 1177492" transform="translate(0 50.359)">
          <path id="Trazado_1035355" data-name="Trazado 1035355" d="M7.5,420.853a9.763,9.763,0,0,1,3.992-8.137c1.958-1.4,4.437-1.789,6.727-2.382.69-.179,2.767-.754,4.1-1.118" transform="translate(-7.5 -409.216)" fill="none" stroke="#000" stroke-linecap="round" stroke-linejoin="round" stroke-miterlimit="10" stroke-width="1.5"/>
        </g>
        <g id="Grupo_1177494" data-name="Grupo 1177494" transform="translate(37.134 50.22)">
          <g id="Grupo_1177493" data-name="Grupo 1177493">
            <path id="Trazado_1035356" data-name="Trazado 1035356" d="M320.687,419.882a9.763,9.763,0,0,0-3.992-8.137c-1.958-1.4-4.437-1.789-6.727-2.382-.69-.179-4.907-.893-6.244-1.257" transform="translate(-303.724 -408.106)" fill="none" stroke="#000" stroke-linecap="round" stroke-linejoin="round" stroke-miterlimit="10" stroke-width="1.5"/>
          </g>
          <path id="Trazado_1035357" data-name="Trazado 1035357" d="M384.719,436.341a34.545,34.545,0,0,0-3.058,3.714" transform="translate(-371.891 -432.801)" fill="none" stroke="#000" stroke-linecap="round" stroke-linejoin="round" stroke-miterlimit="10" stroke-width="1.5"/>
        </g>
        <path id="Trazado_1035358" data-name="Trazado 1035358" d="M40.487,436.341c2.093,2.339,4.54,4.9,4.717,8.2" transform="translate(-36.352 -382.582)" fill="none" stroke="#000" stroke-linecap="round" stroke-linejoin="round" stroke-miterlimit="10" stroke-width="1.5"/>
        <g id="Grupo_1177495" data-name="Grupo 1177495" transform="translate(0.482 26.66)">
          <path id="Trazado_1035359" data-name="Trazado 1035359" d="M25.238,234.04a8.5,8.5,0,1,1-9.748-13.87" transform="translate(-11.346 -220.17)" fill="none" stroke="#000" stroke-linecap="round" stroke-linejoin="round" stroke-miterlimit="10" stroke-width="1.5"/>
          <path id="Trazado_1035360" data-name="Trazado 1035360" d="M277.3,329.454a8.556,8.556,0,0,1-9.2-1.558" transform="translate(-235.913 -314.392)" fill="none" stroke="#000" stroke-linecap="round" stroke-linejoin="round" stroke-miterlimit="10" stroke-width="1.5"/>
          <path id="Trazado_1035361" data-name="Trazado 1035361" d="M369.451,243.429a8.464,8.464,0,0,1-.452,9.408" transform="translate(-324.164 -240.513)" fill="none" stroke="#000" stroke-linecap="round" stroke-linejoin="round" stroke-miterlimit="10" stroke-width="1.5"/>
        </g>
        <path id="Trazado_1035362" data-name="Trazado 1035362" d="M65.86,13.489A16.932,16.932,0,0,1,90.821,13.3M61.5,30.105V24.8a16.767,16.767,0,0,1,1.859-7.7" transform="translate(-54.731 -7.853)" fill="none" stroke="#000" stroke-linecap="round" stroke-linejoin="round" stroke-miterlimit="10" stroke-width="1.5"/>
        <line id="Línea_994" data-name="Línea 994" y1="8.037" transform="translate(23.727 0.384)" fill="none" stroke="#000" stroke-linecap="round" stroke-linejoin="round" stroke-miterlimit="10" stroke-width="1.5"/>
        <path id="Trazado_1035363" data-name="Trazado 1035363" d="M48.635,194.528a6.933,6.933,0,0,1-5.3-6.728h0a2.76,2.76,0,0,1,2.766-2.755h2.533" transform="translate(-38.844 -162.788)" fill="none" stroke="#000" stroke-linecap="round" stroke-linejoin="round" stroke-miterlimit="10" stroke-width="1.5"/>
        <path id="Trazado_1035364" data-name="Trazado 1035364" d="M312.38,228.916a6.96,6.96,0,0,1-4.732,3.984" transform="translate(-270.022 -201.159)" fill="none" stroke="#000" stroke-linecap="round" stroke-linejoin="round" stroke-miterlimit="10" stroke-width="1.5"/>
        <path id="Trazado_1035365" data-name="Trazado 1035365" d="M109.444,83.029a9.371,9.371,0,0,0-2.8-2.575l-7.1-4.188-7.047,4.153a9.376,9.376,0,0,0-4.135,5.1L87.3,88.684A1.786,1.786,0,0,1,85.6,89.9v8.187a9.8,9.8,0,0,0,2.5,6.532" transform="translate(-75.811 -67.646)" fill="none" stroke="#000" stroke-linecap="round" stroke-linejoin="round" stroke-miterlimit="10" stroke-width="1.5"/>
        <path id="Trazado_1035366" data-name="Trazado 1035366" d="M273.731,216.042l1.522-1.425a9.789,9.789,0,0,0,2.768-6.819v-6.1" transform="translate(-240.356 -177.355)" fill="none" stroke="#000" stroke-linecap="round" stroke-linejoin="round" stroke-miterlimit="10" stroke-width="1.5"/>
        <path id="Trazado_1035367" data-name="Trazado 1035367" d="M188.81,254.916a2.961,2.961,0,0,1-2.679,0" transform="translate(-163.738 -223.9)" fill="none" stroke="#000" stroke-linecap="round" stroke-linejoin="round" stroke-miterlimit="10" stroke-width="1.5"/>
        <line id="Línea_995" data-name="Línea 995" x1="5.113" transform="translate(21.176 36.089)" fill="none" stroke="#000" stroke-linecap="round" stroke-linejoin="round" stroke-miterlimit="10" stroke-width="1.5"/>
        <path id="Trazado_1035368" data-name="Trazado 1035368" d="M137.335,159.385a5.107,5.107,0,0,0-4.9,0" transform="translate(-116.773 -139.797)" fill="none" stroke="#000" stroke-linecap="round" stroke-linejoin="round" stroke-miterlimit="10" stroke-width="1.5"/>
        <path id="Trazado_1035369" data-name="Trazado 1035369" d="M222.112,172.925a5.105,5.105,0,0,1,4.9,0" transform="translate(-195.208 -151.64)" fill="none" stroke="#000" stroke-linecap="round" stroke-linejoin="round" stroke-miterlimit="10" stroke-width="1.5"/>
        <line id="Línea_996" data-name="Línea 996" y1="2.165" transform="translate(29.354 24.642)" fill="none" stroke="#000" stroke-linecap="round" stroke-linejoin="round" stroke-miterlimit="10" stroke-width="1.5"/>
        <line id="Línea_997" data-name="Línea 997" y1="2.165" transform="translate(18.112 24.642)" fill="none" stroke="#000" stroke-linecap="round" stroke-linejoin="round" stroke-miterlimit="10" stroke-width="1.5"/>
        <path id="Trazado_1035370" data-name="Trazado 1035370" d="M124.406,310.515a5.028,5.028,0,0,1-.412-2.736,9.558,9.558,0,0,0-.009-2.248l-.186-2.069a3.117,3.117,0,0,1,.351-1.743l.618-1.165a.627.627,0,0,0-.058-.676.734.734,0,0,0-.194-.167,2.108,2.108,0,0,0-2.439.176,3.5,3.5,0,0,0-.622.688,8.266,8.266,0,0,0-1.552,3.6l-.006.029a1.906,1.906,0,0,1-2.885,1.183l-10.966-6.963a1.593,1.593,0,0,0-2.195.485h0a1.58,1.58,0,0,0,.486,2.186l8.868,5.631-2.66-1.689a1.593,1.593,0,0,0-2.195.485h0a1.58,1.58,0,0,0,.486,2.187l.649.412,2.011,1.277-2.011-1.277a1.593,1.593,0,0,0-2.194.485h0a1.58,1.58,0,0,0,.486,2.186l1.015.644,1.362.865-1.362-.865a1.593,1.593,0,0,0-2.2.485h0a1.581,1.581,0,0,0,.485,2.187l4.466,2.836a6.944,6.944,0,0,0,3.443,1.076h0a8.452,8.452,0,0,1,3.23.783" transform="translate(-91.553 -261.736)" fill="none" stroke="#000" stroke-linecap="round" stroke-linejoin="round" stroke-miterlimit="10" stroke-width="1.5"/>
        <line id="Línea_998" data-name="Línea 998" x2="8.872" y2="5.578" transform="translate(45.226 56.418)" fill="none" stroke="#000" stroke-linecap="round" stroke-linejoin="round" stroke-miterlimit="10" stroke-width="1.5"/>
        <line id="Línea_999" data-name="Línea 999" x2="4.525" y2="2.845" transform="translate(36.984 51.236)" fill="none" stroke="#000" stroke-linecap="round" stroke-linejoin="round" stroke-miterlimit="10" stroke-width="1.5"/>
        <line id="Línea_1000" data-name="Línea 1000" x1="3.935" y1="2.474" transform="translate(30.612 59.83)" fill="none" stroke="#000" stroke-linecap="round" stroke-linejoin="round" stroke-miterlimit="10" stroke-width="1.5"/>
        <path id="Trazado_1035371" data-name="Trazado 1035371" d="M229.054,394.749l-6.432,8.624a1.1,1.1,0,0,1-1.536.226l-1.874-1.387a1.1,1.1,0,0,1-.227-1.532l6.432-8.624a1.1,1.1,0,0,1,1.536-.226l1.874,1.387A1.1,1.1,0,0,1,229.054,394.749Z" transform="translate(-192.285 -343.463)" fill="none" stroke="#000" stroke-linecap="round" stroke-linejoin="round" stroke-miterlimit="10" stroke-width="1.5"/>
        <ellipse id="Elipse_12464" data-name="Elipse 12464" cx="2.71" cy="2.7" rx="2.71" ry="2.7" transform="translate(52.051 32.713)" fill="none" stroke="#000" stroke-linecap="round" stroke-linejoin="round" stroke-miterlimit="10" stroke-width="1.5"/>
        <ellipse id="Elipse_12465" data-name="Elipse 12465" cx="1.97" cy="1.962" rx="1.97" ry="1.962" transform="translate(48.975 40.677)" fill="none" stroke="#000" stroke-linecap="round" stroke-linejoin="round" stroke-miterlimit="10" stroke-width="1.5"/>
        <path id="Trazado_1035372" data-name="Trazado 1035372" d="M304.146,22.777a3.891,3.891,0,0,0-.549-5.339,5.211,5.211,0,0,0-4.863-7.057,6.109,6.109,0,0,0-.467-.617,6.486,6.486,0,0,0-7.762-1.61h0a4.733,4.733,0,0,0-6.981,2.887,5.781,5.781,0,0,0-5.258,8.734,3.693,3.693,0,0,0-.509,6.12,5.41,5.41,0,0,0,5.864,6.53,6.113,6.113,0,0,0,10.367,2.748,5.067,5.067,0,0,0,7.335-2.987,0,0,0,0,1,0,0,5.052,5.052,0,0,0,.194-1.169l.086-.038a5.772,5.772,0,0,0,2.543-8.2Z" transform="translate(-242.656 -7.5)" fill="none" stroke="#000" stroke-linecap="round" stroke-linejoin="round" stroke-miterlimit="10" stroke-width="1.5"/>
        <path id="Trazado_1035373" data-name="Trazado 1035373" d="M334.685,56.415a8.821,8.821,0,1,1-4.388-.023" transform="translate(-283.995 -50.263)" fill="none" stroke="#000" stroke-linecap="round" stroke-linejoin="round" stroke-miterlimit="10" stroke-width="1.5"/>
        <g id="Grupo_1177496" data-name="Grupo 1177496" transform="translate(46.109 10.099)">
          <path id="Trazado_1035374" data-name="Trazado 1035374" d="M375.312,90.4a2.341,2.341,0,1,1,2.341,2.333V94.67" transform="translate(-375.312 -88.064)" fill="none" stroke="#000" stroke-linecap="round" stroke-linejoin="round" stroke-miterlimit="10" stroke-width="1.5"/>
          <line id="Línea_1001" data-name="Línea 1001" transform="translate(2.341 9.364)" fill="none" stroke="#000" stroke-linecap="round" stroke-linejoin="round" stroke-miterlimit="10" stroke-width="1.5"/>
        </g>
      </g>
    </g>
  </g>
</svg>
