<svg xmlns="http://www.w3.org/2000/svg" xmlns:xlink="http://www.w3.org/1999/xlink" width="109.601" height="109.601" viewBox="0 0 109.601 109.601">
  <defs>
    <filter id="Trazado_982547" x="0" y="0" width="109.601" height="109.601" filterUnits="userSpaceOnUse">
      <feOffset dy="3" input="SourceAlpha"/>
      <feGaussianBlur stdDeviation="3" result="blur"/>
      <feFlood flood-opacity="0.161"/>
      <feComposite operator="in" in2="blur"/>
      <feComposite in="SourceGraphic"/>
    </filter>
  </defs>
  <g id="Grupo_1177505" data-name="Grupo 1177505" transform="translate(-195.5 -5247.725)">
    <g id="Grupo_1177424" data-name="Grupo 1177424" transform="translate(204.5 5253.725)">
      <g id="Grupo_1172010" data-name="Grupo 1172010">
        <g id="Grupo_1171046" data-name="Grupo 1171046">
          <g id="Grupo_1148525" data-name="Grupo 1148525">
            <g transform="matrix(1, 0, 0, 1, -9, -6)" filter="url(#Trazado_982547)">
              <g id="Trazado_982547-2" data-name="Trazado 982547" transform="translate(9 6)" fill="#effbfe">
                <path d="M 45.80029296875 90.10059356689453 C 39.81912994384766 90.10059356689453 34.01768112182617 88.92950439453125 28.55708122253418 86.61986541748047 C 23.28201866149902 84.38870239257812 18.54420471191406 81.19428253173828 14.47525501251221 77.12534332275391 C 10.40631771087646 73.056396484375 7.211893081665039 68.31858062744141 4.980730533599854 63.04350662231445 C 2.671092987060547 57.58291625976562 1.500005483627319 51.78145599365234 1.500005483627319 45.80029296875 C 1.500005483627319 39.81912994384766 2.671092987060547 34.01768112182617 4.980730533599854 28.55708122253418 C 7.211893081665039 23.28201866149902 10.40631771087646 18.54420471191406 14.47525501251221 14.47525501251221 C 18.54420471191406 10.40631771087646 23.28201866149902 7.211893081665039 28.55708122253418 4.980730533599854 C 34.01768112182617 2.671092987060547 39.81912994384766 1.500005483627319 45.80029296875 1.500005483627319 C 51.78145599365234 1.500005483627319 57.58291625976562 2.671092987060547 63.04350662231445 4.980730533599854 C 68.31858062744141 7.211893081665039 73.056396484375 10.40631771087646 77.12534332275391 14.47525501251221 C 81.19428253173828 18.54420471191406 84.38870239257812 23.28201866149902 86.61986541748047 28.55708122253418 C 88.92950439453125 34.01768112182617 90.10059356689453 39.81912994384766 90.10059356689453 45.80029296875 C 90.10059356689453 51.78145599365234 88.92950439453125 57.58291625976562 86.61986541748047 63.04350662231445 C 84.38870239257812 68.31858062744141 81.19428253173828 73.056396484375 77.12534332275391 77.12534332275391 C 73.056396484375 81.19428253173828 68.31858062744141 84.38870239257812 63.04350662231445 86.61986541748047 C 57.58291625976562 88.92950439453125 51.78145599365234 90.10059356689453 45.80029296875 90.10059356689453 Z" stroke="none"/>
                <path d="M 45.80029296875 2.999992370605469 C 40.02096557617188 2.999992370605469 34.41610717773438 4.131210327148438 29.14140701293945 6.362220764160156 C 24.04513549804688 8.51776123046875 19.46759033203125 11.60423278808594 15.53590393066406 15.53590393066406 C 11.60423278808594 19.46759033203125 8.51776123046875 24.04513549804688 6.362220764160156 29.14140701293945 C 4.131210327148438 34.41610717773438 2.999992370605469 40.02096557617188 2.999992370605469 45.80029296875 C 2.999992370605469 51.57962036132812 4.131210327148438 57.18447875976562 6.362220764160156 62.45917892456055 C 8.51776123046875 67.55545043945312 11.60423278808594 72.13299560546875 15.53590393066406 76.06466674804688 C 19.46759033203125 79.996337890625 24.04513549804688 83.08280944824219 29.14140701293945 85.23834991455078 C 34.41610717773438 87.4693603515625 40.02096557617188 88.60057830810547 45.80029296875 88.60057830810547 C 51.57962036132812 88.60057830810547 57.18447875976562 87.4693603515625 62.45917892456055 85.23834991455078 C 67.55545043945312 83.08280944824219 72.13299560546875 79.996337890625 76.06466674804688 76.06466674804688 C 79.996337890625 72.13299560546875 83.08280944824219 67.55545043945312 85.23834991455078 62.45917892456055 C 87.4693603515625 57.18447875976562 88.60057830810547 51.57962036132812 88.60057830810547 45.80029296875 C 88.60057830810547 40.02096557617188 87.4693603515625 34.41610717773438 85.23834991455078 29.14140701293945 C 83.08280944824219 24.04513549804688 79.996337890625 19.46759033203125 76.06466674804688 15.53590393066406 C 72.13299560546875 11.60423278808594 67.55545043945312 8.51776123046875 62.45917892456055 6.362220764160156 C 57.18447875976562 4.131210327148438 51.57962036132812 2.999992370605469 45.80029296875 2.999992370605469 M 45.80029296875 -7.62939453125e-06 C 71.0950927734375 -7.62939453125e-06 91.60057830810547 20.5054931640625 91.60057830810547 45.80029296875 C 91.60057830810547 71.0950927734375 71.0950927734375 91.60057830810547 45.80029296875 91.60057830810547 C 20.5054931640625 91.60057830810547 -7.62939453125e-06 71.0950927734375 -7.62939453125e-06 45.80029296875 C -7.62939453125e-06 20.5054931640625 20.5054931640625 -7.62939453125e-06 45.80029296875 -7.62939453125e-06 Z" stroke="none" fill="#2cc3dc"/>
              </g>
            </g>
          </g>
        </g>
      </g>
    </g>
    <g id="school_11355778" transform="translate(214.217 5263.022)">
      <path id="Trazado_1035375" data-name="Trazado 1035375" d="M67.157,62.867a14.637,14.637,0,0,1-.845-10.987,3.107,3.107,0,1,0-5.9-1.945,20.042,20.042,0,0,0-.966,5l-4.995-5a12.588,12.588,0,0,0-1.915-15.211c-.073-.073-.148-.141-.223-.212h2.776A.513.513,0,0,0,55.6,34V19.958h5.358a2.422,2.422,0,0,0,0-4.845H17.432a2.422,2.422,0,1,0,0,4.845h.8v8.308a1.705,1.705,0,0,0-.364,3.1l-.02.174-1.02,7.027a1.324,1.324,0,0,0,1.316,1.472h1.2a1.324,1.324,0,0,0,1.315-1.474l-1.028-7.027-.018-.17a1.7,1.7,0,0,0-.358-3.1V19.958H22.79V34a.513.513,0,0,0,.513.513h2.23c-.079.074-.162.139-.239.216a12.6,12.6,0,0,0-1.9,15.259L19.44,53.939l-3.562-3.562a3.077,3.077,0,0,0-4.352,4.352l3.562,3.562-3.562,3.562a3.077,3.077,0,0,0,4.352,4.352l3.562-3.562L23,66.205a3.077,3.077,0,1,0,4.352-4.352l-3.562-3.562,3.953-3.953a12.6,12.6,0,0,0,11.2.787,12.506,12.506,0,0,0,11.111-.8l4.995,5a20.029,20.029,0,0,0-5,.966A3.107,3.107,0,1,0,52,66.192a14.631,14.631,0,0,1,10.986.844,3.107,3.107,0,0,0,4.169-4.169Zm-28-15.355a6,6,0,0,1-.011-7.876,6.375,6.375,0,0,1,.011,7.876ZM32.829,37.358a12.478,12.478,0,0,0,.037,12.456,6.36,6.36,0,0,1-.037-12.456Zm12.407.4a6.009,6.009,0,0,1,.014,11.616A12.578,12.578,0,0,0,45.237,37.758Z" transform="translate(-1.946 -1.947)" fill="#e6e7e8"/>
      <g id="Grupo_1177504" data-name="Grupo 1177504" transform="translate(6.626 11.112)">
        <g id="Grupo_1177499" data-name="Grupo 1177499" transform="translate(0.511 18.884)">
          <path id="Trazado_1035376" data-name="Trazado 1035376" d="M37.846,47.893H23.419a11.9,11.9,0,0,0-2.892,16.064l-4.6,4.6L12,64.636a2.564,2.564,0,0,0-3.626,3.626L12.3,72.187,8.372,76.112A2.564,2.564,0,0,0,12,79.738l3.925-3.925,3.925,3.925a2.564,2.564,0,1,0,3.626-3.626l-3.925-3.925,4.6-4.6a12.007,12.007,0,0,0,14.971-18.6,11.832,11.832,0,0,0-1.278-1.093ZM35.5,62.344a6.881,6.881,0,1,1,0-9.732A6.889,6.889,0,0,1,35.5,62.344Z" transform="translate(-7.621 -47.893)" fill="#fa759e"/>
          <path id="Trazado_1035377" data-name="Trazado 1035377" d="M82.677,76.993A15.162,15.162,0,0,1,81.8,65.615a2.594,2.594,0,1,0-4.926-1.624,19.515,19.515,0,0,0-.981,6.033l-6.115-6.118a11.882,11.882,0,0,0-2.9-16.013H52.462a11.881,11.881,0,0,0-2.6,16.452,6.853,6.853,0,0,0,5.135-2c.055-.055.106-.113.159-.17-.033-.032-.068-.059-.1-.091a6.545,6.545,0,1,1,5.176,1.883,11.842,11.842,0,0,1-5.293,4.508,12.038,12.038,0,0,0,11.178-.9l6.115,6.118a19.5,19.5,0,0,0-6.033.982A2.594,2.594,0,0,0,67.819,79.6a15.157,15.157,0,0,1,11.377.873,2.594,2.594,0,0,0,3.48-3.481Z" transform="translate(-27.117 -47.893)" fill="#0089ef"/>
        </g>
        <g id="Grupo_1177503" data-name="Grupo 1177503">
          <g id="Grupo_1177501" data-name="Grupo 1177501" transform="translate(4.897 0.514)">
            <g id="Grupo_1177500" data-name="Grupo 1177500">
              <path id="Trazado_1035378" data-name="Trazado 1035378" d="M31.317,19.549H63.1V34.1H31.317Z" transform="translate(-23.537 -15.731)" fill="#6dc9f7"/>
              <path id="Trazado_1035379" data-name="Trazado 1035379" d="M31.317,19.549H63.1V34.1H31.317Z" transform="translate(-23.537 -15.731)" fill="#6dc9f7"/>
              <path id="Trazado_1035380" data-name="Trazado 1035380" d="M90.229,19.549h1.54V34.1h-1.54Z" transform="translate(-52.203 -15.731)" fill="#fff"/>
              <path id="Trazado_1035381" data-name="Trazado 1035381" d="M61.6,15.931H18.073a1.909,1.909,0,1,1,0-3.818H61.6a1.909,1.909,0,0,1,0,3.818Z" transform="translate(-16.164 -12.113)" fill="#6dc9f7"/>
            </g>
          </g>
          <g id="Grupo_1177502" data-name="Grupo 1177502">
            <path id="Trazado_1035382" data-name="Trazado 1035382" d="M63.157,58.866a14.636,14.636,0,0,1-.845-10.987,3.107,3.107,0,0,0-5.9-1.945,20.042,20.042,0,0,0-.966,5l-4.995-5a12.589,12.589,0,0,0-1.915-15.211c-.073-.073-.15-.142-.225-.213H51.09A.513.513,0,0,0,51.6,30V15.957h5.358a2.423,2.423,0,0,0,0-4.845H50.008a.513.513,0,0,0,0,1.027h6.953a1.4,1.4,0,0,1,0,2.791H13.432a1.4,1.4,0,0,1,0-2.791H41.28a.513.513,0,1,0,0-1.027H13.432a2.423,2.423,0,0,0,0,4.845h.8v8.307a1.705,1.705,0,0,0-.364,3.1l-.02.175-1.02,7.027a1.323,1.323,0,0,0,1.316,1.472h1.2a1.324,1.324,0,0,0,1.315-1.474l-1.028-7.027-.018-.17a1.7,1.7,0,0,0-.358-3.1V15.957H18.79V30a.513.513,0,0,0,.513.513h2.22c-.077.072-.155.142-.229.217a12.6,12.6,0,0,0-1.9,15.259L15.44,49.938l-3.562-3.562a3.077,3.077,0,1,0-4.352,4.352l3.562,3.562L7.526,57.852A3.077,3.077,0,1,0,11.878,62.2l3.562-3.562L19,62.2a3.077,3.077,0,1,0,4.352-4.352l-3.562-3.562,3.953-3.953a12.6,12.6,0,0,0,11.2.787,12.506,12.506,0,0,0,11.109-.8l4.995,5a20.07,20.07,0,0,0-5,.966A3.107,3.107,0,1,0,48,62.192a14.639,14.639,0,0,1,10.987.845,3.107,3.107,0,0,0,4.169-4.171ZM19.817,15.957H50.576V29.483H19.817Zm4.13,33.3a.513.513,0,0,0-.64.069l-4.6,4.6a.513.513,0,0,0,0,.726l3.925,3.925a2.05,2.05,0,0,1-2.9,2.9L15.8,57.553a.513.513,0,0,0-.726,0l-3.925,3.925a2.05,2.05,0,0,1-2.9-2.9l3.925-3.925a.513.513,0,0,0,0-.726L8.252,50a2.05,2.05,0,1,1,2.9-2.9l3.925,3.925a.513.513,0,0,0,.726,0l4.6-4.6a.514.514,0,0,0,.069-.64A11.561,11.561,0,0,1,22.02,31.453,11.383,11.383,0,0,1,23.1,30.51h7.967c-.075.07-.152.139-.225.213a12.542,12.542,0,0,0-1.268,1.5,7.4,7.4,0,1,0,6.291,2.7,6,6,0,0,1,4.051-1.356A11.48,11.48,0,0,1,23.947,49.254Zm4.881-15.895a12.478,12.478,0,0,0,.039,12.454,6.359,6.359,0,0,1-.039-12.454Zm6.309,2.282a6.368,6.368,0,0,1,.017,7.869,6.017,6.017,0,0,1-.017-7.869ZM41.2,33.751a6.008,6.008,0,0,1,.032,11.626A12.563,12.563,0,0,0,41.2,33.751ZM61.849,61.728a2.076,2.076,0,0,1-2.4.389,15.677,15.677,0,0,0-11.768-.9,2.081,2.081,0,0,1-2.122-3.448,2.063,2.063,0,0,1,.82-.5,19.088,19.088,0,0,1,5.875-.955.513.513,0,0,0,.36-.876L46.5,49.314a.514.514,0,0,0-.639-.07A11.466,11.466,0,0,1,36.245,50.5,12.308,12.308,0,0,0,39,48.435a12.476,12.476,0,0,0,1.542-1.889,7.039,7.039,0,1,0-6.093-2.283,6.345,6.345,0,0,1-4.286,1.681,11.367,11.367,0,0,1,2.484-15.436H46.731a11.352,11.352,0,0,1,1.079.939,11.552,11.552,0,0,1,1.558,14.286.513.513,0,0,0,.07.639l6.115,6.118a.513.513,0,0,0,.876-.36,19.078,19.078,0,0,1,.955-5.875,2.08,2.08,0,1,1,3.951,1.3,15.677,15.677,0,0,0,.9,11.769,2.077,2.077,0,0,1-.389,2.4Z" transform="translate(-6.626 -11.112)" fill="#3a2c60"/>
            <path id="Trazado_1035383" data-name="Trazado 1035383" d="M78.135,12.14H82.3a.513.513,0,0,0,0-1.027H78.135a.513.513,0,1,0,0,1.027Z" transform="translate(-41.172 -11.112)" fill="#3a2c60"/>
          </g>
        </g>
      </g>
    </g>
  </g>
</svg>
