<svg xmlns="http://www.w3.org/2000/svg" xmlns:xlink="http://www.w3.org/1999/xlink" width="109.601" height="109.601" viewBox="0 0 109.601 109.601">
  <defs>
    <filter id="Trazado_982547" x="0" y="0" width="109.601" height="109.601" filterUnits="userSpaceOnUse">
      <feOffset dy="3" input="SourceAlpha"/>
      <feGaussianBlur stdDeviation="3" result="blur"/>
      <feFlood flood-opacity="0.161"/>
      <feComposite operator="in" in2="blur"/>
      <feComposite in="SourceGraphic"/>
    </filter>
  </defs>
  <g id="Grupo_1177512" data-name="Grupo 1177512" transform="translate(-615.5 -5247.725)">
    <g id="Grupo_1177425" data-name="Grupo 1177425" transform="translate(624.5 5253.725)">
      <g id="Grupo_1172010" data-name="Grupo 1172010">
        <g id="Grupo_1171046" data-name="Grupo 1171046">
          <g id="Grupo_1148525" data-name="Grupo 1148525">
            <g transform="matrix(1, 0, 0, 1, -9, -6)" filter="url(#Trazado_982547)">
              <g id="Trazado_982547-2" data-name="Trazado 982547" transform="translate(9 6)" fill="#effbfe">
                <path d="M 45.80029296875 90.10059356689453 C 39.81912994384766 90.10059356689453 34.01768112182617 88.92950439453125 28.55708122253418 86.61986541748047 C 23.28201866149902 84.38870239257812 18.54420471191406 81.19428253173828 14.47525501251221 77.12534332275391 C 10.40631771087646 73.056396484375 7.211893081665039 68.31858062744141 4.980730533599854 63.04350662231445 C 2.671092987060547 57.58291625976562 1.500005483627319 51.78145599365234 1.500005483627319 45.80029296875 C 1.500005483627319 39.81912994384766 2.671092987060547 34.01768112182617 4.980730533599854 28.55708122253418 C 7.211893081665039 23.28201866149902 10.40631771087646 18.54420471191406 14.47525501251221 14.47525501251221 C 18.54420471191406 10.40631771087646 23.28201866149902 7.211893081665039 28.55708122253418 4.980730533599854 C 34.01768112182617 2.671092987060547 39.81912994384766 1.500005483627319 45.80029296875 1.500005483627319 C 51.78145599365234 1.500005483627319 57.58291625976562 2.671092987060547 63.04350662231445 4.980730533599854 C 68.31858062744141 7.211893081665039 73.056396484375 10.40631771087646 77.12534332275391 14.47525501251221 C 81.19428253173828 18.54420471191406 84.38870239257812 23.28201866149902 86.61986541748047 28.55708122253418 C 88.92950439453125 34.01768112182617 90.10059356689453 39.81912994384766 90.10059356689453 45.80029296875 C 90.10059356689453 51.78145599365234 88.92950439453125 57.58291625976562 86.61986541748047 63.04350662231445 C 84.38870239257812 68.31858062744141 81.19428253173828 73.056396484375 77.12534332275391 77.12534332275391 C 73.056396484375 81.19428253173828 68.31858062744141 84.38870239257812 63.04350662231445 86.61986541748047 C 57.58291625976562 88.92950439453125 51.78145599365234 90.10059356689453 45.80029296875 90.10059356689453 Z" stroke="none"/>
                <path d="M 45.80029296875 2.999992370605469 C 40.02096557617188 2.999992370605469 34.41610717773438 4.131210327148438 29.14140701293945 6.362220764160156 C 24.04513549804688 8.51776123046875 19.46759033203125 11.60423278808594 15.53590393066406 15.53590393066406 C 11.60423278808594 19.46759033203125 8.51776123046875 24.04513549804688 6.362220764160156 29.14140701293945 C 4.131210327148438 34.41610717773438 2.999992370605469 40.02096557617188 2.999992370605469 45.80029296875 C 2.999992370605469 51.57962036132812 4.131210327148438 57.18447875976562 6.362220764160156 62.45917892456055 C 8.51776123046875 67.55545043945312 11.60423278808594 72.13299560546875 15.53590393066406 76.06466674804688 C 19.46759033203125 79.996337890625 24.04513549804688 83.08280944824219 29.14140701293945 85.23834991455078 C 34.41610717773438 87.4693603515625 40.02096557617188 88.60057830810547 45.80029296875 88.60057830810547 C 51.57962036132812 88.60057830810547 57.18447875976562 87.4693603515625 62.45917892456055 85.23834991455078 C 67.55545043945312 83.08280944824219 72.13299560546875 79.996337890625 76.06466674804688 76.06466674804688 C 79.996337890625 72.13299560546875 83.08280944824219 67.55545043945312 85.23834991455078 62.45917892456055 C 87.4693603515625 57.18447875976562 88.60057830810547 51.57962036132812 88.60057830810547 45.80029296875 C 88.60057830810547 40.02096557617188 87.4693603515625 34.41610717773438 85.23834991455078 29.14140701293945 C 83.08280944824219 24.04513549804688 79.996337890625 19.46759033203125 76.06466674804688 15.53590393066406 C 72.13299560546875 11.60423278808594 67.55545043945312 8.51776123046875 62.45917892456055 6.362220764160156 C 57.18447875976562 4.131210327148438 51.57962036132812 2.999992370605469 45.80029296875 2.999992370605469 M 45.80029296875 -7.62939453125e-06 C 71.0950927734375 -7.62939453125e-06 91.60057830810547 20.5054931640625 91.60057830810547 45.80029296875 C 91.60057830810547 71.0950927734375 71.0950927734375 91.60057830810547 45.80029296875 91.60057830810547 C 20.5054931640625 91.60057830810547 -7.62939453125e-06 71.0950927734375 -7.62939453125e-06 45.80029296875 C -7.62939453125e-06 20.5054931640625 20.5054931640625 -7.62939453125e-06 45.80029296875 -7.62939453125e-06 Z" stroke="none" fill="#2cc3dc"/>
              </g>
            </g>
          </g>
        </g>
      </g>
    </g>
    <g id="environmental-education_13441814" transform="translate(632.116 5262.475)">
      <g id="Grupo_1177507" data-name="Grupo 1177507" transform="translate(9.039 7.768)">
        <circle id="Elipse_12466" data-name="Elipse 12466" cx="21.822" cy="21.822" r="21.822" transform="translate(7.431 0)" fill="#b6e6fa"/>
        <path id="Trazado_1035384" data-name="Trazado 1035384" d="M74.988,29.59A21.822,21.822,0,0,1,95.335,7.819c-.487-.033-.979-.051-1.474-.051a21.822,21.822,0,0,0,0,43.643c.5,0,.987-.018,1.474-.051A21.822,21.822,0,0,1,74.988,29.59Z" transform="translate(-64.608 -7.768)" fill="#54c9f3"/>
        <path id="Trazado_1035385" data-name="Trazado 1035385" d="M229.042,13.469,231.729,19h4.5l3.814-3.8A21.851,21.851,0,0,0,219.18,8.226l4.466,5.243Z" transform="translate(-194.393 -7.768)" fill="#b6efbb"/>
        <path id="Trazado_1035386" data-name="Trazado 1035386" d="M78.575,84.436l5.743-4.464-1.648-5.6H77.093a21.864,21.864,0,0,0-4.5,18.875l5.981-4.059Z" transform="translate(-64.608 -66.52)" fill="#b6efbb"/>
        <path id="Trazado_1035387" data-name="Trazado 1035387" d="M388.721,129.613l-5.65,2.134V134.3l2.735,2.76-1.2,4.524L388.539,145a21.9,21.9,0,0,0,.182-15.383Z" transform="translate(-338.952 -115.241)" fill="#b6efbb"/>
        <path id="Trazado_1035388" data-name="Trazado 1035388" d="M67.329,414.608l-.986-4.13L38.292,417.2l-28.267-6.723-.986,4.13,29.253,6.933Z" transform="translate(-9.039 -362.976)" fill="#ffaa81"/>
        <path id="Trazado_1035389" data-name="Trazado 1035389" d="M71.835,379.749h0a7.779,7.779,0,0,0-6.006-7.472l-17.636-4.211-1.126,5.795,24.767,5.888,24.758-5.937-1.126-5.795-17.842,4.26a7.586,7.586,0,0,0-5.79,7.472h0" transform="translate(-42.582 -325.524)" fill="#fff"/>
        <g id="Grupo_1177506" data-name="Grupo 1177506" transform="translate(23.355 17.246)">
          <path id="Trazado_1035390" data-name="Trazado 1035390" d="M212.936,158.083a4.815,4.815,0,0,1,1.2-2.915c1.594-1.595,4.64-1.134,4.64-1.134s.461,3.046-1.134,4.64-4.7,1.134-4.7,1.134-3.108.461-4.7-1.134-1.134-4.64-1.134-4.64,3.046-.461,4.64,1.134a4.806,4.806,0,0,1,1.195,2.915" transform="translate(-207.039 -153.973)" fill="#feef8f"/>
        </g>
        <path id="Trazado_1035391" data-name="Trazado 1035391" d="M174.384,221.107s-6.58-1-10.024,2.448a10.051,10.051,0,0,0-2.5,6.3,10.759,10.759,0,0,0-2.664-6.3c-3.444-3.444-10.024-2.448-10.024-2.448s-1,6.58,2.448,10.024,10.322,2.448,10.322,2.448,6.549,1,9.993-2.448S174.384,221.107,174.384,221.107Z" transform="translate(-132.526 -195.825)" fill="#feef8f"/>
        <path id="Trazado_1035392" data-name="Trazado 1035392" d="M74.988,88.342a21.732,21.732,0,0,1,5.054-13.965H77.093a21.864,21.864,0,0,0-4.5,18.875l2.618-1.777A22.018,22.018,0,0,1,74.988,88.342Z" transform="translate(-64.608 -66.52)" fill="#54e072"/>
        <path id="Trazado_1035393" data-name="Trazado 1035393" d="M154.57,231.133c-3.444-3.444-2.448-10.024-2.448-10.024s.255-.038.69-.074a17.44,17.44,0,0,0-3.638.074s-1,6.58,2.448,10.024c2.738,2.738,7.647,2.67,9.544,2.527C158.987,233.493,156.33,232.893,154.57,231.133Z" transform="translate(-132.526 -195.827)" fill="#f7d700"/>
        <path id="Trazado_1035394" data-name="Trazado 1035394" d="M260.766,233.578l-.082-3.726a10.05,10.05,0,0,1,2.5-6.3,10.175,10.175,0,0,1,6.385-2.522c-1.777-.146-6.567-.245-9.334,2.522a10.052,10.052,0,0,0-2.5,6.3l.082,3.726a17.286,17.286,0,0,0,3.629.074C261.018,233.616,260.766,233.578,260.766,233.578Z" transform="translate(-228.4 -195.824)" fill="#f7d700"/>
        <path id="Trazado_1035395" data-name="Trazado 1035395" d="M51.038,369.114l-2.845-.679-1.126,5.795,3.059.727Z" transform="translate(-42.582 -325.892)" fill="#dededf"/>
        <path id="Trazado_1035396" data-name="Trazado 1035396" d="M13.106,411.211l-3.081-.733-.986,4.13,3.089.732Z" transform="translate(-9.039 -362.976)" fill="#fe7732"/>
      </g>
      <g id="Grupo_1177510" data-name="Grupo 1177510" transform="translate(9.039 7.768)">
        <path id="Trazado_1035397" data-name="Trazado 1035397" d="M219.18,11.652l4.466,5.243h5.4l2.687,5.529h4.5l3.814-3.8" transform="translate(-194.393 -11.194)" fill="none" stroke="#000" stroke-miterlimit="10" stroke-width="1.5"/>
        <path id="Trazado_1035398" data-name="Trazado 1035398" d="M76.743,93.252l5.981-4.059V84.436l5.743-4.464-1.648-5.6H81.242" transform="translate(-68.757 -66.52)" fill="none" stroke="#000" stroke-miterlimit="10" stroke-width="1.5"/>
        <path id="Trazado_1035399" data-name="Trazado 1035399" d="M388.722,129.613l-5.65,2.134V134.3l2.735,2.76-1.2,4.525L388.54,145" transform="translate(-338.953 -115.241)" fill="none" stroke="#000" stroke-miterlimit="10" stroke-width="1.5"/>
        <path id="Trazado_1035400" data-name="Trazado 1035400" d="M62.356,415.8l4.973-1.188-.986-4.131L38.292,417.2l-28.267-6.723-.986,4.131,29.253,6.932,22.342-5.334" transform="translate(-9.039 -362.976)" fill="none" stroke="#000" stroke-miterlimit="10" stroke-width="1.5"/>
        <g id="Grupo_1177508" data-name="Grupo 1177508" transform="translate(4.486 42.493)">
          <path id="Trazado_1035401" data-name="Trazado 1035401" d="M47.069,374.232l1.125-5.794,4.683,1.118" transform="translate(-47.069 -368.388)" fill="none" stroke="#000" stroke-miterlimit="10" stroke-width="1.5"/>
          <path id="Trazado_1035402" data-name="Trazado 1035402" d="M110.929,381.408l11.228,2.68a7.78,7.78,0,0,1,6.006,7.472" transform="translate(-103.396 -379.828)" fill="none" stroke="#000" stroke-miterlimit="10" stroke-width="1.5"/>
          <path id="Trazado_1035403" data-name="Trazado 1035403" d="M281.8,373.812l-1.126-5.795-17.842,4.26a7.586,7.586,0,0,0-5.79,7.472h0" transform="translate(-232.272 -368.017)" fill="none" stroke="#000" stroke-miterlimit="10" stroke-width="1.5"/>
        </g>
        <line id="Línea_1002" data-name="Línea 1002" y2="37.917" transform="translate(29.253 20.648)" fill="none" stroke="#000" stroke-miterlimit="10" stroke-width="1.5"/>
        <circle id="Elipse_12467" data-name="Elipse 12467" cx="21.822" cy="21.822" r="21.822" transform="translate(7.431 0)" fill="none" stroke="#000" stroke-miterlimit="10" stroke-width="1.5"/>
        <g id="Grupo_1177509" data-name="Grupo 1177509" transform="translate(23.355 17.246)">
          <path id="Trazado_1035404" data-name="Trazado 1035404" d="M212.936,158.083a4.815,4.815,0,0,1,1.2-2.915c1.594-1.595,4.64-1.134,4.64-1.134s.461,3.046-1.134,4.64-4.7,1.134-4.7,1.134-3.108.461-4.7-1.134-1.134-4.64-1.134-4.64,3.046-.461,4.64,1.134a4.806,4.806,0,0,1,1.195,2.915" transform="translate(-207.039 -153.973)" fill="none" stroke="#000" stroke-miterlimit="10" stroke-width="1.5"/>
        </g>
        <path id="Trazado_1035405" data-name="Trazado 1035405" d="M174.384,221.107s-6.58-1-10.024,2.448a10.051,10.051,0,0,0-2.5,6.3,10.759,10.759,0,0,0-2.664-6.3c-3.444-3.444-10.024-2.448-10.024-2.448s-1,6.58,2.448,10.024,10.322,2.448,10.322,2.448,6.549,1,9.993-2.448S174.384,221.107,174.384,221.107Z" transform="translate(-132.526 -195.825)" fill="none" stroke="#000" stroke-miterlimit="10" stroke-width="1.5"/>
        <line id="Línea_1003" data-name="Línea 1003" x1="12.441" y2="12.472" transform="translate(29.417 25.282)" fill="none" stroke="#000" stroke-miterlimit="10" stroke-width="1.5"/>
        <line id="Línea_1004" data-name="Línea 1004" x2="12.77" y2="12.518" transform="translate(16.647 25.282)" fill="none" stroke="#000" stroke-miterlimit="10" stroke-width="1.5"/>
      </g>
      <g id="Grupo_1177511" data-name="Grupo 1177511" transform="translate(35.638 19.951)">
        <line id="Línea_1005" data-name="Línea 1005" x2="1.769" fill="none" stroke="#000" stroke-miterlimit="10" stroke-width="1.5"/>
        <line id="Línea_1006" data-name="Línea 1006" x2="1.769" transform="translate(3.539)" fill="none" stroke="#000" stroke-miterlimit="10" stroke-width="1.5"/>
      </g>
    </g>
  </g>
</svg>
