<svg xmlns="http://www.w3.org/2000/svg" xmlns:xlink="http://www.w3.org/1999/xlink" width="98.104" height="98.104" viewBox="0 0 98.104 98.104">
  <defs>
    <filter id="Trazado_904820" x="0" y="0" width="98.104" height="98.104" filterUnits="userSpaceOnUse">
      <feOffset dy="3" input="SourceAlpha"/>
      <feGaussianBlur stdDeviation="3" result="blur"/>
      <feFlood flood-opacity="0.161"/>
      <feComposite operator="in" in2="blur"/>
      <feComposite in="SourceGraphic"/>
    </filter>
  </defs>
  <g id="Grupo_1177636" data-name="Grupo 1177636" transform="translate(-204.418 -564.39)">
    <g id="Grupo_1177450" data-name="Grupo 1177450" transform="translate(-415.581 38.39)">
      <g id="Grupo_1173585" data-name="Grupo 1173585" transform="translate(629 532)">
        <g id="Grupo_1173428" data-name="Grupo 1173428" transform="translate(0 0)">
          <g id="Grupo_1171958" data-name="Grupo 1171958">
            <g id="Grupo_1167341" data-name="Grupo 1167341">
              <g id="Grupo_1166792" data-name="Grupo 1166792">
                <g transform="matrix(1, 0, 0, 1, -9, -6)" filter="url(#Trazado_904820)">
                  <g id="Trazado_904820-2" data-name="Trazado 904820" transform="translate(9 6)" fill="#effbfe">
                    <path d="M 40.05199813842773 78.60399627685547 C 34.84685516357422 78.60399627685547 29.79819869995117 77.58489227294922 25.04628753662109 75.57500457763672 C 20.45572090148926 73.63336181640625 16.3326530456543 70.85340881347656 12.7916202545166 67.31237030029297 C 9.250587463378906 63.77133941650391 6.47063159942627 59.64828491210938 4.528986930847168 55.05771636962891 C 2.519098043441772 50.30579376220703 1.499998092651367 45.25713729858398 1.499998092651367 40.05199432373047 C 1.499998092651367 34.84685134887695 2.519098043441772 29.79819488525391 4.528986930847168 25.04627227783203 C 6.47063159942627 20.45571708679199 9.250587463378906 16.33264923095703 12.7916202545166 12.79161643981934 C 16.3326530456543 9.250583648681641 20.45572090148926 6.470638751983643 25.04628753662109 4.528994560241699 C 29.79819869995117 2.519105434417725 34.84685516357422 1.500005483627319 40.05199813842773 1.500005483627319 C 45.25714111328125 1.500005483627319 50.3057975769043 2.519105434417725 55.05772018432617 4.528994560241699 C 59.64828872680664 6.470638751983643 63.77134323120117 9.250583648681641 67.3123779296875 12.79161643981934 C 70.85340881347656 16.33264923095703 73.63336181640625 20.45571708679199 75.57501220703125 25.04627227783203 C 77.58489990234375 29.79819488525391 78.60399627685547 34.84685134887695 78.60399627685547 40.05199432373047 C 78.60399627685547 45.25713729858398 77.58489990234375 50.30579376220703 75.57501220703125 55.05771636962891 C 73.63336181640625 59.64828491210938 70.85340881347656 63.77133941650391 67.3123779296875 67.31237030029297 C 63.77134323120117 70.85340881347656 59.64828872680664 73.63336181640625 55.05772018432617 75.57500457763672 C 50.3057975769043 77.58489227294922 45.25714111328125 78.60399627685547 40.05199813842773 78.60399627685547 Z" stroke="none"/>
                    <path d="M 40.05199813842773 2.999992370605469 C 35.04869079589844 2.999992370605469 30.19664001464844 3.979217529296875 25.63061141967773 5.910484313964844 C 21.21883773803711 7.776512145996094 17.25603866577148 10.44851684570312 13.85227966308594 13.85227203369141 C 10.44851684570312 17.25603485107422 7.776519775390625 21.21883392333984 5.910491943359375 25.63060760498047 C 3.979225158691406 30.19663619995117 3 35.04868698120117 3 40.05199432373047 C 3 45.05530166625977 3.979225158691406 49.90735626220703 5.910491943359375 54.47338104248047 C 7.776519775390625 58.88513946533203 10.44851684570312 62.84795379638672 13.85227966308594 66.25170135498047 C 17.25603866577148 69.65546417236328 21.21883773803711 72.32746124267578 25.63061141967773 74.19348907470703 C 30.19664001464844 76.124755859375 35.04869079589844 77.10398101806641 40.05199813842773 77.10398101806641 C 45.05530548095703 77.10398101806641 49.90735626220703 76.124755859375 54.47338485717773 74.19348907470703 C 58.88515853881836 72.32746124267578 62.84795761108398 69.65546417236328 66.25171661376953 66.25170135498047 C 69.65547943115234 62.84795379638672 72.32747650146484 58.88513946533203 74.19350433349609 54.47338104248047 C 76.12477111816406 49.90735626220703 77.10399627685547 45.05530166625977 77.10399627685547 40.05199432373047 C 77.10399627685547 35.04868698120117 76.12477111816406 30.19663619995117 74.19350433349609 25.63060760498047 C 72.32747650146484 21.21883392333984 69.65547943115234 17.25603485107422 66.25171661376953 13.85227203369141 C 62.84795761108398 10.44851684570312 58.88515853881836 7.776512145996094 54.47338485717773 5.910484313964844 C 49.90735626220703 3.979217529296875 45.05530548095703 2.999992370605469 40.05199813842773 2.999992370605469 M 40.05199813842773 -7.62939453125e-06 C 62.17210388183594 -7.62939453125e-06 80.10399627685547 17.93188858032227 80.10399627685547 40.05199432373047 C 80.10399627685547 62.17210006713867 62.17210388183594 80.10398101806641 40.05199813842773 80.10398101806641 C 17.93189239501953 80.10398101806641 0 62.17210006713867 0 40.05199432373047 C 0 17.93188858032227 17.93189239501953 -7.62939453125e-06 40.05199813842773 -7.62939453125e-06 Z" stroke="none" fill="#497f88"/>
                  </g>
                </g>
              </g>
            </g>
          </g>
        </g>
      </g>
    </g>
    <g id="storytelling_5190594" transform="translate(226.13 579.393)">
      <path id="Trazado_1035614" data-name="Trazado 1035614" d="M26.2,29.645a9.886,9.886,0,0,0,.536-1.172V23.536a5.725,5.725,0,0,1,.2-1.514A9.941,9.941,0,1,0,20.03,34.549l2.329,1.344a.32.32,0,0,0,.481-.277V33.3a9.995,9.995,0,0,0,2.293-2.053,2.617,2.617,0,0,1,1.068-1.6Z" transform="translate(-6.699 -6.7)" fill="#ffd15b"/>
      <g id="Grupo_1177617" data-name="Grupo 1177617" transform="translate(0.801 8.312)">
        <g id="Grupo_1177616" data-name="Grupo 1177616">
          <path id="Trazado_1035615" data-name="Trazado 1035615" d="M12.467,24.81a9.982,9.982,0,0,1,7.462-9.483,9.941,9.941,0,1,0-.012,19.251,9.944,9.944,0,0,1-7.45-9.767Z" transform="translate(-7.5 -15.012)" fill="#fdb441"/>
        </g>
      </g>
      <g id="Grupo_1177627" data-name="Grupo 1177627" transform="translate(16.471 11.112)">
        <g id="Grupo_1177626" data-name="Grupo 1177626" transform="translate(0 0)">
          <g id="Grupo_1177618" data-name="Grupo 1177618" transform="translate(0 23.353)">
            <path id="Trazado_1035616" data-name="Trazado 1035616" d="M176.629,272.836h2.237a1.112,1.112,0,0,1,.6.175v-8.555a4.562,4.562,0,0,0-4.2-4.547,3.739,3.739,0,0,1-3.105,1.653h-.112v3.915a.534.534,0,0,1-.783.472l-4.167-2.195a.533.533,0,0,0-.5,0l-4.167,2.195a.534.534,0,0,1-.783-.472v-3.915h-.112a3.739,3.739,0,0,1-3.108-1.657,4.507,4.507,0,0,0-4.2,4.5v8.609a1.112,1.112,0,0,1,.6-.175h2.237a1.118,1.118,0,0,1,1.118,1.118v3.467a1.118,1.118,0,0,1-1.118,1.118h-2.237a1.111,1.111,0,0,1-.6-.175v2.952a1.068,1.068,0,0,0,1.068,1.068h23.1a1.068,1.068,0,0,0,1.068-1.068v-2.952a1.112,1.112,0,0,1-.6.175h-2.237a1.118,1.118,0,0,1-1.118-1.118v-3.467A1.118,1.118,0,0,1,176.629,272.836Z" transform="translate(-154.225 -259.905)" fill="#0593fc"/>
          </g>
          <g id="Grupo_1177619" data-name="Grupo 1177619" transform="translate(0 23.353)">
            <path id="Trazado_1035617" data-name="Trazado 1035617" d="M158.427,259.9a4.507,4.507,0,0,0-4.2,4.5v8.609a1.112,1.112,0,0,1,.6-.175h1.711V264.82a.32.32,0,0,1,.513-.256l1.71,1.289V264.4a4.49,4.49,0,0,1,1.285-3.149A3.758,3.758,0,0,1,158.427,259.9Z" transform="translate(-154.225 -259.905)" fill="#0182fc"/>
            <path id="Trazado_1035618" data-name="Trazado 1035618" d="M158.759,435.671v-2.128l-1.093-.827a1.112,1.112,0,0,1-.6.178h-2.237a1.111,1.111,0,0,1-.6-.175v2.952a1.068,1.068,0,0,0,1.068,1.068h4.533A1.068,1.068,0,0,1,158.759,435.671Z" transform="translate(-154.226 -414.26)" fill="#0182fc"/>
          </g>
          <path id="Trazado_1035619" data-name="Trazado 1035619" d="M199.87,42.28h-.738a4.943,4.943,0,0,0-3.044-1.043h-2.742a5.723,5.723,0,0,0-5.723,5.723V62.5a3.743,3.743,0,0,0,3.743,3.743h.112v-1.4a.534.534,0,0,1,.213-.427l2.523-1.9a6.022,6.022,0,0,0,1.939.32H197.2a6.022,6.022,0,0,0,1.939-.32l2.523,1.9a.534.534,0,0,1,.213.427v1.4h.112a3.743,3.743,0,0,0,3.743-3.743V48.139a5.858,5.858,0,0,0-5.858-5.858Z" transform="translate(-184.055 -41.237)" fill="#a44f3e"/>
          <path id="Trazado_1035620" data-name="Trazado 1035620" d="M192.148,61.317a6.018,6.018,0,0,1-2.031-4.514V52.3a1.6,1.6,0,0,1,1.241-1.561l.79-.183V46.96a5.724,5.724,0,0,1,4.8-5.648,4.988,4.988,0,0,0-.861-.075h-2.742a5.723,5.723,0,0,0-5.723,5.723V62.5a3.743,3.743,0,0,0,3.743,3.743h.112v-1.4a.534.534,0,0,1,.213-.427l.719-.542a3.73,3.73,0,0,1-.261-1.372V61.317Z" transform="translate(-184.055 -41.237)" fill="#883f2e"/>
          <path id="Trazado_1035621" data-name="Trazado 1035621" d="M233.9,242.4l-2.523-1.9a6.023,6.023,0,0,1-1.939.32h-1.047a6.022,6.022,0,0,1-1.939-.32l-2.523,1.9a.534.534,0,0,0-.213.427v5.317a.534.534,0,0,0,.783.472l4.167-2.2a.534.534,0,0,1,.5,0l4.167,2.2a.534.534,0,0,0,.783-.472v-5.317A.534.534,0,0,0,233.9,242.4Z" transform="translate(-216.292 -219.22)" fill="#fff"/>
          <path id="Trazado_1035622" data-name="Trazado 1035622" d="M228.388,240.821a6.022,6.022,0,0,1-1.939-.32l-2.523,1.9a.534.534,0,0,0-.213.427v5.317a.534.534,0,0,0,.783.472l1.918-1.01v-4.779a.534.534,0,0,1,.213-.427l2.1-1.58Z" transform="translate(-216.292 -219.22)" fill="#eaf6ff"/>
          <path id="Trazado_1035623" data-name="Trazado 1035623" d="M252.119,240.754h-1.047a6.022,6.022,0,0,1-1.963-.328v3.628a.534.534,0,0,0,.209.424l1.952,1.5a.534.534,0,0,0,.65,0l1.952-1.5a.534.534,0,0,0,.209-.424v-3.628A6.019,6.019,0,0,1,252.119,240.754Z" transform="translate(-238.976 -219.153)" fill="#fed2a4"/>
          <path id="Trazado_1035624" data-name="Trazado 1035624" d="M251.432,243.308a.534.534,0,0,1-.209-.424v-2.13h-.151a6.023,6.023,0,0,1-1.963-.328v3.628a.534.534,0,0,0,.209.424l1.952,1.5a.534.534,0,0,0,.65,0l1.5-1.148c-.011-.007-.023-.014-.034-.022Z" transform="translate(-238.976 -219.153)" fill="#ffbd86"/>
          <g id="Grupo_1177620" data-name="Grupo 1177620" transform="translate(1.903 11.367)">
            <path id="Trazado_1035625" data-name="Trazado 1035625" d="M176.2,151.875v-4.2h-1.543a2.615,2.615,0,0,0-2.615,2.615v.506a2.615,2.615,0,0,0,2.615,2.615H176.4A6.041,6.041,0,0,1,176.2,151.875Z" transform="translate(-172.046 -147.676)" fill="#ffe5c2"/>
            <path id="Trazado_1035626" data-name="Trazado 1035626" d="M333.681,147.677h-1.543v4.2a6.041,6.041,0,0,1-.2,1.537h1.741A2.615,2.615,0,0,0,336.3,150.8v-.506A2.615,2.615,0,0,0,333.681,147.677Z" transform="translate(-314.864 -147.677)" fill="#ffe5c2"/>
          </g>
          <g id="Grupo_1177621" data-name="Grupo 1177621" transform="translate(6.062 7.321)">
            <path id="Trazado_1035627" data-name="Trazado 1035627" d="M221.634,109.79l-9.409,2.179a1.6,1.6,0,0,0-1.241,1.561v4.506a6.034,6.034,0,0,0,6.034,6.034h1.047a6.034,6.034,0,0,0,6.034-6.034v-5.779A2.466,2.466,0,0,0,221.634,109.79Z" transform="translate(-210.984 -109.79)" fill="#ffe5c2"/>
          </g>
          <g id="Grupo_1177623" data-name="Grupo 1177623" transform="translate(6.062 8.768)">
            <g id="Grupo_1177622" data-name="Grupo 1177622">
              <path id="Trazado_1035628" data-name="Trazado 1035628" d="M214.529,130.131v-5.38a1.6,1.6,0,0,1,.858-1.419l-3.164.733a1.6,1.6,0,0,0-1.241,1.561v4.506a6.034,6.034,0,0,0,6.034,6.034h1.047a6.058,6.058,0,0,0,1.249-.13,6.036,6.036,0,0,1-4.785-5.9Z" transform="translate(-210.983 -123.332)" fill="#fed2a4"/>
            </g>
          </g>
          <g id="Grupo_1177624" data-name="Grupo 1177624" transform="translate(9.93 16.726)">
            <path id="Trazado_1035629" data-name="Trazado 1035629" d="M247.6,197.846a.394.394,0,0,0-.389.464,2.509,2.509,0,0,0,2.465,2.044h.435a2.509,2.509,0,0,0,2.465-2.044.394.394,0,0,0-.389-.464Z" transform="translate(-247.205 -197.846)" fill="#fd8087"/>
          </g>
          <g id="Grupo_1177625" data-name="Grupo 1177625" transform="translate(9.93 16.725)">
            <path id="Trazado_1035630" data-name="Trazado 1035630" d="M249.433,198.309a.394.394,0,0,1,.389-.464H247.6a.394.394,0,0,0-.389.464,2.509,2.509,0,0,0,2.465,2.044h.435a2.5,2.5,0,0,0,.893-.164A2.512,2.512,0,0,1,249.433,198.309Z" transform="translate(-247.205 -197.845)" fill="#fe646f"/>
          </g>
        </g>
      </g>
      <path id="Trazado_1035631" data-name="Trazado 1035631" d="M194.827,315.575v-3.467a1.118,1.118,0,0,1,1.118-1.118h.526v-8.048a.32.32,0,0,0-.514-.255l-9.6,7.267a.321.321,0,0,1-.386,0l-9.6-7.236a.32.32,0,0,0-.513.256v8.016h.526a1.118,1.118,0,0,1,1.118,1.118v3.467a1.116,1.116,0,0,1-.514.94l8.986,6.8a.321.321,0,0,0,.387,0l8.986-6.8A1.117,1.117,0,0,1,194.827,315.575Z" transform="translate(-157.071 -263.594)" fill="#97d729"/>
      <path id="Trazado_1035632" data-name="Trazado 1035632" d="M176.365,302.987a.32.32,0,0,0-.513.256v8.016h.526a1.118,1.118,0,0,1,1.118,1.118v3.467a1.116,1.116,0,0,1-.514.94l8.986,6.8a.32.32,0,0,0,.193.065V310.288a.319.319,0,0,1-.193-.065Z" transform="translate(-157.071 -263.862)" fill="#fd4755"/>
      <path id="Trazado_1035633" data-name="Trazado 1035633" d="M179.57,315.072a.321.321,0,0,1-.127-.255v-9.512l-3.076-2.318a.32.32,0,0,0-.513.256v8.016h.526a1.118,1.118,0,0,1,1.118,1.118v3.467a1.116,1.116,0,0,1-.514.94l8.986,6.8a.32.32,0,0,0,.193.065v-3.587Z" transform="translate(-157.072 -263.862)" fill="#fb2b3a"/>
      <g id="Grupo_1177628" data-name="Grupo 1177628" transform="translate(32.327 45.631)">
        <ellipse id="Elipse_12481" data-name="Elipse 12481" cx="2.929" cy="2.142" rx="2.929" ry="2.142" transform="translate(0 5.811) rotate(-82.591)" fill="#fff"/>
      </g>
      <g id="Grupo_1177629" data-name="Grupo 1177629" transform="translate(32.659 45.91)">
        <path id="Trazado_1035634" data-name="Trazado 1035634" d="M307.6,369.923a3.308,3.308,0,0,1,1.408-2.591,1.61,1.61,0,0,0-.836-.265c-1.185-.034-2.245,1.245-2.366,2.856s.741,2.944,1.926,2.978a1.755,1.755,0,0,0,.958-.265A2.94,2.94,0,0,1,307.6,369.923Z" transform="translate(-305.797 -367.067)" fill="#eaf6ff"/>
      </g>
      <g id="Grupo_1177634" data-name="Grupo 1177634" transform="translate(15.952 47.397)">
        <g id="Grupo_1177630" data-name="Grupo 1177630" transform="translate(0)">
          <path id="Trazado_1035635" data-name="Trazado 1035635" d="M152.719,386.686h-2.237a1.118,1.118,0,0,1-1.118-1.118V382.1a1.118,1.118,0,0,1,1.118-1.118h2.237a1.118,1.118,0,0,1,1.118,1.118v3.467A1.118,1.118,0,0,1,152.719,386.686Z" transform="translate(-149.364 -380.983)" fill="#ffe5c2"/>
        </g>
        <g id="Grupo_1177631" data-name="Grupo 1177631" transform="translate(0 0)">
          <path id="Trazado_1035636" data-name="Trazado 1035636" d="M151.152,385.568V382.1a1.118,1.118,0,0,1,1.118-1.118h-1.789a1.118,1.118,0,0,0-1.118,1.118v3.467a1.118,1.118,0,0,0,1.118,1.118h1.789A1.118,1.118,0,0,1,151.152,385.568Z" transform="translate(-149.363 -380.983)" fill="#fed2a4"/>
        </g>
        <g id="Grupo_1177632" data-name="Grupo 1177632" transform="translate(21.805)">
          <path id="Trazado_1035637" data-name="Trazado 1035637" d="M356.887,386.686H354.65a1.118,1.118,0,0,1-1.118-1.118V382.1a1.118,1.118,0,0,1,1.118-1.118h2.237a1.118,1.118,0,0,1,1.118,1.118v3.467A1.118,1.118,0,0,1,356.887,386.686Z" transform="translate(-353.532 -380.983)" fill="#ffe5c2"/>
        </g>
        <g id="Grupo_1177633" data-name="Grupo 1177633" transform="translate(21.805 0)">
          <path id="Trazado_1035638" data-name="Trazado 1035638" d="M355.3,385.568V382.1a1.118,1.118,0,0,1,1.118-1.118H354.65a1.118,1.118,0,0,0-1.118,1.118v3.467a1.118,1.118,0,0,0,1.118,1.118h1.771A1.118,1.118,0,0,1,355.3,385.568Z" transform="translate(-353.532 -380.983)" fill="#fed2a4"/>
        </g>
      </g>
      <g id="Grupo_1177635" data-name="Grupo 1177635" transform="translate(0 7.511)">
        <path id="Trazado_1035639" data-name="Trazado 1035639" d="M245.489,190.346H240.9a1.2,1.2,0,0,0-1.176,1.413,3.309,3.309,0,0,0,3.253,2.7h.435a3.309,3.309,0,0,0,3.253-2.7,1.2,1.2,0,0,0-1.176-1.412Zm-2.076,2.508h-.435a1.709,1.709,0,0,1-1.509-.906h3.453A1.709,1.709,0,0,1,243.413,192.854Z" transform="translate(-214.105 -170.82)"/>
        <path id="Trazado_1035640" data-name="Trazado 1035640" d="M236.917,143.2v-1.624a.8.8,0,1,0-1.6,0V143.2a.8.8,0,1,0,1.6,0Z" transform="translate(-210.184 -126.544)"/>
        <path id="Trazado_1035641" data-name="Trazado 1035641" d="M295.265,140.777a.8.8,0,0,0-.8.8V143.2a.8.8,0,1,0,1.6,0v-1.624A.8.8,0,0,0,295.265,140.777Z" transform="translate(-263.016 -126.544)"/>
        <path id="Trazado_1035642" data-name="Trazado 1035642" d="M257.543,152.9a.8.8,0,1,0,1.2-1.064l-.454-.51.48-.6a.8.8,0,1,0-1.251-1l-.9,1.128a.8.8,0,0,0,.027,1.033Z" transform="translate(-229.051 -134.267)"/>
        <path id="Trazado_1035643" data-name="Trazado 1035643" d="M42.511,39.017a5.371,5.371,0,0,0-3.821-5.135q.066-.188.115-.383a.8.8,0,0,0-1.553-.393,2.935,2.935,0,0,1-2.162,2.134v-.518a1.342,1.342,0,0,0-.532-1.066l-1.458-1.1a6.873,6.873,0,0,0,2.937-3.539h1.154c.051,0,.1,0,.151,0v.551a.8.8,0,1,0,1.6,0V28.532A3.417,3.417,0,0,0,40.608,25.6V25.1a3.417,3.417,0,0,0-1.663-2.931v-4.15a6.667,6.667,0,0,0-6.659-6.659h-.475A5.705,5.705,0,0,0,28.5,10.311H25.761a6.523,6.523,0,0,0-5.483,3,10.773,10.773,0,0,0-.775-1.268.8.8,0,0,0-1.306.928,9.1,9.1,0,0,1,1.212,2.384,6.516,6.516,0,0,0-.173,1.485v4.791q-.159.4-.354.782A3.426,3.426,0,0,0,17.7,24.176a9.209,9.209,0,0,1-2,1.748.8.8,0,0,0-.365.672v1.488l-1.608-.928a.8.8,0,0,0-.609-.08,9.169,9.169,0,0,1-2.382.315,9.139,9.139,0,1,1,4.975-16.806.8.8,0,0,0,.873-1.343A10.741,10.741,0,1,0,13.212,28.7l2.047,1.182a1.121,1.121,0,0,0,1.682-.971v-1.9q.384-.272.739-.573a3.429,3.429,0,0,0,1.556,2.085V32.38a4.523,4.523,0,0,0,.252,1.489,5.316,5.316,0,0,0-3.818,5.093v8.244a1.91,1.91,0,0,0-.519,1.309v3.467a1.91,1.91,0,0,0,.519,1.309v2.586a1.871,1.871,0,0,0,1.869,1.869h7.42l3.455,2.615a1.125,1.125,0,0,0,1.354,0l3.456-2.615h7.42a1.871,1.871,0,0,0,1.869-1.869V53.29a1.91,1.91,0,0,0,.519-1.309V48.515a1.91,1.91,0,0,0-.519-1.309Zm-9.023-4.163v4.741l-2.918-1.537,1.284-.985a1.343,1.343,0,0,0,.523-1.059v-2Zm-8.8,0,1.11-.836v2a1.342,1.342,0,0,0,.523,1.059l1.285.985L24.693,39.6Zm-1.071-1.2a1.342,1.342,0,0,0-.532,1.066v.519a2.946,2.946,0,0,1-2.252-2.859V29.013c.05,0,.1,0,.151,0h1.154a6.873,6.873,0,0,0,2.937,3.539Zm3.783,2.227V33.415a6.849,6.849,0,0,0,1.161.1h1.047a6.85,6.85,0,0,0,1.162-.1v2.467l-1.685,1.292Zm7.442-9.2a5.239,5.239,0,0,1-5.233,5.233H28.567a5.239,5.239,0,0,1-5.233-5.233V22.173a.8.8,0,0,1,.62-.78l9.311-2.156A1.667,1.667,0,0,1,34.848,20.9ZM39.006,25.1V25.6a1.816,1.816,0,0,1-1.814,1.814H36.41a6.862,6.862,0,0,0,.04-.736v-3.4h.742A1.816,1.816,0,0,1,39.006,25.1ZM20.839,16.836a4.928,4.928,0,0,1,4.922-4.922H28.5a4.123,4.123,0,0,1,2.552.875.8.8,0,0,0,.491.168h.738a5.063,5.063,0,0,1,5.057,5.057v3.669c-.05,0-.1,0-.151,0H36.45V20.9a3.271,3.271,0,0,0-3.267-3.267.8.8,0,0,0-.181.021l-9.409,2.179a2.389,2.389,0,0,0-1.808,1.847h-.795c-.051,0-.1,0-.151,0ZM19.175,25.6V25.1a1.816,1.816,0,0,1,1.814-1.814h.742v3.4a6.889,6.889,0,0,0,.04.736h-.783A1.816,1.816,0,0,1,19.175,25.6Zm-1.9,13.362a3.712,3.712,0,0,1,3.044-3.647,4.543,4.543,0,0,0,2.775,1.556v3.166a1.335,1.335,0,0,0,1.957,1.181l4.042-2.13,4.042,2.13a1.335,1.335,0,0,0,1.957-1.181V36.871a4.539,4.539,0,0,0,2.774-1.546,3.767,3.767,0,0,1,3.045,3.692V46.6H40.2V39.349a1.121,1.121,0,0,0-1.8-.894h0L29.09,45.5l-9.314-7.018a1.121,1.121,0,0,0-1.8.9V46.6h-.708V38.962Zm-.519,13.019V48.515a.318.318,0,0,1,.317-.317h2.237a.318.318,0,0,1,.317.317v3.467a.318.318,0,0,1-.317.317H17.07A.318.318,0,0,1,16.753,51.982Zm.786,4.162a.267.267,0,0,1-.267-.267V53.9h2.035a1.908,1.908,0,0,0,.486-.065l3.049,2.307Zm12.353,2.114v-3.49a.8.8,0,1,0-1.6,0v3.49l-7.24-5.478a1.9,1.9,0,0,0,.176-.8V48.515a1.921,1.921,0,0,0-1.644-1.9V40.345l8.708,6.561V51.03a.8.8,0,0,0,1.6,0V46.9l8.708-6.59v6.3a1.913,1.913,0,0,0-1.063.524,3.437,3.437,0,0,0-.679-1.167,2.515,2.515,0,0,0-1.8-.865c-1.633-.046-3.032,1.533-3.188,3.6a3.99,3.99,0,0,0,.9,2.975,2.515,2.515,0,0,0,1.8.864h.07a2.888,2.888,0,0,0,2.312-1.3v.737a1.905,1.905,0,0,0,.176.8Zm6.272-9.429c-.076,1.009-.717,2.116-1.52,2.116h-.025a.908.908,0,0,1-.654-.336,2.429,2.429,0,0,1-.5-1.782c.076-1.009.717-2.116,1.52-2.116h.025a.908.908,0,0,1,.654.336,2.429,2.429,0,0,1,.5,1.782Zm4.746,7.048a.267.267,0,0,1-.267.267h-5.3l3.049-2.307a1.909,1.909,0,0,0,.486.065h2.035Zm.519-3.9a.318.318,0,0,1-.317.317H38.875a.318.318,0,0,1-.317-.317V48.515a.318.318,0,0,1,.317-.317h2.237a.318.318,0,0,1,.317.317Z" transform="translate(0 -7.511)"/>
        <path id="Trazado_1035644" data-name="Trazado 1035644" d="M45.484,235.254a.8.8,0,0,0-.8-.8H33.58a.8.8,0,1,0,0,1.6h11.1A.8.8,0,0,0,45.484,235.254Z" transform="translate(-29.278 -210.216)"/>
        <path id="Trazado_1035645" data-name="Trazado 1035645" d="M404.943,234.453h-11.1a.8.8,0,1,0,0,1.6h11.1a.8.8,0,1,0,0-1.6Z" transform="translate(-351.063 -210.216)"/>
        <path id="Trazado_1035646" data-name="Trazado 1035646" d="M388.727,46.557a.8.8,0,0,0,1.133,0l7.851-7.851a.8.8,0,1,0-1.133-1.133l-7.851,7.851A.8.8,0,0,0,388.727,46.557Z" transform="translate(-347.002 -34.153)"/>
        <path id="Trazado_1035647" data-name="Trazado 1035647" d="M69.9,58.1a.8.8,0,1,0,0-1.6h-6.51a.8.8,0,1,0,0,1.6Z" transform="translate(-55.908 -51.265)"/>
        <path id="Trazado_1035648" data-name="Trazado 1035648" d="M110.694,85.889h-4.3a.8.8,0,0,0,0,1.6h4.3a.8.8,0,0,0,0-1.6Z" transform="translate(-94.315 -77.518)"/>
        <path id="Trazado_1035649" data-name="Trazado 1035649" d="M40.278,86.69a.8.8,0,0,0,.8.8h4.185a.8.8,0,1,0,0-1.6H41.079A.8.8,0,0,0,40.278,86.69Z" transform="translate(-35.976 -77.518)"/>
        <path id="Trazado_1035650" data-name="Trazado 1035650" d="M53.157,116.081a.8.8,0,0,0-.8-.8H41.079a.8.8,0,0,0,0,1.6H52.356A.8.8,0,0,0,53.157,116.081Z" transform="translate(-35.976 -103.77)"/>
        <path id="Trazado_1035651" data-name="Trazado 1035651" d="M63.395,144.672a.8.8,0,1,0,0,1.6h6.51a.8.8,0,1,0,0-1.6Z" transform="translate(-55.909 -130.023)"/>
        <path id="Trazado_1035652" data-name="Trazado 1035652" d="M412.325,160.829a.8.8,0,0,0,.8-.8v-.7h.7a.8.8,0,0,0,0-1.6h-.7v-.7a.8.8,0,1,0-1.6,0v.7h-.7a.8.8,0,1,0,0,1.6h.7v.7A.8.8,0,0,0,412.325,160.829Z" transform="translate(-366.232 -140.342)"/>
        <path id="Trazado_1035653" data-name="Trazado 1035653" d="M363.475,13.7h.7v.7a.8.8,0,0,0,1.6,0v-.7h.7a.8.8,0,1,0,0-1.6h-.7v-.7a.8.8,0,0,0-1.6,0v.7h-.7a.8.8,0,1,0,0,1.6Z" transform="translate(-323.941 -10.27)"/>
        <path id="Trazado_1035654" data-name="Trazado 1035654" d="M73.824,283.84h-.7v-.7a.8.8,0,1,0-1.6,0v.7h-.7a.8.8,0,0,0,0,1.6h.7v.7a.8.8,0,0,0,1.6,0v-.7h.7a.8.8,0,0,0,0-1.6Z" transform="translate(-62.542 -252.987)"/>
      </g>
    </g>
  </g>
</svg>
