<svg xmlns="http://www.w3.org/2000/svg" xmlns:xlink="http://www.w3.org/1999/xlink" width="98.104" height="98.104" viewBox="0 0 98.104 98.104">
  <defs>
    <filter id="Trazado_904820" x="0" y="0" width="98.104" height="98.104" filterUnits="userSpaceOnUse">
      <feOffset dy="3" input="SourceAlpha"/>
      <feGaussianBlur stdDeviation="3" result="blur"/>
      <feFlood flood-opacity="0.161"/>
      <feComposite operator="in" in2="blur"/>
      <feComposite in="SourceGraphic"/>
    </filter>
  </defs>
  <g id="Grupo_1177471" data-name="Grupo 1177471" transform="translate(-203.896 -1207.948)">
    <g id="Grupo_1177316" data-name="Grupo 1177316" transform="translate(-416.104 681.948)">
      <g id="Grupo_1173585" data-name="Grupo 1173585" transform="translate(629 532)">
        <g id="Grupo_1173428" data-name="Grupo 1173428" transform="translate(0 0)">
          <g id="Grupo_1171958" data-name="Grupo 1171958">
            <g id="Grupo_1167341" data-name="Grupo 1167341">
              <g id="Grupo_1166792" data-name="Grupo 1166792">
                <g transform="matrix(1, 0, 0, 1, -9, -6)" filter="url(#Trazado_904820)">
                  <g id="Trazado_904820-2" data-name="Trazado 904820" transform="translate(9 6)" fill="#effbfe">
                    <path d="M 40.05199813842773 78.60399627685547 C 34.84685516357422 78.60399627685547 29.79819869995117 77.58489227294922 25.04628753662109 75.57500457763672 C 20.45572090148926 73.63336181640625 16.3326530456543 70.85340881347656 12.7916202545166 67.31237030029297 C 9.250587463378906 63.77133941650391 6.47063159942627 59.64828491210938 4.528986930847168 55.05771636962891 C 2.519098043441772 50.30579376220703 1.499998092651367 45.25713729858398 1.499998092651367 40.05199432373047 C 1.499998092651367 34.84685134887695 2.519098043441772 29.79819488525391 4.528986930847168 25.04627227783203 C 6.47063159942627 20.45571708679199 9.250587463378906 16.33264923095703 12.7916202545166 12.79161643981934 C 16.3326530456543 9.250583648681641 20.45572090148926 6.470638751983643 25.04628753662109 4.528994560241699 C 29.79819869995117 2.519105434417725 34.84685516357422 1.500005483627319 40.05199813842773 1.500005483627319 C 45.25714111328125 1.500005483627319 50.3057975769043 2.519105434417725 55.05772018432617 4.528994560241699 C 59.64828872680664 6.470638751983643 63.77134323120117 9.250583648681641 67.3123779296875 12.79161643981934 C 70.85340881347656 16.33264923095703 73.63336181640625 20.45571708679199 75.57501220703125 25.04627227783203 C 77.58489990234375 29.79819488525391 78.60399627685547 34.84685134887695 78.60399627685547 40.05199432373047 C 78.60399627685547 45.25713729858398 77.58489990234375 50.30579376220703 75.57501220703125 55.05771636962891 C 73.63336181640625 59.64828491210938 70.85340881347656 63.77133941650391 67.3123779296875 67.31237030029297 C 63.77134323120117 70.85340881347656 59.64828872680664 73.63336181640625 55.05772018432617 75.57500457763672 C 50.3057975769043 77.58489227294922 45.25714111328125 78.60399627685547 40.05199813842773 78.60399627685547 Z" stroke="none"/>
                    <path d="M 40.05199813842773 2.999992370605469 C 35.04869079589844 2.999992370605469 30.19664001464844 3.979217529296875 25.63061141967773 5.910484313964844 C 21.21883773803711 7.776512145996094 17.25603866577148 10.44851684570312 13.85227966308594 13.85227203369141 C 10.44851684570312 17.25603485107422 7.776519775390625 21.21883392333984 5.910491943359375 25.63060760498047 C 3.979225158691406 30.19663619995117 3 35.04868698120117 3 40.05199432373047 C 3 45.05530166625977 3.979225158691406 49.90735626220703 5.910491943359375 54.47338104248047 C 7.776519775390625 58.88513946533203 10.44851684570312 62.84795379638672 13.85227966308594 66.25170135498047 C 17.25603866577148 69.65546417236328 21.21883773803711 72.32746124267578 25.63061141967773 74.19348907470703 C 30.19664001464844 76.124755859375 35.04869079589844 77.10398101806641 40.05199813842773 77.10398101806641 C 45.05530548095703 77.10398101806641 49.90735626220703 76.124755859375 54.47338485717773 74.19348907470703 C 58.88515853881836 72.32746124267578 62.84795761108398 69.65546417236328 66.25171661376953 66.25170135498047 C 69.65547943115234 62.84795379638672 72.32747650146484 58.88513946533203 74.19350433349609 54.47338104248047 C 76.12477111816406 49.90735626220703 77.10399627685547 45.05530166625977 77.10399627685547 40.05199432373047 C 77.10399627685547 35.04868698120117 76.12477111816406 30.19663619995117 74.19350433349609 25.63060760498047 C 72.32747650146484 21.21883392333984 69.65547943115234 17.25603485107422 66.25171661376953 13.85227203369141 C 62.84795761108398 10.44851684570312 58.88515853881836 7.776512145996094 54.47338485717773 5.910484313964844 C 49.90735626220703 3.979217529296875 45.05530548095703 2.999992370605469 40.05199813842773 2.999992370605469 M 40.05199813842773 -7.62939453125e-06 C 62.17210388183594 -7.62939453125e-06 80.10399627685547 17.93188858032227 80.10399627685547 40.05199432373047 C 80.10399627685547 62.17210006713867 62.17210388183594 80.10398101806641 40.05199813842773 80.10398101806641 C 17.93189239501953 80.10398101806641 0 62.17210006713867 0 40.05199432373047 C 0 17.93188858032227 17.93189239501953 -7.62939453125e-06 40.05199813842773 -7.62939453125e-06 Z" stroke="none" fill="#497f88"/>
                  </g>
                </g>
              </g>
            </g>
          </g>
        </g>
      </g>
    </g>
    <g id="analysis_9445706" transform="translate(214.161 1224.53)">
      <g id="Grupo_1177470" data-name="Grupo 1177470" transform="translate(15.132 6.391)">
        <path id="Trazado_1035243" data-name="Trazado 1035243" d="M143.86,81.4c9.643,0,14.234,6.586,13.919,16.229.855,1.8,2.743,4.6,4.148,6.92a1.522,1.522,0,0,1,.02,1.543,1.548,1.548,0,0,1-1.327.826c-1.435.069-2.988.128-3.853.2-.039,2.33-.029,2.841-.069,5.171a4.147,4.147,0,0,1-4.109,4.04h-3.106a4.109,4.109,0,0,0-4,3.175c-.256,1.052-.5,2.113-.757,3.165H129.9c.826-3.46.983-4.709,1.819-8.169,1.592-6.645-1.907-6.635-3.834-12.278-3.342-9.742-.315-20.82,15.974-20.82Z" transform="translate(-115.739 -74.47)" fill="#fad1a2" fill-rule="evenodd"/>
        <path id="Trazado_1035244" data-name="Trazado 1035244" d="M143.819,81.4a19.489,19.489,0,0,1,2.458.157v29.313H132.043c-.275-3.313-2.713-4.286-4.207-8.66-3.332-9.732-.3-20.81,15.984-20.81Z" transform="translate(-115.698 -74.47)" fill="#b79876" fill-rule="evenodd"/>
        <path id="Trazado_1035245" data-name="Trazado 1035245" d="M213.461,125.5h2.91v1.9a7.769,7.769,0,0,1,2.91,1.2l1.337-1.337,2.054,2.054-1.337,1.337a7.612,7.612,0,0,1,1.2,2.91h1.9v2.91h-1.9a7.658,7.658,0,0,1-1.2,2.9l1.337,1.337-2.054,2.054-1.337-1.337a7.612,7.612,0,0,1-2.91,1.2v1.887h-2.91v-1.887a7.786,7.786,0,0,1-2.91-1.209l-1.337,1.337L207.16,140.7l1.337-1.337a7.568,7.568,0,0,1-1.2-2.9h-1.9v-2.91h1.9a7.77,7.77,0,0,1,1.2-2.91L207.16,129.3l2.054-2.054,1.337,1.337a7.612,7.612,0,0,1,2.91-1.2Zm1.455,4.669a4.846,4.846,0,1,1-4.846,4.846A4.85,4.85,0,0,1,214.915,130.169Z" transform="translate(-186.725 -114.235)" fill="#dd6e42" fill-rule="evenodd"/>
        <path id="Trazado_1035246" data-name="Trazado 1035246" d="M32.075,10.9H52.689V43.762H26.6V16.375Z" transform="translate(-25.501 -10.9)" fill="#e6e6e6" fill-rule="evenodd"/>
        <path id="Trazado_1035247" data-name="Trazado 1035247" d="M119.8,144.937h3v6.9h-3ZM131.252,133.2h3v18.628h-3Zm-5.721,6.6h3v12.042h-3Z" transform="translate(-109.54 -121.178)" fill="#919191" fill-rule="evenodd"/>
        <path id="Trazado_1035248" data-name="Trazado 1035248" d="M32.075,16.375H26.6L32.075,10.9Z" transform="translate(-25.501 -10.9)" fill="#919191" fill-rule="evenodd"/>
        <path id="Trazado_1035249" data-name="Trazado 1035249" d="M110.1,134.837h3v6.9h-3ZM121.542,123.1h3v18.628h-3Zm-5.721,6.586h3v12.042h-3Z" transform="translate(-100.793 -112.071)" fill="#5fc8d8" fill-rule="evenodd"/>
        <path id="Trazado_1035250" data-name="Trazado 1035250" d="M60.152,165.2a5.659,5.659,0,0,0-4.6,8.945L53.3,176.4l1.307,1.307,2.251-2.251A5.655,5.655,0,1,0,60.152,165.2Zm0,1.661a4,4,0,1,0,4,4A4,4,0,0,0,60.152,166.861Z" transform="translate(-49.577 -150.032)" fill="#f6851f" fill-rule="evenodd"/>
        <path id="Trazado_1035251" data-name="Trazado 1035251" d="M21.468,266.658l-1.2-1.189a.813.813,0,0,0-1.16,0l-3.441,3.441a.813.813,0,0,0,0,1.16l1.2,1.2a.831.831,0,0,0,1.16,0l3.441-3.441a.843.843,0,0,0,0-1.17Z" transform="translate(-15.425 -240.225)" fill="#f6851f" fill-rule="evenodd"/>
        <path id="Trazado_1035252" data-name="Trazado 1035252" d="M123.888,57.994a4.394,4.394,0,1,1-4.394-4.394v4.394Z" transform="translate(-105.302 -49.403)" fill="#ed2024" fill-rule="evenodd"/>
        <path id="Trazado_1035253" data-name="Trazado 1035253" d="M176.9,36.6a4.392,4.392,0,0,1,4.394,4.394H176.9Z" transform="translate(-161.027 -34.074)" fill="#f6851f" fill-rule="evenodd"/>
      </g>
      <path id="Trazado_1035254" data-name="Trazado 1035254" d="M31.447,8.436A4.873,4.873,0,0,1,36.323,13.3a.482.482,0,0,1-.482.482H31.447a.482.482,0,0,1-.482-.482V8.918A.476.476,0,0,1,31.447,8.436Zm2.772,2.1a3.891,3.891,0,0,0-2.281-1.111v3.4h3.4A3.959,3.959,0,0,0,34.219,10.54Zm.423,4.443a4.876,4.876,0,1,1-4.876-4.866.482.482,0,0,1,.482.482v3.912H34.16A.468.468,0,0,1,34.642,14.983Zm-2.1,2.762a3.891,3.891,0,0,0,1.111-2.281H29.766a.482.482,0,0,1-.482-.482V11.1a3.913,3.913,0,1,0,3.254,6.645ZM21.273,33.169l-1.2-1.189a.333.333,0,0,0-.482,0L16.152,35.42a.351.351,0,0,0,0,.482l1.2,1.2a.351.351,0,0,0,.482,0l3.441-3.441a.344.344,0,0,0,0-.492Zm-.167-1.533.629.629.786-.786a.469.469,0,0,1,.629-.039,5.086,5.086,0,0,0,3,.954A5.171,5.171,0,1,0,21.224,28.8a5.392,5.392,0,0,0,.718,1.425.49.49,0,0,1-.049.619ZM22.3,33.06a1.3,1.3,0,0,1-.334,1.268l-3.441,3.441a1.3,1.3,0,0,1-1.357.3v.688H42.28V6.873H22.64v4.994a.482.482,0,0,1-.482.482H17.164v20.7l1.76-1.76a1.319,1.319,0,0,1,1.445-.275l.57-.57a6.135,6.135,0,0,1,10.125-6.911H33.61a.482.482,0,0,1,.482.482V36.059a.482.482,0,0,1-.482.482h-3a.482.482,0,0,1-.482-.482V31.9a6.244,6.244,0,0,1-1.76,1.052v3.116a.482.482,0,0,1-.482.482h-3a.482.482,0,0,1-.482-.482V33.11a6.5,6.5,0,0,1-1.484-.659ZM16.2,37.287l-.718-.708a1.305,1.305,0,0,1,0-1.848l.718-.718V11.867a.483.483,0,0,1,.147-.344l5.466-5.475.039-.029L21.883,6l.039-.029.01-.01L22,5.929l.059-.02.029-.01H42.772a.482.482,0,0,1,.482.482V12.83l1.15.01c9.348.3,13.713,6.842,13.713,15.758,0,.246,0,.521-.01.826.58,1.189,1.592,2.811,2.615,4.424.511.816,1.032,1.642,1.465,2.359a2.064,2.064,0,0,1-1.7,3.1l-3.4.167L57.025,44.2a4.406,4.406,0,0,1-1.386,3.185,4.488,4.488,0,0,1-3.214,1.327H49.318a3.638,3.638,0,0,0-3.539,2.8l-.757,3.165a.473.473,0,0,1-.462.364H29.737a.478.478,0,0,1-.452-.639c.4-1.671.649-2.851.895-4.03.246-1.16.492-2.33.914-4.1a9.658,9.658,0,0,0,.265-4.138A6.8,6.8,0,0,0,30.3,39.715H16.683a.482.482,0,0,1-.482-.482Zm15.453-12.8a6.135,6.135,0,0,1,.639,2.723,6.046,6.046,0,0,1-1.2,3.637v4.718h2.035V24.489ZM27.4,33.228a6.14,6.14,0,0,1-2.035.079v2.271H27.4Zm-1.248-9.535a3.515,3.515,0,0,0-1.75,6.566V29.148a.482.482,0,0,1,.482-.482h3a.482.482,0,0,1,.482.482v.8a3.518,3.518,0,0,0-2.212-6.252Zm-.786,6.95A3.5,3.5,0,0,0,27.4,30.5V29.64H25.363Zm.786-7.9a4.481,4.481,0,0,1,4.483,4.483,4.432,4.432,0,0,1-1.317,3.165,4.726,4.726,0,0,1-4.581,1.091,4.484,4.484,0,0,1,1.416-8.739Zm10.184-5.8h3a.482.482,0,0,1,.482.482V36.049a.482.482,0,0,1-.482.482h-3a.482.482,0,0,1-.482-.482V17.421a.482.482,0,0,1,.482-.482Zm2.516.963H36.815V35.567h2.035Zm3.49,27.288a.483.483,0,0,1,.806-.531,6.893,6.893,0,0,0,2.516,2.32,7.567,7.567,0,0,0,3.421.8l3.342-.01A3.678,3.678,0,0,0,56.062,44.2c.02-1.17.029-1.878.029-2.575s.01-1.416.029-2.556a.489.489,0,0,1,.442-.511l3.863-.2a1.1,1.1,0,0,0,.924-1.642c-1.258-2.094-3.313-5.151-4.168-6.97a.536.536,0,0,1-.049-.216C57.418,20.458,53.319,13.8,43.7,13.8h-.452v3.372h1.976a.482.482,0,0,1,.482.482v1.5a8.138,8.138,0,0,1,2.359.973l1.062-1.062a.481.481,0,0,1,.678,0l2.054,2.054a.481.481,0,0,1,0,.678l-1.062,1.062a8.138,8.138,0,0,1,.973,2.359h1.5a.482.482,0,0,1,.482.482v2.91a.482.482,0,0,1-.482.482h-1.5a8.138,8.138,0,0,1-.973,2.359l1.062,1.062a.481.481,0,0,1,0,.678L49.8,35.253a.481.481,0,0,1-.678,0L48.06,34.191a8.139,8.139,0,0,1-2.359.973v1.5a.482.482,0,0,1-.482.482H43.243v2.084a.482.482,0,0,1-.482.482H31.418a7.259,7.259,0,0,1,.885,2.231,10.463,10.463,0,0,1-.275,4.551c-.757,3.185-.954,4.483-1.671,7.579H44.2l.668-2.792a4.589,4.589,0,0,1,2.045-2.851,7.471,7.471,0,0,1-4.571-3.244Zm-24.5-33.806h3.834V7.551Zm25.4,6.753v3.735a5.329,5.329,0,1,1,0,10.607v3.726h1.494v-1.4a.487.487,0,0,1,.393-.5,7.156,7.156,0,0,0,2.7-1.111.482.482,0,0,1,.639.039l1,.993,1.376-1.376-.993-1a.49.49,0,0,1-.059-.609,7.884,7.884,0,0,0,.708-1.3,7.3,7.3,0,0,0,.423-1.386.488.488,0,0,1,.482-.423h1.416V26.189H51.412a.474.474,0,0,1-.472-.393,7.156,7.156,0,0,0-1.111-2.7.482.482,0,0,1,.039-.639l.993-.993-1.376-1.376-1,.993a.49.49,0,0,1-.609.059,7.883,7.883,0,0,0-1.3-.708,7.3,7.3,0,0,0-1.386-.423.488.488,0,0,1-.423-.482V18.109H43.243Zm0,4.689v8.68a4.37,4.37,0,1,0,0-8.68Z"/>
    </g>
  </g>
</svg>
