<svg xmlns="http://www.w3.org/2000/svg" xmlns:xlink="http://www.w3.org/1999/xlink" width="128" height="128" viewBox="0 0 128 128">
  <defs>
    <filter id="Trazado_982547" x="0" y="0" width="128" height="128" filterUnits="userSpaceOnUse">
      <feOffset dy="3" input="SourceAlpha"/>
      <feGaussianBlur stdDeviation="3" result="blur"/>
      <feFlood flood-opacity="0.161"/>
      <feComposite operator="in" in2="blur"/>
      <feComposite in="SourceGraphic"/>
    </filter>
    <clipPath id="clip-path">
      <path id="path8639" d="M0-682.665H67.243v67.243H0Z" transform="translate(0 682.665)"/>
    </clipPath>
  </defs>
  <g id="Grupo_1177453" data-name="Grupo 1177453" transform="translate(-316.5 -1310.34)">
    <g id="Grupo_1177310" data-name="Grupo 1177310" transform="translate(0 391.023)">
      <g id="Grupo_1176902" data-name="Grupo 1176902" transform="translate(0 -2075.023)">
        <g id="Grupo_1176328" data-name="Grupo 1176328" transform="translate(127.467 1008.34)">
          <g id="Grupo_1172970" data-name="Grupo 1172970" transform="translate(198.033 1992)">
            <g id="Grupo_1171971" data-name="Grupo 1171971" transform="translate(0)">
              <g id="Grupo_1167337" data-name="Grupo 1167337">
                <g id="Grupo_1166720" data-name="Grupo 1166720">
                  <g id="Grupo_1164305" data-name="Grupo 1164305">
                    <g id="Grupo_1163948" data-name="Grupo 1163948">
                      <g id="Grupo_1158168" data-name="Grupo 1158168">
                        <g id="Grupo_1152576" data-name="Grupo 1152576">
                          <g id="Grupo_1148633" data-name="Grupo 1148633">
                            <g id="Grupo_1148525" data-name="Grupo 1148525">
                              <g transform="matrix(1, 0, 0, 1, -9, -6)" filter="url(#Trazado_982547)">
                                <g id="Trazado_982547-2" data-name="Trazado 982547" transform="translate(9 6)" fill="#ebe9f0">
                                  <path d="M 54.99999618530273 108.5 C 47.77687454223633 108.5 40.77062606811523 107.0856704711914 34.17584228515625 104.2963180541992 C 27.80527305603027 101.6017990112305 22.0836124420166 97.74404144287109 17.16978073120117 92.83020782470703 C 12.25594997406006 87.9163818359375 8.398196220397949 82.19471740722656 5.703672885894775 75.82415008544922 C 2.914319276809692 69.22937774658203 1.499996185302734 62.22311782836914 1.499996185302734 54.99999618530273 C 1.499996185302734 47.77688980102539 2.914319276809692 40.77062606811523 5.703672885894775 34.17584228515625 C 8.398196220397949 27.80528831481934 12.25594997406006 22.08362770080566 17.16978073120117 17.16979598999023 C 22.0836124420166 12.25594997406006 27.80527305603027 8.398196220397949 34.17584228515625 5.703672885894775 C 40.77062606811523 2.914319276809692 47.77688980102539 1.499996185302734 54.99999618530273 1.499996185302734 C 62.22311782836914 1.499996185302734 69.22937774658203 2.914319276809692 75.82415008544922 5.703672885894775 C 82.19471740722656 8.398196220397949 87.9163818359375 12.25594997406006 92.83020782470703 17.16979598999023 C 97.74404144287109 22.08362770080566 101.6017990112305 27.80528831481934 104.2963180541992 34.17584228515625 C 107.0856704711914 40.77062606811523 108.5 47.77688980102539 108.5 54.99999618530273 C 108.5 62.22311782836914 107.0856704711914 69.22937774658203 104.2963180541992 75.82415008544922 C 101.6017990112305 82.19471740722656 97.74404144287109 87.9163818359375 92.83020782470703 92.83020782470703 C 87.9163818359375 97.74404144287109 82.19471740722656 101.6017990112305 75.82415008544922 104.2963180541992 C 69.22937774658203 107.0856704711914 62.22311782836914 108.5 54.99999618530273 108.5 Z" stroke="none"/>
                                  <path d="M 54.99999618530273 2.999992370605469 C 47.97871398925781 2.999992370605469 41.16905975341797 4.374443054199219 34.76016235351562 7.085182189941406 C 28.56839752197266 9.704078674316406 23.00699615478516 13.45389556884766 18.23044586181641 18.23044586181641 C 13.45388031005859 23.00701141357422 9.704078674316406 28.56841278076172 7.085182189941406 34.76017761230469 C 4.374443054199219 41.16905975341797 2.999992370605469 47.97872924804688 2.999992370605469 54.99999618530273 C 2.999992370605469 62.02127838134766 4.374443054199219 68.8309326171875 7.085182189941406 75.23983001708984 C 9.704078674316406 81.43159484863281 13.45388031005859 86.99299621582031 18.23044586181641 91.76954650878906 C 23.00699615478516 96.54611206054688 28.56839752197266 100.2959136962891 34.76016235351562 102.9148101806641 C 41.16905975341797 105.6255493164062 47.97871398925781 107 54.99999618530273 107 C 62.02127838134766 107 68.8309326171875 105.6255493164062 75.23983001708984 102.9148101806641 C 81.43159484863281 100.2959136962891 86.99299621582031 96.54611206054688 91.76954650878906 91.76954650878906 C 96.54611206054688 86.99299621582031 100.2959136962891 81.43159484863281 102.9148101806641 75.23983001708984 C 105.6255493164062 68.8309326171875 107 62.02127838134766 107 54.99999618530273 C 107 47.97872924804688 105.6255493164062 41.16905975341797 102.9148101806641 34.76017761230469 C 100.2959136962891 28.56841278076172 96.54611206054688 23.00701141357422 91.76954650878906 18.23044586181641 C 86.99299621582031 13.45389556884766 81.43159484863281 9.704078674316406 75.23983001708984 7.085182189941406 C 68.8309326171875 4.374443054199219 62.02127838134766 2.999992370605469 54.99999618530273 2.999992370605469 M 54.99999618530273 -7.62939453125e-06 C 85.37566375732422 -7.62939453125e-06 110 24.62434387207031 110 54.99999618530273 C 110 85.37566375732422 85.37566375732422 110 54.99999618530273 110 C 24.62432861328125 110 -7.62939453125e-06 85.37566375732422 -7.62939453125e-06 54.99999618530273 C -7.62939453125e-06 24.62434387207031 24.62432861328125 -7.62939453125e-06 54.99999618530273 -7.62939453125e-06 Z" stroke="none" fill="#453179"/>
                                </g>
                              </g>
                            </g>
                          </g>
                        </g>
                      </g>
                    </g>
                  </g>
                </g>
              </g>
            </g>
          </g>
        </g>
      </g>
    </g>
    <g id="g8631" transform="translate(346.878 2021.384)">
      <path id="path8633" d="M258.249-608.415H213.333v-44.916h44.916Z" transform="translate(-192.319 -26.444)" fill="#ff6969"/>
      <g id="g8635" transform="translate(0 -682.665)">
        <g id="g8637" clip-path="url(#clip-path)">
          <g id="g8643" transform="translate(21.013 2.889)">
            <path id="path8645" d="M-379.831,0V38.875a2.627,2.627,0,0,1-2.627,2.627h-8.405a2.627,2.627,0,0,1-2.627-2.627V16.548a2.627,2.627,0,0,0-2.627-2.627h-25.216V44.916h44.916V0Z" transform="translate(421.332)" fill="#ea4747"/>
          </g>
          <g id="g8647" transform="translate(1.313 19.437)">
            <path id="path8649" d="M-185.107-411.083h-20.225V-456h44.916v33.884a4.728,4.728,0,0,1-4.728,4.728,4.728,4.728,0,0,1-4.728-4.728Z" transform="translate(205.333 455.999)" fill="#ffd664"/>
          </g>
          <g id="g8651" transform="translate(1.313 61.727)">
            <path id="path8653" d="M0,0V2.627H20.225L23.853,0Z" fill="#f9c646"/>
          </g>
          <g id="g8655" transform="translate(36.774 19.437)">
            <path id="path8657" d="M-62.5,0V33.823a2.142,2.142,0,0,1-2,2.16,2.1,2.1,0,0,1-2.054-1.311,1.292,1.292,0,0,0-1.2-.788h-1.577A4.728,4.728,0,0,0-64.7,38.611a4.8,4.8,0,0,0,4.82-4.82V0Z" transform="translate(69.333)" fill="#f9c646"/>
          </g>
          <g id="g8659" transform="translate(21.539 53.322)">
            <path id="path8661" d="M-182.7-43.272A4.728,4.728,0,0,1-187.431-48l-15.235,11.032,21.259-6.484a4.91,4.91,0,0,1-1.3.18" transform="translate(202.666 48)" fill="#c9d2e3"/>
          </g>
          <g id="g8663" transform="translate(21.013 2.889)">
            <path id="path8665" d="M-411.083-174.289v-19.043H-456v16.548" transform="translate(455.999 193.333)" fill="none" stroke="#000" stroke-linecap="round" stroke-linejoin="round" stroke-miterlimit="10" stroke-width="2"/>
          </g>
          <g id="g8667" transform="translate(46.23 26.538)">
            <path id="path8669" d="M0-194.648H19.7v-21.268" transform="translate(0 215.915)" fill="none" stroke="#000" stroke-linecap="round" stroke-linejoin="round" stroke-miterlimit="10" stroke-width="2"/>
          </g>
          <g id="g8671" transform="translate(21.013 11.295)">
            <path id="path8673" d="M-411.083,0H-456" transform="translate(455.999 0)" fill="none" stroke="#000" stroke-linecap="round" stroke-linejoin="round" stroke-miterlimit="10" stroke-width="2"/>
          </g>
          <g id="g8675" transform="translate(1.313 27.843)">
            <path id="path8677" d="M-411.083,0H-456" transform="translate(455.999 0)" fill="none" stroke="#000" stroke-linecap="round" stroke-linejoin="round" stroke-miterlimit="10" stroke-width="2"/>
          </g>
          <g id="g8679" transform="translate(7.617 33.884)">
            <path id="path8681" d="M-295.691,0H-328" transform="translate(327.999 0)" fill="none" stroke="#000" stroke-linecap="round" stroke-linejoin="round" stroke-miterlimit="10" stroke-width="2"/>
          </g>
          <g id="g8683" transform="translate(7.617 40.188)">
            <path id="path8685" d="M-295.691,0H-328" transform="translate(327.999 0)" fill="none" stroke="#000" stroke-linecap="round" stroke-linejoin="round" stroke-miterlimit="10" stroke-width="2"/>
          </g>
          <g id="g8687" transform="translate(7.617 46.492)">
            <path id="path8689" d="M-151.451,0H-168" transform="translate(168 0)" fill="none" stroke="#000" stroke-linecap="round" stroke-linejoin="round" stroke-miterlimit="10" stroke-width="2"/>
          </g>
          <g id="g8691" transform="translate(7.617 52.796)">
            <path id="path8693" d="M-80.534,0h-8.8" transform="translate(89.333)" fill="none" stroke="#000" stroke-linecap="round" stroke-linejoin="round" stroke-miterlimit="10" stroke-width="2"/>
          </g>
          <g id="g8695" transform="translate(1.313 19.437)">
            <path id="path8697" d="M0-155.02v-16.938H44.916v33.884a4.728,4.728,0,0,1-4.728,4.728,4.728,4.728,0,0,1-4.728-4.728L20.225-127.042H0v-23.369" transform="translate(0 171.958)" fill="none" stroke="#000" stroke-linecap="round" stroke-linejoin="round" stroke-miterlimit="10" stroke-width="2"/>
          </g>
          <g id="g8699" transform="translate(21.539 53.322)">
            <path id="path8701" d="M-182.7-43.272A4.728,4.728,0,0,1-187.431-48l-15.235,11.032,21.259-6.484A4.91,4.91,0,0,1-182.7-43.272Z" transform="translate(202.666 48)" fill="none" stroke="#000" stroke-linecap="round" stroke-linejoin="round" stroke-miterlimit="10" stroke-width="2"/>
          </g>
        </g>
      </g>
    </g>
  </g>
</svg>
