<svg xmlns="http://www.w3.org/2000/svg" xmlns:xlink="http://www.w3.org/1999/xlink" width="103" height="103" viewBox="0 0 103 103">
  <defs>
    <filter id="Trazado_978624" x="0" y="0" width="103" height="103" filterUnits="userSpaceOnUse">
      <feOffset dy="3" input="SourceAlpha"/>
      <feGaussianBlur stdDeviation="3" result="blur"/>
      <feFlood flood-opacity="0.161"/>
      <feComposite operator="in" in2="blur"/>
      <feComposite in="SourceGraphic"/>
    </filter>
  </defs>
  <g id="Grupo_1176377" data-name="Grupo 1176377" transform="translate(-171 -2866)">
    <g id="Grupo_1176881" data-name="Grupo 1176881">
      <g id="Grupo_1175148" data-name="Grupo 1175148" transform="translate(0 1580)">
        <g id="Grupo_1173798" data-name="Grupo 1173798" transform="translate(-3 -3520)">
          <g id="Grupo_1171925" data-name="Grupo 1171925" transform="translate(-22 -2246)">
            <g id="Grupo_1164524" data-name="Grupo 1164524" transform="translate(205 7058)">
              <g id="Grupo_1144123" data-name="Grupo 1144123">
                <g transform="matrix(1, 0, 0, 1, -9, -6)" filter="url(#Trazado_978624)">
                  <g id="Trazado_978624-2" data-name="Trazado 978624" transform="translate(9 6)" fill="#edf3fc">
                    <path d="M 42.5 83.5 C 36.96437835693359 83.5 31.59512901306152 82.41617584228516 26.54141235351562 80.27863311767578 C 21.65934181213379 78.21369171142578 17.27447128295898 75.25723266601562 13.50862312316895 71.49137878417969 C 9.742764472961426 67.72553253173828 6.786305904388428 63.34066009521484 4.721364498138428 58.45858764648438 C 2.583823442459106 53.40486907958984 1.5 48.03562164306641 1.5 42.5 C 1.5 36.96437835693359 2.583823442459106 31.59512901306152 4.721364498138428 26.54141235351562 C 6.786305904388428 21.65934181213379 9.742764472961426 17.27447128295898 13.50862312316895 13.50862312316895 C 17.27447128295898 9.742764472961426 21.65934181213379 6.786305904388428 26.54141235351562 4.721364498138428 C 31.59512901306152 2.583823442459106 36.96437835693359 1.5 42.5 1.5 C 48.03562164306641 1.5 53.40486907958984 2.583823442459106 58.45858764648438 4.721364498138428 C 63.34066009521484 6.786305904388428 67.72553253173828 9.742764472961426 71.49137878417969 13.50862312316895 C 75.25723266601562 17.27447128295898 78.21369171142578 21.65934181213379 80.27863311767578 26.54141235351562 C 82.41617584228516 31.59512901306152 83.5 36.96437835693359 83.5 42.5 C 83.5 48.03562164306641 82.41617584228516 53.40486907958984 80.27863311767578 58.45858764648438 C 78.21369171142578 63.34066009521484 75.25723266601562 67.72553253173828 71.49137878417969 71.49137878417969 C 67.72553253173828 75.25723266601562 63.34066009521484 78.21369171142578 58.45858764648438 80.27863311767578 C 53.40486907958984 82.41617584228516 48.03562164306641 83.5 42.5 83.5 Z" stroke="none"/>
                    <path d="M 42.5 3 C 37.16621398925781 3 31.99356079101562 4.043960571289062 27.125732421875 6.102882385253906 C 22.42246627807617 8.092185974121094 18.19785308837891 10.94070434570312 14.56928253173828 14.56928253173828 C 10.94070434570312 18.19785308837891 8.092185974121094 22.42246627807617 6.102882385253906 27.125732421875 C 4.043960571289062 31.99356079101562 3 37.16621398925781 3 42.5 C 3 47.83378601074219 4.043960571289062 53.00643920898438 6.102882385253906 57.87425231933594 C 8.092185974121094 62.57753372192383 10.94070434570312 66.80213165283203 14.56928253173828 70.43071746826172 C 18.19786834716797 74.05929565429688 22.42246627807617 76.90781402587891 27.125732421875 78.89711761474609 C 31.99356079101562 80.95603942871094 37.16621398925781 82 42.5 82 C 47.83378601074219 82 53.00642395019531 80.95603942871094 57.87425231933594 78.89711761474609 C 62.57753372192383 76.90781402587891 66.80213165283203 74.05929565429688 70.43071746826172 70.43071746826172 C 74.05929565429688 66.80213165283203 76.90781402587891 62.57753372192383 78.89711761474609 57.87425231933594 C 80.95603942871094 53.00642395019531 82 47.83378601074219 82 42.5 C 82 37.16621398925781 80.95603942871094 31.99356079101562 78.89711761474609 27.125732421875 C 76.90781402587891 22.42246627807617 74.05929565429688 18.19786834716797 70.43071746826172 14.56928253173828 C 66.80213165283203 10.94070434570312 62.57753372192383 8.092185974121094 57.87425231933594 6.102882385253906 C 53.00643920898438 4.043960571289062 47.83378601074219 3 42.5 3 M 42.5 0 C 65.97209167480469 0 85 19.02789306640625 85 42.5 C 85 65.97209167480469 65.97209167480469 85 42.5 85 C 19.02789306640625 85 0 65.97209167480469 0 42.5 C 0 19.02789306640625 19.02789306640625 0 42.5 0 Z" stroke="none" fill="#5692e8"/>
                  </g>
                </g>
              </g>
            </g>
          </g>
        </g>
      </g>
    </g>
    <g id="Filled_outline" data-name="Filled outline" transform="translate(182.35 2874.35)">
      <path id="Trazado_1035169" data-name="Trazado 1035169" d="M24,24H70.69V57.81H24Z" transform="translate(-7.195 -7.195)" fill="#cececc"/>
      <path id="Trazado_1035170" data-name="Trazado 1035170" d="M64,64h38.64V89.76H64Z" transform="translate(-43.17 -43.17)" fill="#426887"/>
      <path id="Trazado_1035171" data-name="Trazado 1035171" d="M29.164,28.025H28.025v1.139L24,25.139V24h1.139Z" transform="translate(-7.195 -7.195)" fill="#bebebc"/>
      <path id="Trazado_1035172" data-name="Trazado 1035172" d="M441.844,24v1.139l-4.025,4.025V28.025H436.68L440.7,24Z" transform="translate(-378.349 -7.195)" fill="#bebebc"/>
      <path id="Trazado_1035173" data-name="Trazado 1035173" d="M408,288h8.05v3.22H408Z" transform="translate(-352.555 -244.63)" fill="#de5540"/>
      <path id="Trazado_1035174" data-name="Trazado 1035174" d="M408,304h8.05v1.61H408Z" transform="translate(-352.555 -259.02)" fill="#cececc"/>
      <path id="Trazado_1035175" data-name="Trazado 1035175" d="M24,320H70.69v4.025H24Z" transform="translate(-7.195 -273.41)" fill="#dfdfdd"/>
      <path id="Trazado_1035176" data-name="Trazado 1035176" d="M144.05,200v6.44l-4.025,4.83L136,206.44V200Z" transform="translate(-107.925 -165.485)" fill="#fdc8a2"/>
      <path id="Trazado_1035177" data-name="Trazado 1035177" d="M54.59,269.612V283.32a3.22,3.22,0,0,1-3.22,3.22H27.22A3.22,3.22,0,0,1,24,283.32V269.612a3.13,3.13,0,0,1,2.307-3.021l4.133-1.127,2.415-.659,2.415-.8,4.025,4.83L43.32,264l2.415.8,2.415.659,4.133,1.127a3.13,3.13,0,0,1,2.307,3.021Z" transform="translate(-7.195 -223.045)" fill="#2d7dbe"/>
      <path id="Trazado_1035178" data-name="Trazado 1035178" d="M152,313.61l.805,2.415h3.22l.805-2.415L154.415,312Z" transform="translate(-122.315 -266.215)" fill="#426887"/>
      <path id="Trazado_1035179" data-name="Trazado 1035179" d="M112,264.8l2.415,6.44,4.025-2.415L114.415,264Z" transform="translate(-86.34 -223.045)" fill="#348ed8"/>
      <path id="Trazado_1035180" data-name="Trazado 1035180" d="M180.025,264,176,268.83l4.025,2.415,2.415-6.44Z" transform="translate(-143.9 -223.045)" fill="#348ed8"/>
      <path id="Trazado_1035181" data-name="Trazado 1035181" d="M156.025,352h-3.22L152,366.463h4.83Z" transform="translate(-122.315 -302.19)" fill="#395d7b"/>
      <path id="Trazado_1035182" data-name="Trazado 1035182" d="M144.05,200v4.414a7.247,7.247,0,0,1-8.05,0V200Z" transform="translate(-107.925 -165.485)" fill="#fdbf92"/>
      <path id="Trazado_1035183" data-name="Trazado 1035183" d="M107.22,48h8.05a3.22,3.22,0,0,1,3.22,3.22v8.855a7.245,7.245,0,1,1-14.49,0V51.22A3.22,3.22,0,0,1,107.22,48Z" transform="translate(-79.145 -28.78)" fill="#fdc8a2"/>
      <path id="Trazado_1035184" data-name="Trazado 1035184" d="M107.27,25.61v3.22a13.743,13.743,0,0,1-9.717,4.025H96V30.44A6.435,6.435,0,0,1,102.44,24h.943a5.5,5.5,0,0,1,3.887,1.61Z" transform="translate(-71.95 -7.195)" fill="#844e3a"/>
      <path id="Trazado_1035185" data-name="Trazado 1035185" d="M208,40v3.22a5.532,5.532,0,0,0,4.025,4.025v-3.22A4.025,4.025,0,0,0,208,40Z" transform="translate(-172.68 -21.585)" fill="#844e3a"/>
      <path id="Trazado_1035186" data-name="Trazado 1035186" d="M82.415,112v4.83a2.415,2.415,0,0,1,0-4.83Z" transform="translate(-57.56 -86.34)" fill="#fdb683"/>
      <path id="Trazado_1035187" data-name="Trazado 1035187" d="M2.415,0V4.83a2.415,2.415,0,0,1,0-4.83Z" transform="translate(41.76 30.49) rotate(180)" fill="#fdb683"/>
      <path id="Trazado_1035188" data-name="Trazado 1035188" d="M30.44,402.415H24v3.309a3.131,3.131,0,0,0,3.132,3.131h5.723l12.075-3.22V400Z" transform="translate(-7.195 -345.36)" fill="#3289d1"/>
      <path id="Trazado_1035189" data-name="Trazado 1035189" d="M232,378.415,236.83,376h4.83v5.635h-4.025l-.138.138a7.774,7.774,0,0,1-5.5,2.277Z" transform="translate(-194.265 -323.775)" fill="#fdc8a2"/>
      <path id="Trazado_1035190" data-name="Trazado 1035190" d="M134.49,402.415,120,400v5.635l12.075,3.22H137.8a3.131,3.131,0,0,0,3.131-3.132v-3.308Z" transform="translate(-93.535 -345.36)" fill="#348ed8"/>
      <path id="Trazado_1035191" data-name="Trazado 1035191" d="M33.66,378.415,28.83,376H24v5.635h4.025l.138.138a7.774,7.774,0,0,0,5.5,2.277Z" transform="translate(-7.195 -323.775)" fill="#fdc8a2"/>
      <path id="Trazado_1035192" data-name="Trazado 1035192" d="M319.3,424H304a2.277,2.277,0,0,1,0,3.22h15.3a1.61,1.61,0,1,0,0-3.22Z" transform="translate(-259.02 -366.945)" fill="#ffb431"/>
      <path id="Trazado_1035193" data-name="Trazado 1035193" d="M335.3,392H320a2.277,2.277,0,0,1,0,3.22h15.3a1.61,1.61,0,0,0,0-3.22Z" transform="translate(-273.41 -338.165)" fill="#844e3a"/>
      <path id="Trazado_1035194" data-name="Trazado 1035194" d="M327.245,392H320a2.277,2.277,0,0,1,0,3.22h7.245a1.61,1.61,0,1,0,0-3.22Z" transform="translate(-273.41 -338.165)" fill="#f1ddc1"/>
      <path id="Trazado_1035195" data-name="Trazado 1035195" d="M319.3,360H304a2.277,2.277,0,0,1,0,3.22h15.3a1.61,1.61,0,1,0,0-3.22Z" transform="translate(-259.02 -309.385)" fill="#de5540"/>
      <path id="Trazado_1035196" data-name="Trazado 1035196" d="M311.245,360H304a2.277,2.277,0,0,1,0,3.22h7.245a1.61,1.61,0,0,0,0-3.22Z" transform="translate(-259.02 -309.385)" fill="#e9d6bb"/>
      <path id="Trazado_1035197" data-name="Trazado 1035197" d="M335.3,456H320a2.277,2.277,0,0,1,0,3.22h15.3a1.61,1.61,0,0,0,0-3.22Z" transform="translate(-273.41 -395.725)" fill="#426887"/>
      <path id="Trazado_1035198" data-name="Trazado 1035198" d="M311.245,424H304a2.277,2.277,0,0,1,0,3.22h7.245a1.61,1.61,0,0,0,0-3.22Z" transform="translate(-259.02 -366.945)" fill="#e9d6bb"/>
      <path id="Trazado_1035199" data-name="Trazado 1035199" d="M327.245,456H320a2.277,2.277,0,0,1,0,3.22h7.245a1.61,1.61,0,1,0,0-3.22Z" transform="translate(-273.41 -395.725)" fill="#f1ddc1"/>
      <path id="Trazado_1035200" data-name="Trazado 1035200" d="M264.955,16H240v1.61h23.012L260.6,20.025H243.22v1.61h16.905v20.93h-2.408l.692-1.211-1.4-.8-2.988,5.229H251.27V47.4h12.88v1.61h1.61v-32.2A.805.805,0,0,0,264.955,16Zm-.805,29.785h-6.44v-1.61h6.44Zm0-3.22h-2.415v-21.4l2.415-2.415Z" transform="translate(-201.46 0)"/>
      <path id="Trazado_1035201" data-name="Trazado 1035201" d="M22.44,21.635v-1.61H21.164L18.749,17.61h5.3V16H16.805a.805.805,0,0,0-.805.805V41.76h1.61V18.749l2.415,2.415V40.955h1.61V21.635Z" transform="translate(0 0)"/>
      <circle id="Elipse_12449" data-name="Elipse 12449" cx="1.5" cy="1.5" r="1.5" transform="translate(28 28)"/>
      <circle id="Elipse_12450" data-name="Elipse 12450" cx="1.5" cy="1.5" r="1.5" transform="translate(34 28)"/>
      <path id="Trazado_1035202" data-name="Trazado 1035202" d="M160,179.175h.615a8.474,8.474,0,0,0,3.77-.89l-.72-1.44a6.856,6.856,0,0,1-3.05.72H160Z" transform="translate(-129.51 -144.66)"/>
      <path id="Trazado_1035203" data-name="Trazado 1035203" d="M27.27,59.657V55.591l13.553,2.259a.808.808,0,0,0,.132.011h1.61V56.25H41.022l-2.482-.414v-.7l2.605-1.3h1.42v-1.61h-1.61a.8.8,0,0,0-.36.085l-3.111,1.556-2.717.453-.245-4.4L35,48.465l.709.425a.836.836,0,0,0,.679.07.805.805,0,0,0,.489-.477l2.157-5.753,5.84,1.593a2.325,2.325,0,0,1,1.714,2.244V48.2H48.2V46.567a3.936,3.936,0,0,0-2.9-3.8L36.93,40.375V37.731a8.043,8.043,0,0,0,3.22-6.436v-.1a3.22,3.22,0,0,0,0-6.236V22.44c0-.038,0-.076,0-.113a4.835,4.835,0,0,0-4.493-4.7A6.256,6.256,0,0,0,31.433,16H30.49a7.253,7.253,0,0,0-7.245,7.245v2.043a3.219,3.219,0,0,0,.805,5.9v.1a8.042,8.042,0,0,0,3.22,6.435v2.644L18.9,42.77a3.945,3.945,0,0,0-2.9,3.8V48.2h1.61V46.567a2.331,2.331,0,0,1,1.714-2.244l5.84-1.593,2.157,5.753a.805.805,0,0,0,.489.477.833.833,0,0,0,.679-.07l.7-.42.488,1.45-.244,4.4-2.716-.453L24.05,52.533V49.81H22.44v1.918L22,51.505a.8.8,0,0,0-.36-.085H17.61V49.81H16V60.364A3.941,3.941,0,0,0,19.936,64.3s5.863-.009,5.931-.027l3.058-.816-.044.816h1.608l.073-1.252,1.538-.41,1.538.41.073,1.252h1.608l-.044-.815,3.058.815c.068.018,5.931.027,5.931.027V62.69H38.646ZM40.15,26.681a1.609,1.609,0,0,1,0,2.788ZM32.1,54.763l-1.068-.178.221-3.97h1.7l.221,3.97Zm1.029-5.758h-2.06L30.6,47.622l1.5-.9,1.487.892ZM28.88,40.663V38.671a8.027,8.027,0,0,0,6.44,0v1.992L32.1,44.527Zm8.613,1.6-1.782,4.754-2.39-1.434,3.072-3.686ZM36.125,19.322A3.225,3.225,0,0,1,38.54,22.44v2.065a4.717,4.717,0,0,1-2.415-2.973ZM24.05,29.469a1.609,1.609,0,0,1,0-2.788Zm.805-4.614v-1.61c0-.084,0-.168.006-.251a48.162,48.162,0,0,1,8.176-2.175l-.265-1.588a49.017,49.017,0,0,0-7.51,1.913A5.643,5.643,0,0,1,30.49,17.61h.943a4.658,4.658,0,0,1,3.082,1.154V21.3A12.848,12.848,0,0,1,25.6,24.855Zm.805,6.44V26.464a14.436,14.436,0,0,0,9.317-3.422,6.321,6.321,0,0,0,3.564,3.213v5.04a6.44,6.44,0,0,1-12.88,0Zm2.83,15.718L26.707,42.26l1.1-.367,3.072,3.686ZM17.61,53.03h3.835l4.215,2.108v4.287a6.917,6.917,0,0,1-4.123-2l-.138-.138a.805.805,0,0,0-.569-.236H17.61Zm7.945,9.66H19.936a2.329,2.329,0,0,1-2.326-2.326v-1.7H20.5a8.517,8.517,0,0,0,5.851,2.412l2.626.7Z" transform="translate(0)"/>
      <path id="Trazado_1035204" data-name="Trazado 1035204" d="M144,432h1.61v1.61H144Z" transform="translate(-115.12 -374.14)"/>
      <path id="Trazado_1035205" data-name="Trazado 1035205" d="M316.126,357.635a4.839,4.839,0,0,1-2.027-4.577,2.414,2.414,0,0,0-2-1.058h-15.3a.805.805,0,0,0-.569,1.374,1.474,1.474,0,0,1,0,2.082.805.805,0,0,0,.569,1.374h1.232a1.476,1.476,0,0,1,0,1.61h-1.232a.805.805,0,0,0-.569,1.374,1.474,1.474,0,0,1,0,2.082.805.805,0,0,0,.569,1.374h1.232a1.475,1.475,0,0,1-.191,1.846.8.8,0,0,0,.569,1.374h15.3a24.754,24.754,0,0,0,.634-6.525A2.419,2.419,0,0,0,316.126,357.635ZM298.17,355.22a3.1,3.1,0,0,0,0-1.61H312.1a.805.805,0,1,1,0,1.61Zm0,6.44a3.1,3.1,0,0,0,0-1.61H312.1a.805.805,0,1,1,0,1.61Zm16.346,2.415a.806.806,0,0,1-.8.8H299.78a3.1,3.1,0,0,0,0-1.61h13.931A.806.806,0,0,1,314.516,364.075Zm-.8-5.635H299.78a3.1,3.1,0,0,0,0-1.61h13.931a.805.805,0,0,1,0,1.61Z" transform="translate(-251.825 -302.19)"/>
    </g>
  </g>
</svg>
