<svg xmlns="http://www.w3.org/2000/svg" xmlns:xlink="http://www.w3.org/1999/xlink" width="113" height="113" viewBox="0 0 113 113">
  <defs>
    <filter id="Trazado_982547" x="0" y="0" width="113" height="113" filterUnits="userSpaceOnUse">
      <feOffset dy="3" input="SourceAlpha"/>
      <feGaussianBlur stdDeviation="3" result="blur"/>
      <feFlood flood-opacity="0.161"/>
      <feComposite operator="in" in2="blur"/>
      <feComposite in="SourceGraphic"/>
    </filter>
  </defs>
  <g id="Grupo_1176884" data-name="Grupo 1176884" transform="translate(9 6)">
    <g id="Grupo_1172010" data-name="Grupo 1172010">
      <g id="Grupo_1171046" data-name="Grupo 1171046">
        <g id="Grupo_1148525" data-name="Grupo 1148525">
          <g transform="matrix(1, 0, 0, 1, -9, -6)" filter="url(#Trazado_982547)">
            <g id="Trazado_982547-2" data-name="Trazado 982547" transform="translate(9 6)" fill="#edf3fc">
              <path d="M 47.5 93.5 C 41.28937149047852 93.5 35.26533508300781 92.28397369384766 29.59518623352051 89.88570404052734 C 24.11771965026855 87.56893157958984 19.19813346862793 84.25196075439453 14.97309303283691 80.02691650390625 C 10.74804019927979 75.80186462402344 7.431066513061523 70.88229370117188 5.114293098449707 65.40481567382812 C 2.716026782989502 59.73468017578125 1.5 53.71062850952148 1.5 47.5 C 1.5 41.28937149047852 2.716026782989502 35.26533508300781 5.114293098449707 29.59518623352051 C 7.431066513061523 24.11771965026855 10.74804019927979 19.19813346862793 14.97309303283691 14.97309303283691 C 19.19813346862793 10.74804019927979 24.11771965026855 7.431066513061523 29.59518623352051 5.114293098449707 C 35.26533508300781 2.716026782989502 41.28937149047852 1.5 47.5 1.5 C 53.71062850952148 1.5 59.73468017578125 2.716026782989502 65.40481567382812 5.114293098449707 C 70.88229370117188 7.431066513061523 75.80186462402344 10.74804019927979 80.02691650390625 14.97309303283691 C 84.25196075439453 19.19813346862793 87.56893157958984 24.11771965026855 89.88570404052734 29.59518623352051 C 92.28397369384766 35.26533508300781 93.5 41.28937149047852 93.5 47.5 C 93.5 53.71062850952148 92.28397369384766 59.73468017578125 89.88570404052734 65.40481567382812 C 87.56893157958984 70.88229370117188 84.25196075439453 75.80186462402344 80.02691650390625 80.02691650390625 C 75.80186462402344 84.25196075439453 70.88229370117188 87.56893157958984 65.40481567382812 89.88570404052734 C 59.73468017578125 92.28397369384766 53.71062850952148 93.5 47.5 93.5 Z" stroke="none"/>
              <path d="M 47.5 3 C 41.49121475219727 3 35.66376876831055 4.176155090332031 30.17950439453125 6.495796203613281 C 24.88084411621094 8.736953735351562 20.12152099609375 11.94598388671875 16.03375244140625 16.03375244140625 C 11.94598388671875 20.12152099609375 8.736953735351562 24.88084411621094 6.495796203613281 30.17950439453125 C 4.176155090332031 35.66376876831055 3 41.49121475219727 3 47.5 C 3 53.50878524780273 4.176155090332031 59.33623123168945 6.495796203613281 64.82049560546875 C 8.736953735351562 70.11915588378906 11.94598388671875 74.87847900390625 16.03375244140625 78.96624755859375 C 20.12152099609375 83.05401611328125 24.88084411621094 86.26304626464844 30.17950439453125 88.50419616699219 C 35.66376876831055 90.82384490966797 41.49121475219727 92 47.5 92 C 53.50878524780273 92 59.33623123168945 90.82384490966797 64.82049560546875 88.50419616699219 C 70.11915588378906 86.26304626464844 74.87847900390625 83.05401611328125 78.96624755859375 78.96624755859375 C 83.05401611328125 74.87847900390625 86.26304626464844 70.11915588378906 88.50419616699219 64.82049560546875 C 90.82384490966797 59.33623123168945 92 53.50878524780273 92 47.5 C 92 41.49121475219727 90.82384490966797 35.66376876831055 88.50419616699219 30.17950439453125 C 86.26304626464844 24.88084411621094 83.05401611328125 20.12152099609375 78.96624755859375 16.03375244140625 C 74.87847900390625 11.94598388671875 70.11915588378906 8.736953735351562 64.82049560546875 6.495796203613281 C 59.33623123168945 4.176155090332031 53.50878524780273 3 47.5 3 M 47.5 0 C 73.7335205078125 0 95 21.2664794921875 95 47.5 C 95 73.7335205078125 73.7335205078125 95 47.5 95 C 21.2664794921875 95 0 73.7335205078125 0 47.5 C 0 21.2664794921875 21.2664794921875 0 47.5 0 Z" stroke="none" fill="#5692e8"/>
            </g>
          </g>
        </g>
      </g>
    </g>
    <g id="think-question_14781837" transform="translate(9.575 8.575)">
      <g id="Grupo_1177480" data-name="Grupo 1177480" transform="translate(7.5 7.552)">
        <path id="Trazado_1035292" data-name="Trazado 1035292" d="M60.753,402.151s-1.788,2.967-2.574,4.4l-12.47,4.788h-26.9l-4.819-3.118v-6.3a55.108,55.108,0,0,1,7.574-2.385L24.8,398.7l3.594-.845,15.868,1.56,3.209-1.4c1.08.281,4.216,1.044,5.3,1.324C55.482,400.048,58.419,400.517,60.753,402.151Z" transform="translate(-13.169 -348.545)" fill="#8ac9fe"/>
        <path id="Trazado_1035293" data-name="Trazado 1035293" d="M13.14,437.529v1.936H7.879a.379.379,0,0,1-.379-.379v-8.26a.38.38,0,0,1,.148-.3c.091-.071.182-.139.253-.191.138-.1.278-.194.42-.283l.286.143A8.2,8.2,0,0,1,13.14,437.529Z" transform="translate(-7.5 -376.667)" fill="#60b7ff"/>
        <path id="Trazado_1035294" data-name="Trazado 1035294" d="M359.58,440.242v.381a.38.38,0,0,1-.379.379h-8.69v-5.453a8.187,8.187,0,0,1,3.523-3.4l.684-.343.087.061.14.1A10.241,10.241,0,0,1,359.58,440.242Z" transform="translate(-307.134 -378.204)" fill="#60b7ff"/>
        <path id="Trazado_1035295" data-name="Trazado 1035295" d="M99.65,21.907c-2.631,4.983-5.281,9.646-11.3,9.939L69.74,31.9V22.259a12.117,12.117,0,0,1,1.883-6.511,17.156,17.156,0,0,1,6.048-5.756,16.113,16.113,0,0,1,7.9-2.082h.664a16.041,16.041,0,0,1,6.634,1.44C98.129,13.365,101.043,19.268,99.65,21.907Z" transform="translate(-61.869 -7.91)" fill="#73788c"/>
        <path id="Trazado_1035296" data-name="Trazado 1035296" d="M230.613,32.209v9.548L216.89,41.8a17.229,17.229,0,0,0,4.523-22.5,17.031,17.031,0,0,1,7.317,6.4,11.925,11.925,0,0,1,1.4,3.107A12.253,12.253,0,0,1,230.613,32.209Z" transform="translate(-190.411 -17.86)" fill="#5e6577"/>
        <path id="Trazado_1035297" data-name="Trazado 1035297" d="M79.416,196.818A7.023,7.023,0,0,0,84.767,190h0a2.793,2.793,0,0,0-2.793-2.793H49.37A2.793,2.793,0,0,0,46.577,190h0a7.023,7.023,0,0,0,5.351,6.821Z" transform="translate(-41.635 -164.531)" fill="#ffb09e"/>
        <path id="Trazado_1035298" data-name="Trazado 1035298" d="M109.761,126.291a2.709,2.709,0,0,1,3.716,1.573l1.192,4.643a1.84,1.84,0,0,0,1.71,1.257v10.389a8.665,8.665,0,0,1-2.96,6.523l-5.383,4.71a5.778,5.778,0,0,1-3.8,1.429h-3.192a5.778,5.778,0,0,1-3.8-1.429l-5.383-4.71a8.665,8.665,0,0,1-2.96-6.523V133.763a1.84,1.84,0,0,0,1.71-1.257l1.185-4.624a2.709,2.709,0,0,1,3.732-1.566l.173.083,1.394.534a15.443,15.443,0,0,0,11.049,0l1.394-.534Z" transform="translate(-78.598 -111.094)" fill="#ffcebf"/>
        <g id="Grupo_1177477" data-name="Grupo 1177477" transform="translate(11.604 37.532)">
          <path id="Trazado_1035299" data-name="Trazado 1035299" d="M122.378,320.083l-.468.577-5.091,6.282L115,325.789a8.532,8.532,0,0,0-4.245-1.332,7.015,7.015,0,0,1-3.474-1.085l-4.506-2.862a1.593,1.593,0,0,1-.741-1.347c0-.018,0-.035,0-.052,0,0,.227-.461.341-.677a6.052,6.052,0,0,1,.8-.482c.226.122.835-.448,1.324-.137l-1.024-.65a1.648,1.648,0,0,1-.74-1.381c0-.016,0,.016,0,0,.049-.263.68-.367.793-.585.022-.043-.035-.057.188-.167,0,0,.993-.872,1.482-.561l-.654-.416a1.593,1.593,0,0,1-.742-1.349c0-.018,0-.035,0-.053.008-.23.352-.37.464-.586a2.011,2.011,0,0,1,.536-.474s.974-.545,1.465-.234l-6.262-3.977a1.591,1.591,0,0,1-.564-2.078c.63-.566,1.033-.708,1.3-.54l10.082,6.669c3.018,1.617,4.292.4,4.294.392.021-.1.36-.673.383-.772a1.9,1.9,0,0,0,.2-.535.2.2,0,0,0,.006-.029c.059-.285.121-.546.187-.79a8.007,8.007,0,0,1,1.38-2.84,3.52,3.52,0,0,1,.627-.693,2.392,2.392,0,0,1,.658-.363,4.773,4.773,0,0,1,1.462.1c.076.048-.948,3.69-.892,4.3,0,0,.173,4.837.2,5.2a3.693,3.693,0,0,0,2.03,3.2Z" transform="translate(-99.264 -304.7)" fill="#ffb09e"/>
        </g>
        <path id="Trazado_1035300" data-name="Trazado 1035300" d="M253.186,431.2h-17a.111.111,0,0,1-.063-.02l-4.078-3.025a.105.105,0,0,1-.027-.14l4.687-7.426h1.719l14.614,9.619Z" transform="translate(-203.613 -368.403)" fill="#60b7ff"/>
        <path id="Trazado_1035301" data-name="Trazado 1035301" d="M288.184,422.4H285.67l-16.48-10.611.773-1.225a.106.106,0,0,1,.147-.033L288.242,422.2A.105.105,0,0,1,288.184,422.4Z" transform="translate(-236.097 -359.597)" fill="#26a6fe"/>
        <path id="Trazado_1035302" data-name="Trazado 1035302" d="M223.981,405.9l-5.448,7.306a1.115,1.115,0,0,1-1.55.228l-1.889-1.4a1.1,1.1,0,0,1-.229-1.545l5.407-7.25c.7-.574,1.511-1.513,1.872-1.246l2.028,1.5C224.507,403.748,224.632,404.831,223.981,405.9Z" transform="translate(-188.452 -352.12)" fill="#eaf6ff"/>
        <path id="Trazado_1035303" data-name="Trazado 1035303" d="M263.879,400.356l-1.041,1.395a1.211,1.211,0,0,0-.5-1l-2.028-1.5a1.208,1.208,0,0,0-1.182-.157l1.081-1.449a1.112,1.112,0,0,1,1.549-.228l1.891,1.4A1.106,1.106,0,0,1,263.879,400.356Z" transform="translate(-227.308 -347.967)" fill="#d8ecfe"/>
        <g id="Grupo_1177479" data-name="Grupo 1177479" transform="translate(34 0.201)">
          <g id="Grupo_1177478" data-name="Grupo 1177478">
            <path id="Trazado_1035304" data-name="Trazado 1035304" d="M299.469,12.435c-.114-.012-.23-.021-.346-.025a.392.392,0,0,1-.3-.165c-.113-.159-.233-.313-.36-.461a6.543,6.543,0,0,0-7.654-1.707.389.389,0,0,1-.346-.013,4.775,4.775,0,0,0-6.8,2.739.375.375,0,0,1-.356.262,5.833,5.833,0,0,0-5.2,8.5.383.383,0,0,1-.117.494,3.724,3.724,0,0,0-.382,5.858.381.381,0,0,1,.116.354,5.384,5.384,0,0,0,.106,2.387c2.525,3.275,7.6,4.122,10.473,4.122,8.221,0,13.414-4.248,13.414-12.469C301.717,20.344,301.717,15.036,299.469,12.435Z" transform="translate(-276.36 -9.5)" fill="#eaf6ff"/>
            <path id="Trazado_1035305" data-name="Trazado 1035305" d="M314.677,45a.371.371,0,0,0-.021.387,5.823,5.823,0,0,1-2.355,7.905c-.049.027-.135.069-.215.109a.373.373,0,0,0-.21.3,5.132,5.132,0,0,1-.182.972,0,0,0,0,0,0,0,5.111,5.111,0,0,1-7.163,3.138.374.374,0,0,0-.425.067,6.167,6.167,0,0,1-10.19-2.671.376.376,0,0,0-.38-.269,5.473,5.473,0,0,1-5.552-4.006,14.889,14.889,0,0,0,21.64-18.226,5.25,5.25,0,0,1,4.446,6.867.374.374,0,0,0,.1.385A3.925,3.925,0,0,1,314.677,45Z" transform="translate(-286.511 -29.776)" fill="#d8ecfe"/>
            <path id="Trazado_1035306" data-name="Trazado 1035306" d="M341.2,63.2c-1.313,10.485-6.808,10.34-11.61,10.34A8.872,8.872,0,1,1,341.2,63.2Z" transform="translate(-317.644 -50.382)" fill="#73788c"/>
            <path id="Trazado_1035307" data-name="Trazado 1035307" d="M382.63,112.8a8.907,8.907,0,0,1-11.83,8.372,14.9,14.9,0,0,0,11.61-10.341A8.865,8.865,0,0,1,382.63,112.8Z" transform="translate(-358.857 -98.016)" fill="#5e6577"/>
          </g>
          <path id="Trazado_1035308" data-name="Trazado 1035308" d="M427.537,272.874c0,1.409-1.69,2.03-3.1,2.03-.668,0-1.189-.667-1.655-1.344a2.642,2.642,0,0,1-.061-.569,2.735,2.735,0,0,1,4.131-2.34A3.466,3.466,0,0,1,427.537,272.874Z" transform="translate(-404.211 -237.292)" fill="#eaf6ff"/>
          <path id="Trazado_1035309" data-name="Trazado 1035309" d="M428.607,275.638a2.735,2.735,0,0,1-5.407.569,2.561,2.561,0,0,0,4.289-1.878,2.527,2.527,0,0,0-.219-1.031A2.716,2.716,0,0,1,428.607,275.638Z" transform="translate(-404.631 -239.939)" fill="#d8ecfe"/>
          <path id="Trazado_1035310" data-name="Trazado 1035310" d="M401.6,335.557a1.814,1.814,0,0,1-1.943,1.62c-.515,0-.928-.261-1.468-1.145a1.988,1.988,0,0,1,2.84-2.044A2.2,2.2,0,0,1,401.6,335.557Z" transform="translate(-382.766 -292.78)" fill="#eaf6ff"/>
          <path id="Trazado_1035311" data-name="Trazado 1035311" d="M402.266,337.15a1.987,1.987,0,0,1-3.956.263,1.765,1.765,0,0,0,3.064-1.186,1.74,1.74,0,0,0-.224-.857A1.979,1.979,0,0,1,402.266,337.15Z" transform="translate(-382.888 -294.16)" fill="#d8ecfe"/>
        </g>
      </g>
      <g id="Grupo_1177487" data-name="Grupo 1177487" transform="translate(7.5 7.5)">
        <path id="Trazado_1035312" data-name="Trazado 1035312" d="M214.69,8.741a16.5,16.5,0,0,1,10.261,5.309" transform="translate(-188.489 -8.584)" fill="none" stroke="#000" stroke-linecap="round" stroke-linejoin="round" stroke-miterlimit="10" stroke-width="1.5"/>
        <path id="Trazado_1035313" data-name="Trazado 1035313" d="M69.741,23.616v-.55a12.125,12.125,0,0,1,1.882-6.511h0a16.708,16.708,0,0,1,12.02-7.721" transform="translate(-61.87 -8.665)" fill="none" stroke="#000" stroke-linecap="round" stroke-linejoin="round" stroke-miterlimit="10" stroke-width="1.5"/>
        <line id="Línea_988" data-name="Línea 988" y1="3.258" transform="translate(7.871 19.376)" fill="none" stroke="#000" stroke-linecap="round" stroke-linejoin="round" stroke-miterlimit="10" stroke-width="1.5"/>
        <path id="Trazado_1035314" data-name="Trazado 1035314" d="M51.928,196.818A7.023,7.023,0,0,1,46.577,190h0A2.793,2.793,0,0,1,49.37,187.2h2.558" transform="translate(-41.635 -164.479)" fill="none" stroke="#000" stroke-linecap="round" stroke-linejoin="round" stroke-miterlimit="10" stroke-width="1.5"/>
        <path id="Trazado_1035315" data-name="Trazado 1035315" d="M311.147,229.131a7.036,7.036,0,0,1-4.889,4.311" transform="translate(-268.478 -201.104)" fill="none" stroke="#000" stroke-linecap="round" stroke-linejoin="round" stroke-miterlimit="10" stroke-width="1.5"/>
        <path id="Trazado_1035316" data-name="Trazado 1035316" d="M90.478,149.154a8.668,8.668,0,0,1-1.587-5V133.765a1.84,1.84,0,0,0,1.71-1.257l1.185-4.624a2.709,2.709,0,0,1,3.732-1.566l.173.083,1.394.534a15.443,15.443,0,0,0,11.049,0l1.394-.534.231-.109a2.706,2.706,0,0,1,2.7.224" transform="translate(-78.598 -111.044)" fill="none" stroke="#000" stroke-linecap="round" stroke-linejoin="round" stroke-miterlimit="10" stroke-width="1.5"/>
        <path id="Trazado_1035317" data-name="Trazado 1035317" d="M267.18,201.93v8.523a8.665,8.665,0,0,1-2.96,6.523l-2.7,2.36" transform="translate(-229.4 -177.343)" fill="none" stroke="#000" stroke-linecap="round" stroke-linejoin="round" stroke-miterlimit="10" stroke-width="1.5"/>
        <g id="Grupo_1177482" data-name="Grupo 1177482" transform="translate(0 49.003)">
          <g id="Grupo_1177481" data-name="Grupo 1177481">
            <path id="Trazado_1035318" data-name="Trazado 1035318" d="M93.711,396.221l.81-.21,3.415-1" transform="translate(-82.809 -395.006)" fill="none" stroke="#000" stroke-linecap="round" stroke-linejoin="round" stroke-miterlimit="10" stroke-width="1.5"/>
            <path id="Trazado_1035319" data-name="Trazado 1035319" d="M7.5,415.945c.135-.106.291-.227.4-.306a17.406,17.406,0,0,1,6.206-2.411" transform="translate(-7.5 -410.924)" fill="none" stroke="#000" stroke-linecap="round" stroke-linejoin="round" stroke-miterlimit="10" stroke-width="1.5"/>
            <path id="Trazado_1035320" data-name="Trazado 1035320" d="M10.674,432.294l.928.464a7.148,7.148,0,0,1,3.951,6.393v2.274" transform="translate(-10.273 -427.579)" fill="none" stroke="#000" stroke-linecap="round" stroke-linejoin="round" stroke-miterlimit="10" stroke-width="1.5"/>
          </g>
        </g>
        <ellipse id="Elipse_12462" data-name="Elipse 12462" cx="2.734" cy="2.737" rx="2.734" ry="2.737" transform="translate(52.508 33.164)" fill="none" stroke="#000" stroke-linecap="round" stroke-linejoin="round" stroke-miterlimit="10" stroke-width="1.5"/>
        <ellipse id="Elipse_12463" data-name="Elipse 12463" cx="1.987" cy="1.989" rx="1.987" ry="1.989" transform="translate(49.404 41.237)" fill="none" stroke="#000" stroke-linecap="round" stroke-linejoin="round" stroke-miterlimit="10" stroke-width="1.5"/>
        <path id="Trazado_1035321" data-name="Trazado 1035321" d="M304.389,22.987a3.958,3.958,0,0,0-.554-5.412,5.269,5.269,0,0,0-4.906-7.154,6.194,6.194,0,0,0-.471-.625,6.519,6.519,0,0,0-7.83-1.632h0a4.765,4.765,0,0,0-7.042,2.927,5.863,5.863,0,0,0-5.3,8.854,3.753,3.753,0,0,0-.514,6.2,5.465,5.465,0,0,0,5.915,6.62,6.154,6.154,0,0,0,10.458,2.786,5.1,5.1,0,0,0,7.4-3.028,0,0,0,0,1,0,0,5.149,5.149,0,0,0,.2-1.185l.086-.039a5.868,5.868,0,0,0,2.566-8.311Z" transform="translate(-242.36 -7.5)" fill="none" stroke="#000" stroke-linecap="round" stroke-linejoin="round" stroke-miterlimit="10" stroke-width="1.5"/>
        <g id="Grupo_1177484" data-name="Grupo 1177484" transform="translate(39.953 5.947)">
          <path id="Trazado_1035322" data-name="Trazado 1035322" d="M340.634,60.173a8.914,8.914,0,1,1-2.624-3.608" transform="translate(-323.437 -54.531)" fill="none" stroke="#000" stroke-linecap="round" stroke-linejoin="round" stroke-miterlimit="10" stroke-width="1.5"/>
          <g id="Grupo_1177483" data-name="Grupo 1177483" transform="translate(6.543 4.291)">
            <path id="Trazado_1035323" data-name="Trazado 1035323" d="M375.179,90.828a2.364,2.364,0,1,1,2.364,2.365V95.16" transform="translate(-375.179 -88.463)" fill="none" stroke="#000" stroke-linecap="round" stroke-linejoin="round" stroke-miterlimit="10" stroke-width="1.5"/>
            <line id="Línea_989" data-name="Línea 989" transform="translate(2.364 9.493)" fill="none" stroke="#000" stroke-linecap="round" stroke-linejoin="round" stroke-miterlimit="10" stroke-width="1.5"/>
          </g>
        </g>
        <g id="Grupo_1177485" data-name="Grupo 1177485" transform="translate(16.111 20.944)">
          <path id="Trazado_1035324" data-name="Trazado 1035324" d="M191.36,269.751a2.979,2.979,0,0,1-2.705,0" transform="translate(-181.858 -257.531)" fill="none" stroke="#000" stroke-linecap="round" stroke-linejoin="round" stroke-miterlimit="10" stroke-width="1.5"/>
          <line id="Línea_990" data-name="Línea 990" x1="5.163" transform="translate(5.568 17.363)" fill="none" stroke="#000" stroke-linecap="round" stroke-linejoin="round" stroke-miterlimit="10" stroke-width="1.5"/>
          <path id="Trazado_1035325" data-name="Trazado 1035325" d="M139.852,173.751a5.14,5.14,0,0,0-4.948,0" transform="translate(-134.904 -173.117)" fill="none" stroke="#000" stroke-linecap="round" stroke-linejoin="round" stroke-miterlimit="10" stroke-width="1.5"/>
          <path id="Trazado_1035326" data-name="Trazado 1035326" d="M224.673,187.358a5.141,5.141,0,0,1,4.948,0" transform="translate(-213.321 -185.003)" fill="none" stroke="#000" stroke-linecap="round" stroke-linejoin="round" stroke-miterlimit="10" stroke-width="1.5"/>
          <line id="Línea_991" data-name="Línea 991" y1="2.195" transform="translate(13.826 5.759)" fill="none" stroke="#000" stroke-linecap="round" stroke-linejoin="round" stroke-miterlimit="10" stroke-width="1.5"/>
          <line id="Línea_992" data-name="Línea 992" y1="2.195" transform="translate(2.474 5.759)" fill="none" stroke="#000" stroke-linecap="round" stroke-linejoin="round" stroke-miterlimit="10" stroke-width="1.5"/>
        </g>
        <path id="Trazado_1035327" data-name="Trazado 1035327" d="M290.456,404.012l15.862,10.213v-.761a10.29,10.29,0,0,0-4.774-8.371c-2.349-1.684-5.324-2.155-8.072-2.869-.809-.21-2.622-.712-3.934-1.068" transform="translate(-253.872 -351.375)" fill="none" stroke="#000" stroke-linecap="round" stroke-linejoin="round" stroke-miterlimit="10" stroke-width="1.5"/>
        <line id="Línea_993" data-name="Línea 993" x1="2.269" y1="1.666" transform="translate(30.31 61.183)" fill="none" stroke="#000" stroke-linecap="round" stroke-linejoin="round" stroke-miterlimit="10" stroke-width="1.5"/>
        <g id="Grupo_1177486" data-name="Grupo 1177486" transform="translate(43.669 53.721)">
          <path id="Trazado_1035328" data-name="Trazado 1035328" d="M356.819,432.314l-.923.462a7.143,7.143,0,0,0-3.075,2.964" transform="translate(-352.821 -432.314)" fill="none" stroke="#000" stroke-linecap="round" stroke-linejoin="round" stroke-miterlimit="10" stroke-width="1.5"/>
        </g>
        <path id="Trazado_1035329" data-name="Trazado 1035329" d="M120.847,315.46a5.119,5.119,0,0,1-.4-2.729,9.738,9.738,0,0,0-.009-2.279l-.188-2.1a3.173,3.173,0,0,1,.354-1.767l.624-1.182a.638.638,0,0,0-.059-.685.743.743,0,0,0-.2-.169,2.118,2.118,0,0,0-2.461.179,3.546,3.546,0,0,0-.628.7,8.4,8.4,0,0,0-1.566,3.648l-.006.03a1.921,1.921,0,0,1-2.91,1.2l-11.063-7.059a1.6,1.6,0,0,0-2.214.491h0a1.606,1.606,0,0,0,.49,2.217l8.946,5.708-2.683-1.712a1.6,1.6,0,0,0-2.214.491h0a1.606,1.606,0,0,0,.49,2.217l.655.418,2.028,1.294-2.028-1.294a1.6,1.6,0,0,0-2.214.491h0a1.606,1.606,0,0,0,.49,2.217l1.024.653,1.374.876-1.374-.876a1.6,1.6,0,0,0-2.214.492h0a1.607,1.607,0,0,0,.489,2.217l4.506,2.875a6.981,6.981,0,0,0,3.473,1.09h0a8.491,8.491,0,0,1,3.258.794" transform="translate(-88.197 -265.628)" fill="none" stroke="#000" stroke-linecap="round" stroke-linejoin="round" stroke-miterlimit="10" stroke-width="1.5"/>
        <path id="Trazado_1035330" data-name="Trazado 1035330" d="M224.093,397.677l-6.94,9.352a1.106,1.106,0,0,1-1.545.228l-1.9-1.41a1.111,1.111,0,0,1-.228-1.548l6.94-9.352a1.106,1.106,0,0,1,1.545-.228l1.9,1.41A1.111,1.111,0,0,1,224.093,397.677Z" transform="translate(-187.247 -345.562)" fill="none" stroke="#000" stroke-linecap="round" stroke-linejoin="round" stroke-miterlimit="10" stroke-width="1.5"/>
      </g>
    </g>
  </g>
</svg>
